<?xml version="1.0" encoding="UTF-8"?><svg xmlns="http://www.w3.org/2000/svg" xmlns:xlink="http://www.w3.org/1999/xlink" width="75" zoomAndPan="magnify" viewBox="0 0 75 72" height="72" preserveAspectRatio="xMidYMid meet" version="1.0"><defs><clipPath id="clip-0"><path d="M 0.863281 2.570312 L 74.363281 2.570312 L 74.363281 41 L 0.863281 41 Z M 0.863281 2.570312 " clip-rule="nonzero"/></clipPath><clipPath id="clip-1"><path d="M 0.863281 31 L 74.363281 31 L 74.363281 69.320312 L 0.863281 69.320312 Z M 0.863281 31 " clip-rule="nonzero"/></clipPath></defs><g clip-path="url(#clip-0)"><path fill="rgb(4.309082%, 5.488586%, 22.749329%)" d="M 3.617188 40.070312 L 37.457031 6.386719 L 71.296875 40.066406 C 71.605469 40.378906 72.015625 40.53125 72.421875 40.53125 C 72.828125 40.53125 73.234375 40.378906 73.546875 40.070312 C 74.164062 39.453125 74.164062 38.449219 73.546875 37.832031 L 38.582031 3.035156 C 37.960938 2.417969 36.953125 2.417969 36.332031 3.035156 L 1.367188 37.832031 C 0.75 38.449219 0.75 39.453125 1.367188 40.070312 C 1.988281 40.6875 2.992188 40.6875 3.617188 40.070312 Z M 3.617188 40.070312 " fill-opacity="1" fill-rule="nonzero"/></g><g clip-path="url(#clip-1)"><path fill="rgb(4.309082%, 5.488586%, 22.749329%)" d="M 38.582031 31.503906 C 37.960938 30.886719 36.953125 30.886719 36.332031 31.503906 L 1.367188 66.300781 C 0.75 66.917969 0.75 67.921875 1.367188 68.539062 C 1.988281 69.15625 2.996094 69.15625 3.617188 68.539062 L 37.457031 34.859375 L 71.296875 68.539062 C 71.605469 68.847656 72.015625 69.003906 72.421875 69.003906 C 72.828125 69.003906 73.234375 68.847656 73.546875 68.542969 C 74.164062 67.925781 74.164062 66.921875 73.546875 66.304688 Z M 38.582031 31.503906 " fill-opacity="1" fill-rule="nonzero"/></g></svg>