<?xml version="1.0" encoding="UTF-8"?><svg xmlns="http://www.w3.org/2000/svg" xmlns:xlink="http://www.w3.org/1999/xlink" width="75" zoomAndPan="magnify" viewBox="0 0 75 72" height="72" preserveAspectRatio="xMidYMid meet" version="1.0"><defs><clipPath id="clip-0"><path d="M 0.628906 31 L 74.128906 31 L 74.128906 69.425781 L 0.628906 69.425781 Z M 0.628906 31 " clip-rule="nonzero"/></clipPath><clipPath id="clip-1"><path d="M 0.628906 2.675781 L 74.128906 2.675781 L 74.128906 41 L 0.628906 41 Z M 0.628906 2.675781 " clip-rule="nonzero"/></clipPath></defs><g clip-path="url(#clip-0)"><path fill="rgb(4.309082%, 5.488586%, 22.749329%)" d="M 71.378906 31.925781 L 37.539062 65.605469 L 3.699219 31.929688 C 3.386719 31.617188 2.980469 31.464844 2.574219 31.464844 C 2.167969 31.464844 1.761719 31.617188 1.449219 31.925781 C 0.828125 32.542969 0.828125 33.546875 1.449219 34.160156 L 36.414062 68.960938 C 37.035156 69.578125 38.042969 69.578125 38.660156 68.960938 L 73.625 34.160156 C 74.246094 33.546875 74.246094 32.542969 73.625 31.925781 C 73.007812 31.308594 72 31.308594 71.378906 31.925781 Z M 71.378906 31.925781 " fill-opacity="1" fill-rule="nonzero"/></g><g clip-path="url(#clip-1)"><path fill="rgb(4.309082%, 5.488586%, 22.749329%)" d="M 36.414062 40.492188 C 37.035156 41.109375 38.042969 41.109375 38.660156 40.492188 L 73.625 5.695312 C 74.246094 5.078125 74.246094 4.074219 73.625 3.457031 C 73.007812 2.839844 72 2.839844 71.378906 3.457031 L 37.539062 37.136719 L 3.699219 3.457031 C 3.386719 3.148438 2.980469 2.992188 2.574219 2.992188 C 2.167969 2.992188 1.761719 3.148438 1.449219 3.453125 C 0.828125 4.070312 0.828125 5.074219 1.449219 5.691406 Z M 36.414062 40.492188 " fill-opacity="1" fill-rule="nonzero"/></g></svg>