<?xml version="1.0" encoding="utf-8"?>
<!-- Generator: Adobe Illustrator 25.2.3, SVG Export Plug-In . SVG Version: 6.00 Build 0)  -->
<svg version="1.1" id="Layer_1" xmlns="http://www.w3.org/2000/svg" xmlns:xlink="http://www.w3.org/1999/xlink" x="0px" y="0px"
	 viewBox="0 0 562.5 375" style="enable-background:new 0 0 562.5 375;" xml:space="preserve">
<style type="text/css">
	.st0{clip-path:url(#SVGID_2_);}
</style>
<g>
	<defs>
		<rect id="SVGID_1_" x="38" y="155" width="487" height="211.8"/>
	</defs>
	<clipPath id="SVGID_2_">
		<use xlink:href="#SVGID_1_"  style="overflow:visible;"/>
	</clipPath>
	<g class="st0">
		<path d="M200,254.9c-2.1,0.9-1.7,3.5-1.6,5.2c0,0.5,0.1,1,0.1,1.5c1.9-1,4.3-2.5,4.6-4.3C203.6,255.6,201.8,254.1,200,254.9z
			 M200,254.9c-2.1,0.9-1.7,3.5-1.6,5.2c0,0.5,0.1,1,0.1,1.5c1.9-1,4.3-2.5,4.6-4.3C203.6,255.6,201.8,254.1,200,254.9z
			 M489.6,312.3c5.3,2.8,11.7,7.7,18,5c4.8-2.1,7.8-7.6,10.3-11.9c2.5-4.4,4.5-9,6.4-13.7c0.8-1.9-0.5-4.2-2.2-5.2
			c-6.5-4.2-12.8-8.4-19.5-12.1c-12.4-6.8-5.9-11.3-4.1-13.2c5.4-5.7,10.9-11.5,16.4-17.1c2.2-2.3,1.5-5.5-0.9-7.3
			c-13.1-9.1-26.3-18.2-39.4-27.4c-1.9-1.3-5.3-0.5-6.4,1.6c-5.5,11.5-11.2,23.1-16.7,34.5c-5.2-3.2-10.6-6.1-16.1-8.9
			c-5.1-2.7-12.1-7.5-18.2-6.8c-5.1,0.7-7.2,4.9-9.4,9c-3.1,5.5-6.5,10.9-9.7,16.2c-1.4,2.3-0.3,4.8,1.6,6.4c11,8.2,22.7,15.3,35,21
			c-6.2,17.9-14.8,34.3-23.9,51c-0.7,1.2-7.1,12.4-11.4,19.3c-7.2,0.2-14.3,0.4-21.4,0.6c-0.1-18.6-0.2-64.9-0.2-69.6
			c0-3.8,0.4-8.1-2.3-11.2c-2.1-2.4-5.2-2.9-8.2-3.1c-4.9-0.4-54-0.9-58.6-0.7c-3.6,0.1-6.8,0.8-8.6,4.2c-2.4,4.4-1.3,11.2-1.2,16
			c0.1,7.2,1.6,51.9,1.4,67.1c-8.1,0.3-16.2,0.5-24.2,0.7c1.3-7,1.5-14.2,2.3-21.2c1-10.6,2.3-21.1,3.3-31.8
			c1.6-16.6,2.7-33.3,4.6-49.8c0.8-6.6,1.5-13,0.2-19.6c-2.9-13.2-10.7-24.2-18.9-34.6c-12.1-15.5-25.1-29.9-40-42.7
			c-1.8-1.6-4.6-1.8-6.6,0c-12.8,12.8-24.7,26.6-35.4,41.3c-6.6,9.1-13.4,19.1-16.1,30.1c-3.3,13.6-0.4,28.2,1.4,41.7
			c2.4,17.1,5.8,34.1,9,51c2.3,11.8,3.7,24,6.4,35.7c-9.3-0.3-18.8-0.7-28.1-1.2c0.8-9.6,0.3-19.4,0.1-28.9
			c-0.3-12.3-1-24.6-3.1-36.8c-2.6-15.8-5.6-33.6-18.7-44.2c-16.2-13.1-38.1-14.8-54.6-1.1c-12,9.8-16.2,24.3-18.9,39
			c-3.7,20.3-3.9,41.7-3.6,62.4c-5.5-0.2-11.1-0.2-16.6,0c-6,0.3-6,9.5,0,9.2c30.8-1.5,61.5,5,92,7.7c30.6,2.7,61.4,3.6,92.1,3.6
			c61,0,122-3.8,182.9-5.1c34.9-0.7,69.7-0.6,104.4,1.4c6,0.3,6-8.9,0-9.2c-20.1-1.1-40.3-1.6-60.4-1.7
			c6.6-16.1,13.1-32.2,19.7-48.3C479.1,306.7,484.4,309.6,489.6,312.3z M213,281.8c-3.8-3.2-7.8-6-12-8.8c0.7,2.3,1.5,4.6,2.3,6.8
			c1.9,5.6-7,8-8.9,2.5c-3.5-9.9-12.6-36.7,6.6-36.8c6.1,0,11.5,5.1,11.5,11.3c0,4-2.2,7.2-4.9,9.6c4.1,2.8,8.1,5.7,11.9,8.9
			C224.2,279,217.6,285.6,213,281.8z M229.9,273.7c-2.3-9.4-5.1-18.7-8.4-27.8c-2.1-5.6,6.9-8,8.9-2.5c3.3,9.1,6.2,18.4,8.4,27.9
			C240.2,277.1,231.3,279.5,229.9,273.7z M254.9,260.4c0.9,2.4,1.8,4.6,2.7,7c2.2,5.5-6.8,7.9-8.9,2.5c-3.2-8.2-9.9-19.3-7.2-28.4
			c2.1-6.7,9.4-10.9,16.2-9.1C273.8,236.3,268.2,259.7,254.9,260.4z M256.5,241.6c-2.7-1.8-5.8,0.5-6.4,3.4
			c-0.3,1.7,0.2,3.8,0.9,5.7C252.3,254.9,266.4,248.4,256.5,241.6z M200,254.9c-2.1,0.9-1.7,3.5-1.6,5.2c0,0.5,0.1,1,0.1,1.5
			c1.9-1,4.3-2.5,4.6-4.3C203.6,255.6,201.8,254.1,200,254.9z M200,254.9c-2.1,0.9-1.7,3.5-1.6,5.2c0,0.5,0.1,1,0.1,1.5
			c1.9-1,4.3-2.5,4.6-4.3C203.6,255.6,201.8,254.1,200,254.9z M200,254.9c-2.1,0.9-1.7,3.5-1.6,5.2c0,0.5,0.1,1,0.1,1.5
			c1.9-1,4.3-2.5,4.6-4.3C203.6,255.6,201.8,254.1,200,254.9z"/>
	</g>
</g>
</svg>
