<?xml version="1.0" encoding="UTF-8"?><svg xmlns="http://www.w3.org/2000/svg" xmlns:xlink="http://www.w3.org/1999/xlink" width="1190.25" zoomAndPan="magnify" viewBox="0 0 1190.25 1683.749945" height="1683.749945" preserveAspectRatio="xMidYMid meet" version="1.0"><defs><clipPath id="clip-0"><path d="M 561.160156 796.292969 L 1171.425781 796.292969 L 1171.425781 1683.09375 L 561.160156 1683.09375 Z M 561.160156 796.292969 " clip-rule="nonzero"/></clipPath></defs><g clip-path="url(#clip-0)"><path fill="rgb(88.238525%, 88.238525%, 88.238525%)" d="M 1055.90625 1145.472656 C 1055.582031 1140.414062 1050.566406 1137.15625 1045.6875 1138.457031 C 1042.390625 1139.339844 1040.238281 1141.976562 1038.042969 1144.515625 C 1036.878906 1144.808594 1035.722656 1145.128906 1034.570312 1145.472656 C 1029.691406 1146.921875 1024.90625 1148.679688 1020.234375 1150.710938 C 1012.285156 1154.167969 1003.996094 1158.019531 996.660156 1162.878906 C 990.160156 1165.523438 983.773438 1168.460938 977.449219 1171.574219 C 972.539062 1173.988281 967.828125 1175.199219 962.375 1175.59375 C 960.523438 1175.726562 958.652344 1175.851562 956.789062 1176.050781 C 952.691406 1175.632812 948.5 1176.238281 944.703125 1177.882812 C 943.097656 1178.570312 942.496094 1180.652344 943.058594 1182.058594 C 942.933594 1182.339844 942.828125 1182.652344 942.746094 1182.972656 C 942.308594 1184.921875 943.160156 1186.890625 944.691406 1188.097656 C 945.8125 1188.992188 947.125 1189.378906 948.488281 1189.585938 C 948.5 1189.667969 948.507812 1189.753906 948.519531 1189.835938 C 947.511719 1190.6875 947.105469 1192.261719 947.457031 1193.488281 C 947.820312 1194.8125 948.195312 1196.125 948.59375 1197.4375 C 949.007812 1198.863281 950.539062 1200.152344 952.097656 1200.019531 C 956.332031 1199.621094 959.253906 1197.34375 962.207031 1194.449219 C 965.382812 1191.34375 968.785156 1188.753906 972.539062 1186.390625 C 980.246094 1181.527344 988.265625 1177.15625 996.464844 1173.199219 C 1004.339844 1169.386719 1012.464844 1165.910156 1020.734375 1162.847656 C 1022.542969 1162.234375 1024.332031 1161.589844 1026.113281 1160.914062 C 1031.5 1159.050781 1036.949219 1157.363281 1042.433594 1155.875 C 1045.335938 1156.664062 1048.507812 1156.625 1051.347656 1155.582031 C 1053.9375 1154.613281 1057.203125 1152.835938 1057.226562 1149.710938 C 1057.234375 1148.417969 1056.675781 1147.316406 1055.8125 1146.421875 C 1055.894531 1146.097656 1055.925781 1145.773438 1055.90625 1145.472656 Z M 716.355469 941.664062 C 721.421875 946.472656 726.996094 950.480469 733.101562 953.886719 C 738.417969 956.851562 744.046875 959.945312 749.988281 961.402344 C 754.324219 962.476562 758.734375 962.101562 762.53125 959.988281 C 763.105469 959.957031 763.664062 959.777344 764.1875 959.414062 C 766.722656 957.675781 769.5625 956.613281 772.019531 954.675781 C 774.402344 952.792969 776.429688 950.503906 778.582031 948.378906 C 782.847656 944.171875 787.28125 939.871094 792.253906 936.519531 C 794.476562 935.019531 792.625 930.867188 790.015625 931.636719 C 785.667969 932.90625 781.640625 934.25 777.855469 936.113281 C 777.148438 936.03125 776.378906 936.144531 775.597656 936.53125 C 773.914062 937.363281 772.339844 938.300781 770.863281 939.339844 C 770.179688 939.382812 769.480469 939.644531 768.816406 940.207031 C 768.679688 940.320312 768.535156 940.402344 768.398438 940.507812 C 768.367188 940.507812 768.335938 940.507812 768.304688 940.507812 C 766.660156 940.820312 765.121094 940.714844 763.65625 940.332031 C 764.789062 939.019531 766.058594 937.4375 765.953125 936.09375 C 765.820312 934.238281 763.25 932.34375 762 931.242188 C 761.710938 930.972656 761.085938 930.523438 760.609375 930.636719 C 760.191406 930.367188 759.742188 930.222656 759.515625 930.386719 C 758.058594 931.46875 755.8125 933.792969 753.785156 934.300781 C 753.761719 934.292969 753.730469 934.292969 753.710938 934.28125 C 754.835938 933.148438 756.71875 930.273438 756.757812 929.597656 C 756.820312 928.328125 754.667969 926.546875 754.0625 925.847656 C 753.824219 925.558594 752.660156 924.597656 752.253906 925.066406 C 751.441406 926.035156 748.882812 929.511719 747.582031 929.523438 C 746.324219 929.535156 744.734375 927.847656 744.410156 926.503906 C 745.949219 924.953125 747.5 923.402344 749.039062 921.851562 C 749.15625 921.734375 749 921.433594 748.9375 921.363281 C 747.855469 919.996094 746.324219 918.175781 744.566406 917.320312 C 744.214844 917.0625 743.816406 916.875 743.546875 916.9375 C 743.535156 916.9375 743.527344 916.945312 743.515625 916.945312 C 743.433594 916.925781 743.359375 916.894531 743.277344 916.875 C 742.164062 916.695312 740.15625 917.382812 738.417969 918.289062 C 738.347656 918.257812 738.273438 918.226562 738.210938 918.195312 C 738.378906 918.039062 738.542969 917.875 738.71875 917.707031 C 739.492188 917.019531 741 916.09375 741.40625 915.03125 C 742.070312 913.273438 739.96875 911.511719 738.96875 910.367188 C 738.636719 909.992188 737.878906 909.628906 737.390625 909.878906 C 736.121094 910.542969 735.121094 911.542969 733.894531 912.273438 C 733.46875 912.523438 733.007812 912.730469 732.5625 912.917969 C 732.238281 912.5625 731.730469 912.25 731.292969 912.261719 C 731.980469 911.617188 732.667969 910.980469 733.382812 910.378906 C 733.996094 909.878906 734.746094 909.574219 734.550781 908.710938 C 734.207031 907.203125 732.238281 905.640625 730.917969 905.058594 C 730.285156 904.777344 729.972656 904.871094 729.378906 905.222656 C 728.996094 905.453125 728.621094 905.859375 728.171875 905.996094 C 727.914062 906.078125 727.683594 906.046875 727.445312 906.003906 C 728.316406 905.246094 729.191406 904.484375 730.085938 903.757812 C 730.785156 903.203125 731.042969 903.203125 731.761719 902.871094 C 732.207031 902.671875 732.394531 902.664062 732.644531 902.214844 C 733.539062 900.644531 730.824219 898.175781 729.898438 897.238281 C 729.210938 896.550781 728.339844 895.71875 727.433594 896.238281 C 726.652344 896.6875 725.84375 898.101562 725.1875 898.789062 C 724.574219 899.433594 723.949219 900.082031 723.324219 900.726562 C 723.59375 899.738281 723.824219 898.75 723.96875 897.738281 C 724.40625 894.613281 725.519531 891.71875 725.851562 888.523438 C 726.183594 885.234375 726.914062 881.914062 726.839844 878.613281 C 726.800781 876.945312 725.75 875.875 724.542969 875.613281 C 724.40625 875.488281 724.28125 875.363281 724.125 875.261719 C 724.023438 875.1875 723.917969 875.113281 723.8125 875.042969 C 723.355469 874.707031 722.847656 874.667969 722.386719 874.800781 C 718.925781 875.386719 716.261719 880.519531 716.105469 884.203125 C 713.722656 886.652344 711.207031 889.035156 710.207031 891.929688 C 709.988281 892.179688 709.78125 892.417969 709.5625 892.65625 C 708.75 893.542969 707.480469 894.738281 706.285156 896.09375 C 706.085938 896.21875 705.890625 896.355469 705.691406 896.480469 C 700.5625 899.839844 699.855469 905.046875 700.222656 910.792969 C 700.960938 922.714844 707.910156 933.648438 716.355469 941.664062 Z M 770.875 865.003906 C 775.722656 866.402344 781.234375 866.058594 786.0625 864.753906 C 787.320312 864.421875 788.476562 863.976562 789.566406 863.464844 C 789.597656 863.433594 789.621094 863.402344 789.652344 863.382812 C 791.835938 861.394531 793.613281 859.175781 795.382812 856.894531 C 795.382812 856.875 795.382812 856.863281 795.394531 856.851562 C 798.859375 846.390625 784.511719 839.257812 776.480469 837.34375 C 768.035156 835.332031 757.695312 836.792969 754.34375 846.027344 C 750.609375 856.3125 762.792969 862.683594 770.875 865.003906 Z M 797.652344 885.691406 C 798.191406 889.511719 801.09375 892.6875 803.871094 895.144531 C 806.648438 897.613281 810.808594 901.539062 814.605469 901.964844 C 818.726562 902.421875 822.253906 898.96875 824.375 895.792969 C 827.101562 891.699219 828.765625 888.484375 827.558594 883.558594 C 826.457031 879.007812 823.988281 874.4375 820.527344 871.261719 C 813.421875 864.765625 805.765625 870.199219 799.523438 875.125 C 798.765625 878.644531 797.152344 882.195312 797.652344 885.691406 Z M 788.496094 874.792969 C 785.769531 874 783.179688 873.292969 780.519531 873.242188 C 776.972656 874.71875 773.476562 876.292969 770.242188 878.644531 C 767.566406 880.589844 764.113281 883.214844 763.207031 886.578125 C 762.5625 888.953125 763.976562 890.628906 764.40625 892.625 C 765.808594 892.71875 767.015625 893.292969 768.097656 894.15625 C 768.660156 894.085938 769.210938 894.125 770.011719 894.40625 C 771.65625 894.96875 772.125 896.695312 771.53125 898.09375 C 772.558594 899.570312 773.507812 901.082031 774.464844 902.265625 C 775.765625 902.078125 776.753906 900.996094 777.898438 899.832031 C 780.507812 897.207031 782.890625 894.1875 784.742188 890.980469 C 786.46875 887.972656 787.40625 884.808594 787.808594 881.394531 C 788.070312 879.207031 787.933594 876.894531 788.496094 874.792969 Z M 722.636719 863.152344 C 721.308594 859.582031 722.597656 856.976562 724.636719 854.65625 C 725.28125 852.617188 726.425781 850.710938 727.945312 849.023438 C 729.460938 847.335938 731.148438 845.871094 732.976562 844.535156 C 733.644531 844.046875 734.371094 843.621094 735.101562 843.171875 C 736.183594 839.539062 737.128906 835.855469 738.566406 832.324219 C 741.40625 825.296875 745.917969 819.289062 751.652344 814.367188 C 763.082031 804.546875 778.3125 798.851562 793.148438 796.980469 C 800.742188 796.019531 808.6875 795.699219 816 798.320312 C 823.324219 800.945312 831.273438 805.078125 837.179688 810.167969 C 840.1875 812.75 842.671875 815.832031 844.472656 819.269531 C 853.398438 827.679688 858.132812 841.714844 858.421875 853.148438 C 858.628906 861.621094 856.695312 870.105469 852.878906 877.65625 C 852.546875 878.3125 852.171875 879.03125 851.753906 879.800781 C 849.382812 887.347656 843.589844 893.886719 837.949219 899.175781 C 834.714844 902.214844 831 904.816406 827.089844 906.898438 C 826.394531 907.273438 825.707031 907.671875 825.007812 908.078125 C 824.582031 908.910156 824.113281 909.742188 823.523438 910.566406 C 821.859375 912.867188 820.316406 914.925781 819.175781 917.550781 C 817.074219 922.371094 815.96875 925.910156 809.925781 925.640625 C 804.132812 925.390625 798.691406 922.996094 792.96875 922.359375 C 790.378906 922.070312 787.589844 922.101562 785.1875 923.234375 C 783.003906 924.265625 781.890625 925.609375 779.582031 925.609375 C 779.125 925.953125 778.667969 926.277344 778.175781 926.523438 C 776.722656 927.273438 775.015625 927.734375 773.453125 928.285156 C 772.652344 928.828125 771.757812 929.222656 770.792969 929.378906 C 768.878906 929.679688 767.121094 928.140625 765.902344 926.859375 C 765.695312 926.628906 765.246094 926.078125 765.546875 925.746094 C 767.097656 923.984375 768.492188 922.121094 769.730469 920.132812 C 769.761719 920.089844 769.78125 920.058594 769.8125 920.027344 C 769.648438 919.839844 769.492188 919.632812 769.335938 919.433594 C 768.222656 921.214844 766.234375 924.152344 764.457031 924.410156 C 762.90625 924.640625 760.773438 922.390625 759.691406 921.621094 C 759.410156 921.425781 758.714844 920.808594 759.015625 920.371094 C 760.015625 918.925781 761.011719 917.28125 761.023438 915.457031 C 761.023438 915.355469 760.949219 915.105469 760.886719 914.863281 C 760.097656 916.332031 759.378906 918.175781 758.058594 918.5 C 756.613281 918.851562 755.113281 917.207031 754.085938 916.449219 C 753.792969 916.238281 753.273438 915.78125 753.347656 915.363281 C 753.660156 913.5625 753.816406 911.761719 754.648438 910.324219 C 753.785156 911.191406 752.867188 912.03125 751.871094 912.605469 C 750.652344 913.304688 749.320312 912.949219 748.167969 912.28125 C 747.074219 911.648438 745.347656 910.441406 745.328125 909.035156 C 745.316406 907.890625 746.335938 906.648438 747.125 905.621094 C 747 905.433594 746.917969 905.234375 746.9375 905.046875 C 746.96875 904.722656 747.15625 904.390625 747.40625 904.070312 C 746.78125 904.785156 746.066406 905.535156 745.328125 905.890625 C 744.460938 906.308594 743.558594 905.546875 742.839844 905.121094 C 742.683594 905.027344 742.214844 904.691406 741.957031 904.339844 C 741.777344 904.191406 741.613281 904.046875 741.4375 903.871094 C 740.550781 902.996094 739.480469 901.671875 740.394531 900.519531 C 741.425781 899.226562 742.714844 898.300781 743.277344 896.78125 C 742.609375 896.167969 741.933594 895.574219 741.238281 894.988281 C 741.1875 895.050781 741.125 895.105469 741.070312 895.167969 C 741.019531 895.238281 740.96875 895.3125 740.882812 895.375 C 739.824219 896.207031 738.480469 897.726562 737.066406 897.882812 C 736.652344 897.9375 736.253906 897.863281 735.890625 897.726562 C 735.140625 897.9375 734.300781 897.363281 734.246094 896.605469 C 734.101562 896.457031 733.957031 896.324219 733.8125 896.175781 C 732.84375 895.1875 732.269531 894.457031 733.113281 893.179688 C 733.757812 892.1875 734.757812 891.523438 735.683594 890.792969 C 735.726562 890.730469 735.753906 890.679688 735.796875 890.617188 C 734.632812 889.335938 734.164062 887.234375 735.351562 885.785156 C 738.066406 882.507812 737.753906 877.800781 735.828125 874.179688 C 735.007812 873.574219 734.144531 873.011719 733.289062 872.460938 C 729.285156 869.886719 724.40625 867.929688 722.636719 863.152344 Z M 636.390625 1361.539062 C 635.382812 1358.851562 633.15625 1357.351562 631.242188 1355.300781 C 628.683594 1352.582031 626.613281 1349.4375 625.0625 1346.035156 C 624.699219 1345.234375 624.03125 1344.816406 623.316406 1344.703125 C 621.722656 1344.265625 619.746094 1345.453125 620.621094 1347.316406 C 623.585938 1353.636719 627.609375 1359.175781 632.824219 1363.839844 C 634.394531 1365.253906 637.179688 1363.652344 636.390625 1361.539062 Z M 617.519531 1319.652344 C 617.261719 1318.964844 616.78125 1318.558594 616.242188 1318.363281 C 615.929688 1315.625 611.613281 1315.8125 611.863281 1318.613281 C 612.371094 1324.214844 613.453125 1329.730469 615.304688 1335.050781 C 616.136719 1337.445312 617.230469 1342.441406 620.621094 1342.328125 C 628.359375 1342.078125 618.695312 1322.714844 617.519531 1319.652344 Z M 616.21875 1305.492188 C 615.949219 1303.996094 615.503906 1302.640625 615.179688 1301.226562 C 615.398438 1299.820312 615.605469 1298.425781 615.667969 1297.0625 C 615.753906 1295.507812 615.761719 1293.96875 615.730469 1292.417969 C 616.074219 1291.40625 616.5 1290.40625 617 1289.429688 C 617.78125 1287.898438 616.667969 1286.566406 615.386719 1286.285156 C 615.378906 1286.160156 615.367188 1286.035156 615.355469 1285.910156 C 615.085938 1283.109375 610.695312 1283.285156 610.976562 1286.109375 C 611.152344 1288.023438 611.269531 1289.929688 611.320312 1291.84375 C 610.851562 1293.417969 610.550781 1295.03125 610.4375 1296.71875 C 610.332031 1298.371094 610.394531 1300.007812 610.65625 1301.640625 C 610.695312 1301.914062 610.75 1302.171875 610.800781 1302.433594 C 610.738281 1302.890625 610.6875 1303.347656 610.613281 1303.808594 C 610.257812 1306.148438 609.40625 1310.105469 613.058594 1310.179688 C 615.628906 1310.230469 616.59375 1307.597656 616.21875 1305.492188 Z M 649.621094 1365.816406 C 651.871094 1367.449219 654.855469 1364.285156 652.585938 1362.566406 C 647.210938 1358.507812 642.726562 1354.40625 640.386719 1347.886719 C 639.886719 1346.503906 638.511719 1346.210938 637.453125 1346.617188 C 637.296875 1346.398438 637.140625 1346.179688 637.003906 1345.953125 C 635.496094 1343.566406 631.804688 1345.941406 633.3125 1348.335938 C 637.617188 1355.175781 643.089844 1361.070312 649.621094 1365.816406 Z M 632.875 1339.527344 C 635.527344 1337.089844 633.40625 1333.394531 632.207031 1330.84375 C 630.523438 1327.261719 629.183594 1322.316406 626.082031 1319.703125 C 624.3125 1318.195312 621.992188 1320.121094 622.429688 1321.871094 C 621.859375 1322.371094 621.515625 1323.140625 621.765625 1324.078125 C 622.566406 1327.167969 626.976562 1344.972656 632.875 1339.527344 Z M 624.96875 1313.988281 C 630.386719 1312.84375 627.089844 1304.867188 627.214844 1301.089844 C 627.421875 1295.019531 630.316406 1290.292969 626.425781 1284.785156 C 625.789062 1283.902344 624.40625 1283.621094 623.449219 1284.066406 C 622.148438 1283.558594 620.289062 1284.277344 620.296875 1286.117188 C 620.308594 1290.335938 620.351562 1294.574219 619.890625 1298.769531 C 619.601562 1301.589844 618.664062 1304.378906 618.5625 1307.191406 C 618.4375 1310.742188 620.859375 1314.851562 624.96875 1313.988281 Z M 668.398438 1329.054688 C 668.960938 1329.855469 669.960938 1330.25 670.917969 1329.949219 C 676.605469 1328.148438 669.011719 1320.632812 667.421875 1318.589844 C 666.964844 1317.996094 666.359375 1317.738281 665.765625 1317.707031 C 665.621094 1317.496094 665.464844 1317.289062 665.320312 1317.082031 C 663.699219 1314.78125 660.003906 1317.144531 661.636719 1319.464844 C 663.882812 1322.660156 666.140625 1325.859375 668.398438 1329.054688 Z M 662.292969 1314.511719 C 664.570312 1312.824219 664.320312 1309.492188 663.269531 1307.199219 C 662.011719 1304.441406 659.433594 1302.671875 658.027344 1300.015625 C 656.9375 1297.976562 654.273438 1299.214844 654.074219 1301.101562 C 652.617188 1300.902344 650.976562 1302.089844 651.609375 1303.871094 C 652.753906 1307.097656 657.269531 1318.246094 662.292969 1314.511719 Z M 649.09375 1291.5625 C 649.28125 1291.949219 649.476562 1292.324219 649.664062 1292.707031 C 650.601562 1294.613281 649.945312 1292.730469 649.351562 1291.90625 C 649.28125 1291.792969 649.175781 1291.679688 649.09375 1291.5625 Z M 638.761719 1283.660156 C 638.386719 1283.089844 638.242188 1282.347656 638.535156 1281.558594 C 639.09375 1280.070312 640.574219 1279.269531 642.132812 1279.363281 C 644.316406 1279.507812 645.699219 1281.433594 647.0625 1282.910156 C 649.664062 1285.734375 654.90625 1289.605469 654.417969 1293.96875 C 654.035156 1297.414062 650.050781 1299.550781 647.304688 1297.019531 C 645.816406 1295.644531 645.335938 1293.4375 644.359375 1291.742188 C 643.070312 1289.480469 641.34375 1287.648438 639.3125 1286.054688 C 638.417969 1285.347656 638.367188 1284.421875 638.761719 1283.660156 Z M 630.785156 1262.433594 C 626.144531 1262.214844 624.96875 1258.976562 621.347656 1256.90625 C 619.132812 1255.632812 616.429688 1255.25 614.222656 1256.75 C 612.164062 1258.152344 611.496094 1260.507812 611.257812 1262.871094 C 610.832031 1267.253906 611.308594 1271.855469 611.382812 1276.257812 C 611.402344 1277.300781 612.007812 1277.933594 612.777344 1278.175781 C 613.128906 1279.226562 613.609375 1280.183594 614.265625 1280.976562 C 616.5 1283.640625 621.453125 1283.097656 625.46875 1282.546875 C 626.832031 1282.597656 628.257812 1282.410156 629.742188 1281.996094 C 630.679688 1281.746094 631.136719 1281.007812 631.210938 1280.214844 C 636.339844 1280.871094 641.570312 1277.363281 641.664062 1271.824219 C 641.769531 1265.484375 636.171875 1262.683594 630.785156 1262.433594 Z M 782.402344 966.152344 C 778.800781 967.003906 774.101562 967.503906 770.917969 969.386719 C 767.597656 971.367188 767.492188 975.21875 768.417969 978.457031 C 768.597656 979.082031 769.003906 979.695312 769.53125 980.207031 C 769.71875 981.984375 771.625 983.664062 773.484375 983.527344 C 777.375 983.257812 783.015625 983.601562 786.175781 980.988281 C 786.269531 980.914062 786.355469 980.832031 786.449219 980.746094 C 789.941406 978.820312 789.609375 975.269531 788.882812 971.949219 C 788.757812 971.40625 788.457031 970.972656 788.058594 970.636719 C 788.402344 967.773438 785.304688 965.464844 782.402344 966.152344 Z M 771.113281 998.789062 C 773.121094 999.863281 775.421875 999.570312 777.617188 999.433594 C 780.414062 999.257812 783.191406 998.996094 785.980469 998.695312 C 788.734375 998.394531 791.054688 996.25 790.214844 993.367188 C 789.683594 991.585938 789.351562 989.753906 788.839844 987.960938 C 788.113281 985.390625 785.273438 984.660156 782.972656 985.671875 C 780.414062 986.804688 777.324219 987.179688 774.546875 987.378906 C 773.570312 987.453125 772.777344 987.765625 772.175781 988.222656 C 771.074219 988.078125 769.917969 988.472656 769.375 989.566406 C 767.773438 992.78125 767.308594 996.78125 771.113281 998.789062 Z M 770.386719 1010.011719 C 770.761719 1010.167969 771.09375 1010.449219 771.40625 1010.773438 C 772.144531 1012.65625 773.726562 1014.15625 776.605469 1014.925781 C 782.191406 1016.414062 789.546875 1016.070312 791.730469 1009.867188 C 792.585938 1007.429688 792.199219 1004.308594 789.964844 1002.652344 C 788.765625 1001.765625 787.113281 1001.496094 785.636719 1001.765625 C 784.355469 1001.996094 783.109375 1003.070312 781.839844 1003.183594 C 780.714844 1003.289062 779.632812 1002.246094 778.582031 1001.789062 C 777.867188 1001.476562 777.125 1001.265625 776.378906 1001.140625 C 775.222656 999.589844 772.820312 999.808594 772.09375 1001.609375 C 770.394531 1002.328125 769.148438 1003.683594 768.480469 1005.546875 C 767.953125 1007.046875 768.804688 1009.335938 770.386719 1010.011719 Z M 1108.511719 1064.128906 C 1109.351562 1064.828125 1110.746094 1064.828125 1111.476562 1063.421875 C 1112.828125 1060.820312 1114.066406 1058.226562 1115.179688 1055.511719 C 1115.792969 1054.011719 1113.609375 1052.761719 1112.671875 1054.136719 C 1112.453125 1054.457031 1112.246094 1054.792969 1112.027344 1055.113281 C 1111.226562 1055.59375 1110.589844 1056.65625 1110.132812 1057.257812 C 1109.082031 1058.664062 1107.875 1059.933594 1106.742188 1061.257812 C 1105.660156 1062.507812 1107.167969 1064.359375 1108.511719 1064.128906 Z M 1094.113281 1075.519531 C 1094.851562 1075.769531 1095.507812 1075.800781 1096.089844 1075.6875 C 1096.371094 1075.757812 1096.660156 1075.757812 1096.964844 1075.6875 C 1099.625 1074.949219 1102.175781 1072.480469 1104.171875 1070.617188 C 1104.902344 1069.941406 1105.179688 1069.148438 1105.140625 1068.398438 C 1105.398438 1068.171875 1105.660156 1067.921875 1105.898438 1067.648438 C 1106.542969 1066.910156 1106.410156 1065.628906 1105.828125 1064.902344 C 1105.160156 1064.078125 1104.140625 1063.964844 1103.171875 1064.253906 C 1102.394531 1064.496094 1101.382812 1065.128906 1100.761719 1065.910156 C 1100.40625 1066.046875 1100.085938 1066.253906 1099.78125 1066.566406 C 1098.941406 1066.972656 1098.128906 1067.453125 1097.378906 1068.046875 C 1096.828125 1068.480469 1096.308594 1068.992188 1095.839844 1069.523438 C 1095.589844 1069.773438 1095.371094 1070.054688 1095.164062 1070.335938 C 1094.789062 1070.542969 1094.414062 1070.730469 1094.019531 1070.886719 C 1092.085938 1071.699219 1092.03125 1074.832031 1094.113281 1075.519531 Z M 1079.246094 1097.125 C 1080.257812 1097.3125 1081.109375 1096.53125 1081.402344 1095.636719 C 1081.527344 1095.542969 1081.652344 1095.4375 1081.753906 1095.324219 C 1083.753906 1093.136719 1085.074219 1090.523438 1087.277344 1088.492188 C 1089.296875 1086.617188 1091.242188 1084.902344 1092.644531 1082.453125 C 1094.675781 1078.933594 1091.835938 1075.574219 1087.933594 1076.90625 C 1085.480469 1077.75 1083.855469 1080.246094 1082.296875 1082.183594 C 1080.257812 1084.714844 1078.300781 1087.285156 1076.699219 1090.117188 C 1074.378906 1094.207031 1074.328125 1096.1875 1079.246094 1097.125 Z M 1133.964844 1071.324219 C 1134.609375 1071.355469 1135.191406 1071.273438 1135.722656 1071.09375 C 1136.191406 1072.042969 1137.316406 1072.667969 1138.449219 1072.15625 C 1141.195312 1070.917969 1144.316406 1069.574219 1146.5 1067.429688 C 1149.214844 1064.765625 1151.003906 1061.765625 1154.324219 1059.601562 C 1155.769531 1058.664062 1154.28125 1056.582031 1152.816406 1057.125 C 1152.261719 1057.300781 1151.753906 1057.5 1151.265625 1057.707031 C 1147.875 1058.988281 1144.761719 1060.339844 1141.746094 1062.527344 C 1138.980469 1064.527344 1135.191406 1066.910156 1133.277344 1069.753906 C 1132.882812 1070.335938 1133.183594 1071.28125 1133.964844 1071.324219 Z M 1113.492188 1081.859375 C 1112.472656 1081.882812 1111.777344 1082.546875 1111.546875 1083.546875 C 1111.234375 1084.910156 1111.671875 1086.097656 1112.214844 1087.359375 C 1112.878906 1088.898438 1115.34375 1089.835938 1116.664062 1088.441406 C 1117.570312 1087.503906 1118.058594 1086.367188 1118.101562 1085.277344 C 1118.433594 1085.296875 1118.789062 1085.234375 1119.152344 1085.027344 C 1121.824219 1083.484375 1136.003906 1075.90625 1129.324219 1071.8125 C 1128.222656 1071.136719 1126.902344 1071.273438 1126.070312 1072.324219 C 1122.804688 1076.476562 1118.484375 1079.558594 1113.691406 1081.746094 C 1113.617188 1081.777344 1113.554688 1081.828125 1113.492188 1081.859375 Z M 1105.035156 1087.128906 C 1103.109375 1088.535156 1101.789062 1090.324219 1100.238281 1092.011719 C 1099.148438 1092.679688 1098.054688 1093.292969 1097.285156 1093.855469 C 1095.382812 1095.269531 1093.3125 1096.59375 1091.65625 1098.308594 C 1091.492188 1098.394531 1091.335938 1098.488281 1091.160156 1098.570312 C 1089.535156 1099.332031 1089.484375 1100.933594 1090.171875 1102.058594 C 1090.515625 1102.964844 1091.335938 1103.652344 1092.417969 1103.359375 C 1096.226562 1102.328125 1099.5 1099.621094 1102.683594 1097.363281 C 1105.347656 1095.46875 1108.40625 1093.667969 1109.582031 1090.460938 C 1110.621094 1087.660156 1107.367188 1085.433594 1105.035156 1087.128906 Z M 1167.949219 1073.675781 C 1169.90625 1072.105469 1167.460938 1069.074219 1165.484375 1070.636719 C 1164.402344 1071.34375 1163.375 1072.085938 1162.355469 1072.824219 C 1159.699219 1074.480469 1156.828125 1075.875 1154.09375 1077.289062 C 1151.003906 1078.882812 1147.21875 1079.894531 1144.792969 1082.402344 C 1144.410156 1082.796875 1144.347656 1083.527344 1144.699219 1083.933594 C 1144.296875 1084.234375 1143.890625 1084.527344 1143.492188 1084.847656 C 1142.027344 1086.003906 1143.484375 1088.199219 1145.148438 1087.578125 C 1149.609375 1085.910156 1153.8125 1083.933594 1157.996094 1081.652344 C 1161.792969 1079.589844 1164.601562 1076.382812 1167.949219 1073.675781 Z M 1125.101562 1099.988281 C 1129.847656 1097.988281 1134.109375 1095.144531 1138.8125 1093.148438 C 1139.601562 1092.8125 1140.289062 1091.96875 1140.34375 1091.09375 C 1140.414062 1089.566406 1140.269531 1088.367188 1139.800781 1086.921875 C 1139.21875 1085.097656 1136.910156 1084.996094 1135.589844 1085.890625 C 1133.144531 1087.566406 1130.894531 1089.523438 1128.585938 1091.386719 C 1128.492188 1091.460938 1128.410156 1091.53125 1128.328125 1091.605469 C 1126.234375 1092.617188 1124.257812 1093.855469 1122.375 1095.5 C 1120.160156 1097.445312 1122.292969 1101.164062 1125.101562 1099.988281 Z M 1116.78125 1102.265625 C 1115.523438 1099.019531 1110.964844 1098 1109.144531 1101.402344 C 1108.976562 1101.703125 1108.832031 1102.058594 1108.738281 1102.421875 C 1104.246094 1104.484375 1100.34375 1107.554688 1095.984375 1110.179688 C 1095.652344 1110.378906 1095.382812 1110.617188 1095.183594 1110.886719 C 1095.082031 1110.898438 1094.996094 1110.929688 1094.902344 1110.9375 C 1091.347656 1111.511719 1094.03125 1116.539062 1096.289062 1114.75 C 1096.753906 1114.886719 1097.316406 1114.875 1097.941406 1114.644531 C 1103.851562 1112.46875 1108.519531 1107.679688 1114.65625 1106.078125 C 1116.417969 1105.609375 1117.476562 1104.066406 1116.78125 1102.265625 Z M 1159.054688 1113.769531 C 1157.539062 1113.582031 1155.476562 1114.324219 1154.542969 1114.6875 C 1152.878906 1115.324219 1150.871094 1116.15625 1149.390625 1117.414062 C 1148.621094 1117.625 1147.851562 1117.8125 1147.09375 1117.976562 C 1144.742188 1118.507812 1145.230469 1122.203125 1147.625 1121.714844 C 1148.082031 1121.621094 1148.527344 1121.515625 1148.976562 1121.390625 C 1151.515625 1122.015625 1154.449219 1120.652344 1156.675781 1119.582031 C 1157.328125 1119.257812 1158.464844 1118.683594 1159.390625 1117.9375 C 1161.65625 1117.425781 1164.089844 1116.84375 1164.789062 1114.4375 C 1164.882812 1114.105469 1164.828125 1113.71875 1164.515625 1113.511719 C 1162.707031 1112.28125 1160.867188 1112.898438 1159.054688 1113.769531 Z M 1169.519531 1093.105469 C 1166.921875 1094.332031 1164.175781 1095.261719 1161.398438 1096.039062 C 1160.511719 1096.144531 1159.699219 1096.332031 1158.867188 1096.75 C 1157.390625 1097.195312 1156.132812 1097.769531 1155.3125 1098.839844 C 1153.898438 1098.925781 1152.910156 1098.902344 1151.566406 1099.714844 C 1150.171875 1100.550781 1149.121094 1101.621094 1148.613281 1103.171875 C 1148.277344 1104.152344 1148.707031 1105.109375 1149.632812 1105.535156 C 1150.984375 1106.148438 1152.304688 1106.148438 1153.730469 1105.765625 C 1155.507812 1105.285156 1156.207031 1104.515625 1157.214844 1103.296875 C 1159.054688 1103.421875 1160.679688 1102.171875 1162.269531 1101.015625 C 1164.953125 1099.070312 1167.660156 1097.125 1170.632812 1095.636719 C 1172.214844 1094.84375 1171.183594 1092.429688 1169.519531 1093.105469 Z M 1143.992188 1104.621094 C 1143.878906 1104.265625 1143.734375 1103.921875 1143.554688 1103.558594 C 1142.234375 1100.871094 1138.761719 1102.359375 1138.917969 1104.734375 C 1137.378906 1104.984375 1135.589844 1106.054688 1134.558594 1107.003906 C 1134.433594 1107.109375 1134.339844 1107.234375 1134.277344 1107.378906 C 1133.027344 1107.617188 1131.800781 1108.085938 1130.679688 1108.542969 C 1128.617188 1109.386719 1126.539062 1110.324219 1124.601562 1111.449219 C 1124.582031 1111.460938 1124.570312 1111.46875 1124.539062 1111.480469 C 1122.355469 1112.1875 1123.417969 1116.039062 1125.664062 1115.417969 C 1128.003906 1114.78125 1130.324219 1113.8125 1132.53125 1112.804688 C 1133.914062 1112.167969 1135.410156 1111.429688 1136.585938 1110.386719 C 1137.867188 1109.910156 1139.167969 1109.460938 1140.46875 1109.023438 C 1141.695312 1110.136719 1144.015625 1109.855469 1144.253906 1107.703125 C 1144.253906 1107.671875 1144.253906 1107.648438 1144.265625 1107.628906 C 1145.128906 1106.859375 1144.917969 1105.277344 1143.992188 1104.621094 Z M 1100.394531 1125.058594 C 1106.253906 1127.390625 1113.359375 1121.101562 1119.007812 1119.957031 C 1120.492188 1119.652344 1121.035156 1118.363281 1120.648438 1117 C 1120.441406 1116.113281 1120.152344 1115.261719 1119.796875 1114.4375 C 1118.984375 1112.335938 1116.230469 1112.792969 1115.375 1114.519531 C 1115.125 1115 1114.78125 1115.449219 1114.347656 1115.863281 C 1114.261719 1115.882812 1114.191406 1115.882812 1114.097656 1115.90625 C 1112.246094 1116.300781 1110.289062 1117.226562 1108.574219 1118 C 1106.742188 1118.820312 1104.441406 1119.808594 1102.652344 1121.203125 C 1101.925781 1121.359375 1101.1875 1121.453125 1100.449219 1121.453125 C 1098.203125 1121.453125 1098.109375 1124.503906 1100.105469 1124.714844 C 1100.148438 1124.859375 1100.238281 1124.996094 1100.394531 1125.058594 Z M 1138.429688 1120.777344 C 1137.035156 1120.976562 1135.742188 1121.976562 1134.496094 1122.765625 C 1130.867188 1123.035156 1126.277344 1123.972656 1125.007812 1127.710938 C 1124.738281 1128.480469 1125.050781 1129.542969 1125.914062 1129.804688 C 1129.253906 1130.8125 1132.476562 1128.929688 1135.703125 1128.167969 C 1137.75 1127.679688 1140.726562 1126.234375 1141.269531 1123.910156 C 1141.726562 1122.015625 1140.382812 1120.507812 1138.429688 1120.777344 Z M 1121.347656 1128.566406 C 1121.210938 1128.273438 1121.046875 1127.953125 1120.835938 1127.703125 C 1120.640625 1127.441406 1120.308594 1127.191406 1120.058594 1126.960938 C 1119.671875 1126.609375 1118.859375 1126.441406 1118.363281 1126.535156 C 1117.769531 1126.648438 1117.164062 1126.941406 1116.820312 1127.460938 C 1116.675781 1127.691406 1116.539062 1127.929688 1116.394531 1128.160156 C 1116.355469 1128.242188 1116.3125 1128.316406 1116.28125 1128.398438 C 1114.167969 1128.449219 1112.078125 1129.273438 1109.988281 1129.792969 C 1106.792969 1130.585938 1103.640625 1131.375 1100.519531 1132.460938 C 1098.304688 1133.21875 1099.386719 1136.738281 1101.644531 1136.382812 C 1104.910156 1135.863281 1108.082031 1135.050781 1111.296875 1134.25 C 1113.273438 1133.75 1115.550781 1133.511719 1117.382812 1132.574219 C 1117.488281 1132.625 1117.582031 1132.699219 1117.683594 1132.75 C 1118.351562 1133.042969 1119.121094 1133.292969 1119.839844 1133.144531 C 1121.441406 1132.835938 1122.492188 1131.1875 1121.804688 1129.617188 C 1121.648438 1129.261719 1121.503906 1128.910156 1121.347656 1128.566406 Z M 1085.144531 1104.378906 C 1083.628906 1102.882812 1082.085938 1102.109375 1080.578125 1101.890625 C 1077.949219 1100.164062 1074.878906 1098.832031 1071.894531 1100.613281 C 1070.738281 1101.296875 1069.855469 1102.257812 1069.386719 1103.535156 C 1069.148438 1104.214844 1069.085938 1104.785156 1069.074219 1105.496094 C 1069.117188 1105.753906 1069.167969 1106.023438 1069.210938 1106.296875 C 1068.59375 1106.515625 1067.484375 1107.117188 1067.390625 1107.191406 C 1066.960938 1107.523438 1066.578125 1107.722656 1066.222656 1108.128906 C 1065.078125 1109.441406 1065.359375 1110.304688 1065.246094 1111.917969 C 1065.226562 1112.21875 1065.183594 1112.511719 1065.132812 1112.792969 C 1063.195312 1114.925781 1061.699219 1117.363281 1061.230469 1120.433594 C 1060.886719 1122.621094 1062.136719 1127.597656 1064.289062 1131.25 C 1065.464844 1135.074219 1068.585938 1138.527344 1072.007812 1140.121094 C 1073.015625 1146.734375 1084.492188 1143.046875 1088.257812 1141.902344 C 1096.132812 1139.519531 1097.316406 1133.90625 1095.476562 1126.492188 C 1093.550781 1118.769531 1090.949219 1110.105469 1085.144531 1104.378906 Z M 880.777344 1043.996094 C 880.589844 1044.015625 880.402344 1044.046875 880.226562 1044.089844 C 880.238281 1044.097656 880.246094 1044.097656 880.257812 1044.109375 C 880.351562 1044.203125 880.445312 1044.308594 880.539062 1044.402344 C 880.609375 1044.253906 880.695312 1044.121094 880.777344 1043.996094 Z M 900.042969 1057.425781 C 904.941406 1076.800781 911.402344 1095.882812 917.863281 1114.792969 C 920.839844 1123.515625 924.125 1132.34375 929.597656 1139.863281 C 934.671875 1146.847656 940.539062 1152.988281 943.035156 1161.464844 C 943.503906 1163.058594 942.734375 1165.003906 941.289062 1165.816406 C 939.105469 1167.023438 936.765625 1167.648438 934.269531 1167.378906 C 934.058594 1167.359375 933.613281 1167.304688 933.164062 1167.242188 C 933.039062 1167.410156 932.914062 1167.609375 932.800781 1167.816406 C 932.613281 1168.199219 932.414062 1168.585938 932.207031 1168.949219 C 930.066406 1172.84375 926.289062 1175.875 921.617188 1174.65625 C 917.9375 1173.6875 915.242188 1170.179688 916.292969 1166.316406 C 916.863281 1164.191406 918.371094 1163.253906 919.578125 1161.601562 C 920.371094 1160.507812 920.078125 1159.050781 919.921875 1157.738281 C 918.832031 1148.160156 915.480469 1138.832031 911.984375 1129.898438 C 908.355469 1120.621094 904.359375 1111.5 901.175781 1102.058594 C 898.378906 1093.761719 895.777344 1085.402344 893.144531 1077.050781 C 890.027344 1071.375 886.207031 1066.328125 881.078125 1062.308594 C 879.726562 1063.164062 878.136719 1063.609375 876.410156 1063.421875 C 866.390625 1062.359375 868.816406 1048.503906 870.59375 1042.140625 C 870.949219 1040.871094 872.246094 1040.394531 873.351562 1040.621094 C 875.503906 1037.957031 879.414062 1037.1875 882.753906 1036.945312 C 884.386719 1036.832031 885.542969 1038.164062 886.09375 1039.507812 C 885.800781 1038.789062 887.445312 1039.089844 888.175781 1039.019531 C 889.339844 1038.914062 890.460938 1038.789062 891.628906 1038.925781 C 893.894531 1039.183594 895.976562 1040.289062 897.191406 1042.289062 C 898.628906 1044.628906 898.835938 1047.828125 899.222656 1050.492188 C 899.566406 1052.78125 899.875 1055.105469 900.042969 1057.425781 Z M 617.175781 1241.726562 C 617.457031 1245.066406 617.636719 1248.460938 619.777344 1251.125 C 622.941406 1255.0625 628.910156 1255.40625 632.15625 1251.511719 C 632.355469 1251.273438 632.511719 1251 632.644531 1250.6875 C 633.863281 1250.46875 634.964844 1249.917969 635.726562 1248.867188 C 637.546875 1246.335938 635.964844 1242.964844 634.445312 1240.664062 C 632.769531 1238.132812 630.234375 1236.226562 627.421875 1235.15625 C 623.875 1230.710938 620.476562 1226.128906 617.230469 1221.433594 C 616.1875 1219.832031 615.128906 1218.257812 614.035156 1216.695312 C 609.167969 1209.335938 604.664062 1201.734375 600.554688 1194 C 596.277344 1185.960938 592.386719 1177.6875 589.027344 1169.210938 C 587.394531 1165.078125 586.1875 1160.984375 585.460938 1156.601562 C 584.773438 1152.523438 583.765625 1148.949219 580.582031 1146.128906 C 579.40625 1145.097656 577.410156 1145.234375 576.222656 1146.140625 C 575.140625 1146.972656 574.058594 1147.804688 572.988281 1148.648438 C 571.976562 1149.441406 571.375 1150.9375 571.6875 1152.242188 C 571.625 1152.292969 571.574219 1152.355469 571.511719 1152.40625 C 570.292969 1151.773438 569.011719 1151.3125 567.566406 1151.367188 C 565.621094 1151.4375 563.78125 1152.523438 562.980469 1154.363281 C 562.84375 1154.667969 562.75 1154.96875 562.6875 1155.269531 C 561.410156 1156.082031 560.660156 1158.113281 561.542969 1159.621094 C 563.644531 1163.191406 566.671875 1166.148438 570.230469 1168.242188 C 571.605469 1169.503906 573.039062 1170.710938 574.464844 1171.917969 C 578.625 1175.457031 581.714844 1179.214844 584.253906 1184.066406 C 587.519531 1190.3125 590.941406 1196.457031 594.625 1202.445312 C 597.671875 1210.699219 602.09375 1218.707031 606.460938 1226.203125 C 609.03125 1230.59375 611.863281 1234.832031 614.941406 1238.894531 C 615.660156 1239.851562 616.40625 1240.796875 617.175781 1241.726562 Z M 581.484375 1128.542969 C 581.558594 1128.503906 581.632812 1128.460938 581.703125 1128.417969 C 582.015625 1128.242188 582.328125 1128.085938 582.628906 1127.953125 C 582.589844 1127.835938 582.546875 1127.734375 582.503906 1127.617188 C 582.164062 1127.929688 581.820312 1128.230469 581.484375 1128.542969 Z M 572.363281 1131.929688 C 571.53125 1130.710938 571.675781 1128.886719 572.675781 1127.816406 C 579.386719 1120.570312 588.070312 1115.613281 595.144531 1108.761719 C 602.238281 1101.890625 608.367188 1094.15625 614.347656 1086.316406 C 626.238281 1070.730469 638.117188 1055.0625 650.726562 1040.058594 C 650.226562 1036.664062 652.785156 1032.148438 654.449219 1029.929688 C 655.5625 1028.429688 657 1027.054688 658.996094 1027.054688 C 661.667969 1027.054688 662.78125 1029.335938 664.53125 1030.878906 C 664.570312 1030.917969 664.613281 1030.949219 664.65625 1030.992188 C 664.726562 1030.417969 665.027344 1029.886719 665.582031 1029.566406 C 668.492188 1027.898438 671.9375 1029.097656 674.308594 1031.21875 C 676.886719 1033.53125 677.898438 1037.195312 677.742188 1040.558594 C 677.480469 1046.210938 671.53125 1055.324219 665.183594 1050.105469 C 665.101562 1050.035156 665.027344 1049.960938 664.945312 1049.886719 C 664.832031 1049.960938 664.707031 1050.042969 664.582031 1050.105469 C 662.511719 1051.28125 660.253906 1051.585938 657.957031 1052.023438 C 655.332031 1052.5 653.992188 1053.386719 652.609375 1055.738281 C 652.304688 1056.257812 651.910156 1056.644531 651.472656 1056.90625 C 649.550781 1059.351562 647.511719 1061.695312 645.421875 1064.035156 C 637.835938 1072.492188 630.386719 1081.070312 623.523438 1090.117188 C 616.894531 1098.832031 611.714844 1108.753906 603.707031 1116.289062 C 602.09375 1117.800781 600.492188 1119.300781 598.878906 1120.808594 C 599.203125 1121.652344 599.203125 1122.632812 598.703125 1123.640625 C 596.371094 1128.316406 595.5625 1133.636719 596.621094 1138.789062 C 597.203125 1141.578125 595.382812 1143.753906 592.503906 1143.484375 C 589.746094 1143.214844 587.851562 1141.246094 586.71875 1138.839844 C 586.144531 1137.632812 585.917969 1136.300781 585.355469 1135.09375 C 585.292969 1134.957031 585.136719 1134.738281 585.003906 1134.53125 C 584.847656 1134.605469 584.660156 1134.6875 584.535156 1134.769531 C 580.476562 1137.539062 574.964844 1135.75 572.363281 1131.929688 Z M 741.757812 1038.746094 C 743.453125 1040.933594 745.761719 1040.695312 748.199219 1041.183594 C 750.214844 1041.578125 752.046875 1042.539062 753.929688 1043.328125 C 760.203125 1045.960938 766.265625 1045.683594 772.589844 1045.058594 C 771.28125 1043.246094 770.261719 1041.289062 769.5 1039.207031 C 768.335938 1039.082031 767.160156 1038.882812 765.996094 1038.738281 C 761.574219 1038.164062 757.101562 1037.3125 752.878906 1035.832031 C 750.402344 1034.96875 747.980469 1033.28125 746.292969 1031.167969 C 746.160156 1031.15625 746.023438 1031.15625 745.886719 1031.15625 C 744.253906 1031.117188 742.621094 1031 741 1030.835938 C 740.457031 1033.488281 739.761719 1036.144531 741.757812 1038.746094 Z M 761.75 1029.566406 C 763.449219 1029.878906 765.152344 1030.136719 766.871094 1030.347656 C 767.078125 1029.011719 767.679688 1027.722656 768.753906 1026.617188 C 766.765625 1028.046875 764.09375 1028.980469 761.75 1029.566406 Z M 774.621094 1128.023438 C 773.789062 1128.492188 772.894531 1128.917969 772.050781 1129.441406 C 769.949219 1130.730469 767.972656 1132.1875 766.089844 1133.761719 C 768.980469 1131.699219 772.113281 1130.191406 775.441406 1129.699219 C 775.390625 1129.355469 775.335938 1129.003906 775.296875 1128.648438 C 775.058594 1128.460938 774.839844 1128.253906 774.621094 1128.023438 Z M 764.082031 1125.265625 C 766.101562 1123.785156 768.753906 1121.664062 771.46875 1120.671875 C 771.167969 1119.144531 770.980469 1117.5625 770.863281 1116.039062 C 768.429688 1118.183594 765.484375 1119.957031 763.125 1121.734375 C 758.515625 1125.203125 753.910156 1128.753906 749.09375 1131.90625 C 740.144531 1137.75 727.820312 1136.132812 717.695312 1134.84375 C 709.792969 1133.824219 699.253906 1131.40625 693.730469 1124.808594 C 694.230469 1132.367188 695.4375 1140.007812 700.855469 1145.484375 C 707.503906 1152.199219 718 1153.09375 726.933594 1152.886719 C 733.019531 1152.742188 738.167969 1152.148438 742.621094 1147.648438 C 746.273438 1143.953125 749.207031 1139.582031 752.679688 1135.71875 C 756.132812 1131.867188 759.910156 1128.335938 764.082031 1125.265625 Z M 751.265625 1150.011719 C 747.96875 1154 744.308594 1157.613281 739.304688 1159.402344 C 733.789062 1161.382812 727.246094 1161.203125 721.460938 1160.871094 C 710.964844 1160.257812 699.605469 1157.25 693.136719 1148.285156 C 694.957031 1156.707031 696.953125 1165.058594 701.644531 1172.449219 C 704.558594 1177.039062 709.207031 1182.671875 714.835938 1183.746094 C 720.734375 1184.859375 727.109375 1180.152344 731.230469 1176.394531 C 739.480469 1168.886719 744.828125 1158.976562 751.265625 1150.011719 Z M 771.582031 1094.84375 C 771.832031 1092.679688 772.113281 1090.511719 772.402344 1088.355469 C 769.8125 1089.335938 767.046875 1089.992188 764.488281 1090.554688 C 759.992188 1091.53125 755.90625 1092.230469 751.277344 1091.96875 C 742.433594 1091.46875 733.882812 1088.785156 725.863281 1085.121094 C 720.027344 1082.453125 713.816406 1078.976562 710.957031 1073.136719 C 709.03125 1080.964844 702.539062 1089.191406 708.648438 1096.957031 C 713.152344 1102.695312 722.296875 1104.328125 729.035156 1105.589844 C 737.398438 1107.160156 746.136719 1106.992188 754.230469 1104.265625 C 757.933594 1103.015625 761.417969 1101.214844 764.644531 1099.027344 C 767.015625 1097.425781 768.917969 1095.238281 771.582031 1094.84375 Z M 790.027344 1052.03125 C 790.160156 1055.5625 790.308594 1059.082031 790.441406 1062.609375 C 793 1063.671875 795.214844 1064.589844 798.171875 1064.765625 C 801.9375 1064.984375 805.714844 1065.027344 809.480469 1065.128906 C 816.949219 1065.359375 824.59375 1066.085938 832.050781 1065.597656 C 838.128906 1065.191406 846.367188 1062.527344 847.207031 1055.363281 C 847.613281 1051.992188 845.617188 1048.511719 843.402344 1046.097656 C 842.714844 1045.339844 841.882812 1044.722656 841.164062 1044.066406 C 839.980469 1048.398438 836.921875 1052.148438 832.65625 1053.988281 C 828.984375 1055.574219 824.886719 1055.832031 820.953125 1056.289062 C 816.054688 1056.863281 811.082031 1057.3125 806.140625 1056.882812 C 801.105469 1056.445312 794.59375 1055.199219 790.027344 1052.03125 Z M 791.660156 1044.921875 C 796.050781 1045.753906 800.355469 1047.660156 804.839844 1048.179688 C 811.371094 1048.929688 818.070312 1048.234375 824.550781 1047.304688 C 829.273438 1046.628906 833.976562 1044.421875 833.351562 1038.789062 C 833.070312 1036.226562 831.054688 1034.3125 829.585938 1032.34375 C 828.058594 1030.316406 826.621094 1028.242188 825.238281 1026.128906 C 825.019531 1026.179688 824.792969 1026.234375 824.574219 1026.285156 C 824.332031 1026.335938 824.082031 1026.390625 823.84375 1026.453125 C 823.136719 1031.773438 817.613281 1035.019531 812.808594 1037.3125 C 807.003906 1040.089844 800.773438 1041.453125 794.476562 1040.914062 C 793.832031 1042.390625 792.855469 1043.722656 791.660156 1044.921875 Z M 839.125 1071.710938 C 829.710938 1074.238281 819.089844 1072.699219 809.480469 1072.386719 C 804.070312 1072.210938 796.382812 1072.929688 790.765625 1070.554688 L 791.046875 1077.539062 C 791.667969 1077.488281 792.304688 1077.582031 792.867188 1077.882812 C 795.832031 1079.476562 798.265625 1081.996094 801.25 1083.652344 C 804.164062 1085.265625 807.230469 1086.410156 810.46875 1087.171875 C 817.550781 1088.816406 824.988281 1088.222656 832.03125 1086.628906 C 835.839844 1085.773438 839.59375 1084.640625 843.285156 1083.347656 C 846.273438 1082.320312 849.675781 1081.183594 851.890625 1078.800781 C 856.007812 1074.34375 854.875 1066.804688 852.515625 1061.414062 C 850.027344 1066.597656 844.660156 1070.222656 839.125 1071.710938 Z M 838.304688 1093.84375 C 828.714844 1096.46875 818.582031 1097.65625 808.769531 1095.511719 C 802.996094 1094.25 795.902344 1091.523438 791.417969 1086.910156 C 791.542969 1089.886719 791.660156 1092.867188 791.785156 1095.851562 C 792.636719 1096.039062 793.449219 1096.507812 794.019531 1097.3125 C 804.070312 1111.398438 823.523438 1110.210938 838.84375 1108.773438 C 846.625 1108.035156 856.351562 1107.054688 861.054688 1099.851562 C 863.601562 1095.945312 862.957031 1090.773438 862.273438 1086.421875 C 861.96875 1084.472656 861.347656 1082.183594 861.128906 1079.976562 C 861.117188 1080.019531 861.097656 1080.070312 861.074219 1080.101562 C 857.183594 1088.742188 846.65625 1091.542969 838.304688 1093.84375 Z M 842.464844 1115.53125 C 829.730469 1116.925781 810.019531 1119.570312 797.566406 1112.367188 C 797.890625 1112.875 798.210938 1113.363281 798.554688 1113.8125 C 801.042969 1117.050781 804.140625 1120.019531 807.429688 1122.433594 C 811.445312 1125.378906 815.917969 1127.117188 820.714844 1128.378906 C 825.375 1129.597656 830.386719 1131 835.234375 1131.167969 C 844.304688 1131.46875 854.4375 1127.078125 860.667969 1120.488281 C 865.175781 1115.707031 866.984375 1109.898438 866.847656 1103.878906 C 861.8125 1112.304688 851.515625 1114.53125 842.464844 1115.53125 Z M 839.988281 1140.332031 C 833.519531 1141.183594 827.089844 1139.820312 820.777344 1138.476562 C 814.636719 1137.164062 808.65625 1135.0625 803.464844 1131.460938 C 802.875 1131.054688 802.300781 1130.625 801.75 1130.199219 C 804.257812 1133.25 806.917969 1136.21875 809.851562 1138.871094 C 817.5 1145.835938 826.394531 1148.710938 836.691406 1148.378906 C 845.253906 1148.097656 856.425781 1147.265625 862.886719 1140.871094 C 867.523438 1136.269531 868.503906 1129.816406 868.917969 1123.378906 C 862.3125 1132.730469 851.265625 1138.832031 839.988281 1140.332031 Z M 840.882812 1157 C 830.136719 1157.933594 820.046875 1156.382812 811.058594 1150.949219 C 811.839844 1152 812.621094 1153.0625 813.402344 1154.125 C 819.839844 1162.777344 825.675781 1172.40625 837.191406 1174.21875 C 846.585938 1175.6875 856.1875 1171.742188 862.25 1164.546875 C 866.527344 1159.464844 868.535156 1153.125 869.5 1146.617188 C 862.273438 1154.292969 850.921875 1156.132812 840.882812 1157 Z M 662.679688 1014.550781 C 664.5 1009.910156 669.480469 1008.605469 673.945312 1007.460938 C 678.511719 1006.296875 683.335938 1005.652344 688.050781 1005.535156 C 698.035156 1005.308594 707.285156 1007.921875 716 1012.679688 C 724.707031 1017.445312 733.34375 1021.320312 743.359375 1022.214844 C 743.777344 1022.246094 744.191406 1022.277344 744.609375 1022.308594 C 744.890625 1021.632812 745.285156 1020.957031 745.792969 1020.289062 C 746.449219 1019.445312 748.207031 1019.246094 748.425781 1020.632812 C 748.53125 1021.308594 748.6875 1021.914062 748.875 1022.476562 C 751.921875 1022.507812 754.980469 1022.328125 757.976562 1021.921875 C 761.773438 1021.421875 766.859375 1020.089844 770.457031 1021.640625 C 771.375 1022.039062 771.519531 1023.320312 771.105469 1024.097656 C 770.78125 1024.703125 770.324219 1025.265625 769.792969 1025.765625 C 771.457031 1024.753906 773.453125 1025.003906 774.984375 1026.328125 C 777.1875 1028.222656 781.078125 1030.441406 783.472656 1027.984375 C 784.511719 1026.921875 786.042969 1026.710938 787.332031 1027.171875 C 788.734375 1026.765625 790.265625 1027.035156 791.035156 1028.347656 C 792.898438 1029.386719 794.25 1031.242188 794.914062 1033.34375 C 799.105469 1033.855469 803.089844 1033.53125 807.398438 1032.386719 C 810.902344 1031.460938 816.292969 1030.472656 819.050781 1027.554688 C 812.027344 1029.191406 804.640625 1030.804688 797.652344 1030.160156 C 794.445312 1029.867188 792.898438 1025.691406 795.945312 1023.871094 C 804.527344 1018.757812 815.65625 1017.03125 825.300781 1014.917969 C 830.410156 1013.792969 835.628906 1013.492188 840.75 1012.542969 C 845.566406 1011.648438 850.320312 1010.523438 855.125 1009.597656 C 864.175781 1007.847656 873.421875 1006.835938 882.578125 1008.359375 C 889.941406 1009.566406 898.535156 1012.710938 903.433594 1018.632812 C 907.074219 1023.039062 901.480469 1028.792969 897.121094 1024.941406 C 891.480469 1019.976562 885.636719 1017.101562 878.050781 1016.34375 C 869.210938 1015.457031 860.242188 1016.976562 851.628906 1018.894531 C 844.953125 1020.382812 838.5 1022.558594 831.957031 1024.402344 C 836.546875 1028.035156 840.90625 1032.28125 841.613281 1038.238281 C 841.644531 1038.457031 841.652344 1038.683594 841.664062 1038.914062 C 842.183594 1039.007812 842.652344 1039.214844 842.933594 1039.570312 C 843.191406 1039.570312 843.484375 1039.746094 843.816406 1040.113281 C 844.148438 1040.277344 844.484375 1040.457031 844.804688 1040.621094 C 845.660156 1041.132812 846.449219 1041.664062 847.230469 1042.265625 C 848.632812 1043.339844 849.953125 1044.535156 850.996094 1045.984375 C 852.929688 1048.679688 854 1051.992188 853.960938 1055.300781 C 854.585938 1055.300781 855.21875 1055.542969 855.769531 1056.101562 C 860.949219 1061.464844 863.851562 1068.878906 862.355469 1076.132812 C 864.039062 1077.84375 864.820312 1080.621094 865.757812 1082.789062 C 866.753906 1085.128906 867.710938 1087.503906 868.429688 1089.949219 C 868.847656 1091.375 869.117188 1092.8125 869.199219 1094.238281 C 874.203125 1099.464844 874.953125 1107.109375 873.183594 1114.019531 C 876.117188 1121.828125 877.242188 1131.042969 874.328125 1138.871094 C 877.460938 1148.753906 874.621094 1159.882812 868.917969 1168.335938 C 862.457031 1177.902344 851.878906 1183.558594 840.300781 1183.527344 C 827.015625 1183.484375 818.277344 1176.019531 810.988281 1165.597656 C 803.238281 1154.519531 795.351562 1143.441406 788.183594 1131.960938 C 787.332031 1134.78125 786.3125 1137.601562 785.0625 1140.421875 C 783.546875 1143.871094 777.398438 1143.046875 776.816406 1139.351562 C 776.667969 1138.425781 776.542969 1137.488281 776.398438 1136.5625 C 772.996094 1139.058594 769.429688 1141.277344 766.359375 1144.308594 C 762.273438 1148.335938 758.847656 1152.957031 755.644531 1157.707031 C 750.121094 1165.859375 744.953125 1174.46875 737.773438 1181.320312 C 730.96875 1187.824219 720.640625 1194.5625 710.902344 1190.992188 C 701.25 1187.453125 694.78125 1177.488281 691.117188 1168.367188 C 686.882812 1157.800781 686.0625 1145.953125 687.414062 1134.761719 C 687.46875 1134.332031 687.707031 1134 688.007812 1133.792969 C 687.4375 1127.609375 688.382812 1121.171875 689.847656 1115.25 C 689.933594 1114.917969 690.078125 1114.65625 690.265625 1114.46875 C 690.347656 1112.15625 690.785156 1109.835938 691.265625 1107.578125 C 692.503906 1101.851562 694.125 1095.976562 697.671875 1091.28125 C 697.996094 1090.855469 698.691406 1090.855469 698.847656 1091.4375 C 700.160156 1096.1875 699.804688 1100.871094 699.242188 1105.753906 C 698.785156 1109.667969 696.859375 1114.949219 699.085938 1118.601562 C 701.230469 1122.109375 706.265625 1123.953125 709.96875 1125.089844 C 714.171875 1126.378906 718.507812 1126.992188 722.878906 1127.316406 C 727.453125 1127.648438 732.230469 1128.011719 736.804688 1127.734375 C 741.589844 1127.441406 744.898438 1125.058594 748.65625 1122.351562 C 752.710938 1119.425781 756.789062 1116.5625 760.910156 1113.730469 C 763.90625 1111.667969 767.046875 1108.917969 770.644531 1108.015625 C 770.667969 1106.953125 770.6875 1105.890625 770.738281 1104.828125 C 769.128906 1105.960938 767.421875 1106.910156 766.164062 1107.640625 C 762.042969 1110.042969 757.519531 1111.90625 752.890625 1113.074219 C 742.558594 1115.664062 732.550781 1114.15625 722.386719 1111.59375 C 713.984375 1109.472656 704.570312 1106.160156 700.804688 1097.601562 C 696.964844 1088.867188 700.105469 1076.019531 707.230469 1069.710938 C 707.992188 1069.023438 708.875 1068.910156 709.636719 1069.179688 C 708.585938 1063.628906 710.808594 1052.71875 717.105469 1050.917969 C 718 1050.667969 718.863281 1051.375 718.882812 1052.28125 C 718.945312 1055.0625 717.011719 1057.625 716.167969 1060.226562 C 715.167969 1063.359375 714.523438 1066.992188 716.15625 1070.066406 C 719.082031 1075.550781 728.753906 1077.070312 734.238281 1078.394531 C 740.875 1080.007812 747.605469 1081.109375 754.449219 1081.183594 C 757.777344 1081.214844 761.160156 1081.601562 764.457031 1081.015625 C 767.222656 1080.527344 769.792969 1079.527344 772.445312 1078.746094 C 772.464844 1077.65625 772.476562 1076.550781 772.496094 1075.457031 C 772.519531 1074.40625 772.519531 1073.34375 772.527344 1072.28125 C 769.3125 1073.925781 765.976562 1074.667969 762.355469 1074.917969 C 754.15625 1075.488281 746.460938 1072.886719 739.59375 1068.554688 C 733.945312 1064.996094 725.90625 1060.613281 723.023438 1054.25 C 719.984375 1047.566406 723.949219 1040.445312 728.527344 1035.574219 C 730.804688 1033.136719 734.953125 1036.332031 733.132812 1039.132812 C 729.859375 1044.203125 726.050781 1049.972656 732.675781 1054.113281 C 737.679688 1057.226562 743.414062 1059.582031 749.007812 1061.359375 C 754.78125 1063.195312 759.972656 1063.933594 766.007812 1063.609375 C 768.222656 1063.484375 770.4375 1063.328125 772.644531 1063.183594 C 772.746094 1060.828125 772.925781 1058.476562 773.277344 1056.164062 C 773.421875 1055.238281 773.621094 1054.355469 773.851562 1053.5 C 765.757812 1057.394531 754.855469 1055.417969 747.457031 1050.636719 C 742.671875 1047.535156 737.285156 1046.253906 734.984375 1040.476562 C 733.914062 1037.800781 733.5 1033.417969 734.425781 1029.855469 C 729.140625 1028.792969 723.980469 1027.117188 719.082031 1024.839844 C 714.546875 1022.714844 710.363281 1019.839844 705.722656 1017.925781 C 701.148438 1016.042969 696.207031 1015.082031 691.285156 1014.917969 C 686.480469 1014.761719 681.746094 1015.28125 677.074219 1016.375 C 672.707031 1017.394531 668.296875 1019.582031 663.9375 1017.644531 C 662.925781 1017.1875 662.28125 1015.574219 662.679688 1014.550781 Z M 768.867188 1164.972656 C 768.742188 1166.941406 770.699219 1168.285156 772.613281 1168.417969 C 776.835938 1168.742188 781.257812 1169.253906 785.492188 1169.054688 C 790.378906 1168.824219 791.480469 1165.390625 790.308594 1161.546875 C 790.234375 1161.308594 790.160156 1161.046875 790.097656 1160.789062 C 790.371094 1160.507812 790.609375 1160.175781 790.804688 1159.789062 C 792.210938 1156.976562 789.597656 1154.417969 787.125 1154.386719 C 786.625 1154.019531 786.050781 1153.738281 785.34375 1153.582031 C 783.835938 1153.25 782.578125 1153.667969 781.203125 1154.019531 C 780.039062 1153.738281 778.875 1153.449219 777.699219 1153.261719 C 774.972656 1152.8125 772.300781 1153.105469 770.324219 1155.050781 C 769.417969 1155.945312 769.097656 1157.25 769.324219 1158.425781 C 769.324219 1158.476562 769.3125 1158.519531 769.304688 1158.570312 C 769.160156 1160.703125 769.011719 1162.839844 768.867188 1164.972656 Z M 770.644531 1188.917969 C 772.808594 1189.917969 775.890625 1190.011719 778.25 1189.917969 C 779.757812 1189.847656 781.277344 1189.585938 782.703125 1189.128906 C 783.671875 1188.816406 785.136719 1187.730469 786.1875 1188.011719 C 788.640625 1188.660156 791.367188 1186.835938 791.285156 1184.433594 C 791.191406 1181.945312 791.117188 1179.457031 791.046875 1176.976562 C 790.992188 1175.425781 790.128906 1174.386719 788.953125 1173.875 C 788.609375 1173.605469 788.207031 1173.386719 787.746094 1173.25 C 785.148438 1172.4375 782.296875 1173.074219 779.625 1173.394531 C 776.878906 1173.71875 774.128906 1174.105469 771.394531 1174.5625 C 769.75 1174.832031 768.015625 1176.789062 768.242188 1178.382812 C 768.285156 1178.726562 768.355469 1179.050781 768.441406 1179.363281 C 766.777344 1182.871094 766.257812 1186.898438 770.644531 1188.917969 Z M 766.535156 1205.171875 C 771.199219 1207.617188 776.929688 1205.359375 781.984375 1205.484375 C 784.449219 1205.546875 786.800781 1206.140625 788.871094 1204.566406 C 791.222656 1202.785156 790.648438 1199.808594 790.566406 1197.3125 C 790.503906 1195.40625 788.859375 1193.761719 786.738281 1193.769531 C 786.019531 1193.78125 785.304688 1193.761719 784.597656 1193.730469 C 783.941406 1193.199219 783.078125 1192.886719 782.035156 1192.949219 C 780.527344 1193.03125 779.019531 1193.144531 777.511719 1193.21875 C 775.316406 1193.074219 773.132812 1193.011719 770.949219 1193.238281 C 770.09375 1193.324219 769.367188 1193.582031 768.773438 1193.96875 C 768.109375 1194.15625 767.546875 1194.675781 767.429688 1195.332031 C 766.515625 1196.78125 766.503906 1198.652344 767.441406 1199.925781 C 764.996094 1200.652344 763.84375 1203.753906 766.535156 1205.171875 Z M 772.1875 1222.351562 C 771.769531 1222.878906 773.195312 1222.535156 773.851562 1222.589844 C 775.140625 1222.671875 776.429688 1222.878906 777.71875 1222.984375 C 780.707031 1223.222656 783.730469 1223.371094 786.726562 1223.433594 C 789.484375 1223.496094 791.191406 1220.996094 790.640625 1218.683594 C 790.140625 1216.570312 789.652344 1214.457031 789.121094 1212.355469 C 789.027344 1211.992188 788.890625 1211.679688 788.714844 1211.398438 C 788.765625 1209.242188 786.875 1207.066406 784.085938 1207.898438 C 778.699219 1209.503906 773.183594 1208.191406 767.691406 1209.253906 C 763.9375 1209.972656 764.238281 1214.28125 766.734375 1216.019531 C 766.910156 1216.15625 767.097656 1216.257812 767.285156 1216.382812 C 767.128906 1217.3125 766.765625 1218.175781 766.109375 1219.058594 C 763.519531 1222.558594 769.5625 1225.671875 772.1875 1222.351562 Z M 767.472656 1236.894531 C 764.082031 1239.207031 765.976562 1244.246094 770.417969 1243.339844 C 773.652344 1242.671875 776.898438 1242.320312 780.226562 1242.351562 C 783.097656 1242.371094 786.082031 1243.035156 788.882812 1242.214844 C 791.328125 1241.484375 793.054688 1239.488281 793.03125 1237.082031 C 793.023438 1234.738281 790.222656 1232.949219 790.773438 1230.742188 C 791.347656 1228.449219 789.214844 1226.191406 786.96875 1226.046875 C 786.644531 1225.960938 786.3125 1225.898438 785.957031 1225.898438 C 780.675781 1225.796875 775.484375 1226.003906 770.210938 1225.554688 C 766.578125 1225.234375 764.839844 1229.910156 767.285156 1232.074219 C 767.578125 1232.324219 767.867188 1232.550781 768.171875 1232.769531 C 768.128906 1233.230469 768.085938 1233.6875 768.046875 1234.167969 C 767.992188 1234.769531 768.148438 1236.4375 767.472656 1236.894531 Z M 805.234375 1284.464844 C 804.601562 1285.710938 803.144531 1286.617188 801.8125 1286.597656 C 799.023438 1286.546875 796.070312 1286.492188 793.394531 1287.441406 C 790.410156 1288.511719 789.621094 1290.667969 789.046875 1293.613281 C 788.394531 1297.019531 787.652344 1300.226562 785.074219 1302.746094 C 784.574219 1303.222656 784.042969 1303.640625 783.472656 1303.996094 C 783.867188 1304.546875 784.222656 1305.117188 784.429688 1305.753906 C 784.699219 1306.597656 784.824219 1307.460938 784.78125 1308.324219 C 784.804688 1308.742188 784.773438 1309.160156 784.6875 1309.554688 C 788.539062 1308.199219 792.191406 1306.492188 795.914062 1304.609375 C 796.050781 1304.203125 796.257812 1303.816406 796.558594 1303.472656 C 798.566406 1301.132812 800.449219 1298.707031 802.195312 1296.164062 C 803.621094 1294.082031 805.472656 1291.761719 806.191406 1289.304688 C 806.753906 1287.378906 806.265625 1285.785156 805.234375 1284.464844 Z M 799.015625 1315.25 C 798.835938 1314.175781 798.609375 1313.09375 798.296875 1312.054688 C 796.796875 1312.863281 794.507812 1313.800781 794.042969 1314.0625 C 792.335938 1314.976562 790.648438 1315.894531 788.953125 1316.8125 C 788.808594 1317.863281 788.671875 1318.925781 788.527344 1319.976562 C 788.671875 1320.152344 788.808594 1320.339844 788.921875 1320.546875 C 790.027344 1322.671875 791.242188 1324.734375 792.617188 1326.679688 C 793.21875 1327.535156 794.988281 1330.605469 796.144531 1330.554688 C 798.347656 1330.480469 799.074219 1323.484375 799.222656 1321.914062 C 799.410156 1319.703125 799.355469 1317.433594 799.015625 1315.25 Z M 766.496094 1304.441406 C 765.789062 1303.527344 765.601562 1302.378906 765.269531 1301.289062 C 764.550781 1298.957031 763.625 1296.726562 762.492188 1294.5625 C 761.347656 1292.417969 760.097656 1290.292969 758.734375 1288.273438 C 758.039062 1287.230469 756.738281 1284.652344 755.40625 1283.433594 C 753.960938 1283.484375 752.515625 1283.453125 751.097656 1283.765625 C 747.90625 1284.453125 745.316406 1286.503906 746.542969 1290.03125 C 746.742188 1290.617188 747.023438 1291.199219 747.355469 1291.773438 C 748.042969 1292.5 748.78125 1293.1875 749.488281 1293.894531 C 750.714844 1295.125 751.921875 1296.457031 753.167969 1297.757812 C 753.585938 1298.039062 754 1298.289062 754.40625 1298.507812 C 757.601562 1300.226562 760.367188 1301.953125 759.628906 1305.941406 C 760.648438 1306.535156 761.699219 1307.097656 762.78125 1307.585938 C 762.886719 1307.628906 763 1307.667969 763.105469 1307.710938 C 763.230469 1307.492188 763.363281 1307.285156 763.53125 1307.085938 C 764.375 1306.023438 765.382812 1305.148438 766.496094 1304.441406 Z M 753.910156 1316.375 C 753.105469 1314.96875 752.585938 1313.417969 751.527344 1312.125 C 750.195312 1310.511719 748.414062 1309.199219 746.449219 1308.460938 C 745.542969 1308.128906 744.585938 1307.886719 743.621094 1307.804688 C 743.414062 1307.785156 743.203125 1307.816406 743.039062 1307.835938 C 743.046875 1308.148438 743.007812 1308.585938 743.007812 1308.679688 C 743.027344 1311.25 743.058594 1313.855469 743.308594 1316.425781 C 743.628906 1319.921875 745.710938 1327.492188 750.765625 1326.078125 C 752.953125 1325.472656 753.804688 1323.453125 753.785156 1321.414062 C 753.761719 1319.714844 753.804688 1318.050781 753.910156 1316.375 Z M 824.96875 1292.3125 C 824.769531 1294.882812 825.082031 1297.363281 824.769531 1299.890625 C 825.65625 1300.109375 826.445312 1300.652344 826.976562 1301.570312 C 829.660156 1306.234375 826.664062 1310.40625 823.730469 1314.050781 C 821.242188 1317.132812 818.519531 1320.058594 815.136719 1322.109375 C 815.136719 1328.597656 813.671875 1335.050781 808.886719 1339.828125 C 804.007812 1344.703125 796.921875 1346.328125 790.597656 1343.328125 C 784.347656 1340.359375 780.914062 1334.417969 778.511719 1328.222656 C 777.511719 1325.640625 775.953125 1321.226562 772.601562 1321.058594 C 771.03125 1320.976562 769.574219 1321.945312 768.023438 1322.003906 C 767.398438 1322.035156 766.796875 1321.984375 766.203125 1321.882812 C 763.3125 1327.785156 759.660156 1333.582031 754.742188 1337.652344 C 747.894531 1343.328125 738.804688 1342.746094 732.9375 1335.914062 C 730.441406 1333 728.890625 1329.429688 727.976562 1325.722656 C 727.484375 1323.777344 727.183594 1321.796875 726.894531 1319.820312 C 726.695312 1318.457031 726.769531 1316.1875 725.90625 1315.03125 C 724.886719 1313.667969 722.511719 1312.9375 721.171875 1311.867188 C 719.882812 1310.84375 718.777344 1309.625 717.914062 1308.210938 C 716.199219 1305.390625 715.472656 1301.976562 715.867188 1298.707031 C 716.125 1296.601562 716.824219 1294.726562 717.863281 1292.886719 C 718.601562 1291.5625 719.921875 1290.15625 720.183594 1288.636719 C 720.714844 1285.648438 717.050781 1283.410156 714.980469 1281.953125 C 711.644531 1279.582031 708.53125 1277.125 706.617188 1273.417969 C 704.996094 1270.230469 704.183594 1266.679688 704.101562 1263.109375 C 704.007812 1258.757812 705.046875 1254.332031 706.554688 1250.261719 C 707.878906 1246.710938 709.332031 1242.691406 712.089844 1239.964844 C 717.300781 1234.8125 726.207031 1235.332031 732.925781 1235.8125 C 741.007812 1236.382812 747.875 1239.519531 753.503906 1245.367188 C 756.175781 1248.136719 758.507812 1251.3125 760.546875 1254.574219 C 761.648438 1256.3125 762.761719 1258.851562 764.425781 1260.433594 C 764.871094 1260.371094 765.332031 1260.421875 765.777344 1260.601562 C 772.777344 1263.441406 780.976562 1262.640625 787.164062 1258.464844 C 787.644531 1257.945312 788.152344 1257.457031 788.652344 1257 C 791.148438 1254.730469 793.675781 1252.488281 796.195312 1250.242188 C 800.730469 1246.160156 805.421875 1241.914062 811.496094 1240.382812 C 823.042969 1237.488281 835.101562 1242.527344 841.738281 1252.25 C 847.59375 1260.828125 849.789062 1275.539062 840.320312 1282.503906 C 836.710938 1285.171875 832.28125 1285.722656 828.316406 1287.617188 C 826.164062 1288.660156 825.164062 1289.84375 824.96875 1292.3125 Z M 885.449219 1326.796875 C 885.738281 1326.929688 886.019531 1327.066406 886.3125 1327.199219 C 897.527344 1332.917969 907.761719 1340.757812 918.132812 1347.917969 C 929.085938 1355.488281 941.144531 1362.066406 950.339844 1372.144531 C 954.917969 1377.152344 958.878906 1382.972656 962.59375 1388.816406 C 964.070312 1391.148438 965.453125 1393.574219 966.152344 1396.40625 C 966.910156 1399.484375 966.910156 1402.777344 968.429688 1405.492188 C 969.96875 1408.230469 972.507812 1410.054688 974.972656 1411.644531 C 977.355469 1413.175781 980.320312 1413.925781 983.054688 1411.699219 C 985.28125 1409.886719 986.445312 1407.011719 986.945312 1404.222656 C 987.601562 1400.578125 987.851562 1398.832031 990.585938 1396.25 C 994.964844 1392.113281 1000.28125 1387.003906 997.503906 1380.609375 C 994.964844 1374.738281 988.902344 1374.976562 983.511719 1376.863281 C 976.949219 1371.65625 969.769531 1367.449219 962.863281 1362.722656 C 954.636719 1357.089844 946.585938 1351.167969 938.511719 1345.296875 C 937.542969 1344.597656 936.578125 1343.902344 935.609375 1343.191406 C 934.101562 1342.027344 932.550781 1340.914062 930.96875 1339.839844 C 925.4375 1335.863281 919.882812 1331.949219 914.199219 1328.199219 C 908.769531 1324.617188 903.257812 1320.953125 897.527344 1317.789062 C 897.359375 1317.402344 897.121094 1317.050781 896.734375 1316.769531 C 892.066406 1313.34375 887.144531 1310.261719 882.058594 1307.535156 C 882.203125 1306.765625 882.078125 1305.929688 881.535156 1305.109375 C 875.917969 1296.613281 869.792969 1287.929688 859.953125 1285.253906 C 856.175781 1284.234375 850.765625 1283.765625 847.011719 1286.628906 C 844.929688 1288.199219 843.722656 1290.5625 842.484375 1292.894531 C 841.175781 1295.394531 840.011719 1297.894531 838.90625 1300.453125 C 837.628906 1300.777344 836.359375 1301.914062 836.109375 1303.722656 C 835.777344 1306.117188 837.296875 1308.167969 838.40625 1309.84375 C 839.75 1311.875 841.308594 1313.75 843.402344 1314.863281 C 845.261719 1315.863281 847.417969 1316.144531 849.613281 1315.6875 C 852.203125 1315.144531 854.585938 1314.613281 856.894531 1315.90625 C 861.074219 1318.257812 862.59375 1324.464844 868.261719 1323.933594 C 869.699219 1323.808594 870.6875 1322.472656 870.976562 1321.070312 C 875.335938 1323.746094 880.089844 1325.722656 885.117188 1326.753906 C 885.230469 1326.773438 885.34375 1326.785156 885.449219 1326.796875 Z M 719.269531 1464.722656 C 719.476562 1464.742188 719.695312 1464.765625 719.914062 1464.785156 C 719.839844 1464.671875 719.746094 1464.566406 719.671875 1464.460938 C 719.546875 1464.523438 719.414062 1464.578125 719.277344 1464.628906 C 719.277344 1464.660156 719.269531 1464.691406 719.269531 1464.722656 Z M 705.847656 1334.050781 C 705.933594 1334.292969 705.964844 1334.550781 705.921875 1334.84375 C 703.238281 1353.28125 704.726562 1371.90625 707.722656 1390.25 C 709.199219 1399.265625 711.027344 1408.230469 712.890625 1417.195312 C 713.710938 1421.152344 714.398438 1425.128906 715.148438 1429.09375 C 716.125 1430.1875 716.863281 1431.480469 717.46875 1432.636719 C 718.714844 1435.09375 720.007812 1437.519531 721.328125 1439.945312 C 723.8125 1444.484375 726.613281 1448.878906 729.671875 1453.167969 C 731.105469 1455.1875 732.511719 1457.207031 734.007812 1459.183594 C 735.265625 1460.851562 736.753906 1462.421875 737.628906 1464.253906 C 739.367188 1467.910156 737.992188 1472.011719 734.195312 1474.351562 C 730.273438 1476.769531 725.75 1475.90625 721.515625 1474.625 C 719.371094 1473.976562 717.34375 1473.199219 715.105469 1473.96875 C 713.003906 1474.6875 711.382812 1475.882812 709.050781 1476.132812 C 704.652344 1476.613281 700.917969 1474.070312 699.792969 1470.574219 C 698.609375 1466.898438 699.855469 1462.847656 700.3125 1459.152344 C 700.9375 1454.164062 701.125 1449.1875 701.363281 1444.179688 C 701.488281 1441.734375 701.5 1439.277344 701.574219 1436.832031 C 700.898438 1435.3125 700.636719 1433.65625 700.210938 1432.074219 C 699.617188 1429.855469 699.023438 1427.636719 698.421875 1425.421875 C 697.320312 1421.296875 696.207031 1417.175781 695.125 1413.042969 C 692.960938 1404.773438 690.929688 1396.46875 689.539062 1388.074219 C 688.164062 1379.859375 687.300781 1371.5 687.5 1363.203125 C 687.601562 1358.839844 687.894531 1354.5 688.457031 1350.15625 C 688.570312 1349.273438 688.675781 1348.386719 688.808594 1347.511719 C 687.113281 1340.246094 686.300781 1332.738281 685.074219 1325.410156 C 684.503906 1322.003906 683.972656 1319.082031 681.640625 1316.1875 C 679.613281 1313.65625 677.65625 1311.210938 677.460938 1308.054688 C 677.074219 1302.046875 682.992188 1296.9375 689.351562 1295.0625 C 691.847656 1294.324219 694.925781 1294.03125 697.320312 1295.21875 C 698.503906 1295.800781 699.511719 1296.84375 699.867188 1297.976562 C 700.074219 1298.644531 699.855469 1299.519531 699.835938 1300.296875 C 700.230469 1300.484375 700.585938 1300.765625 700.867188 1301.183594 C 701.699219 1302.390625 703.09375 1304.859375 705.203125 1304.578125 C 707.085938 1304.328125 708.894531 1305.210938 708.925781 1306.960938 C 708.980469 1309.855469 708.988281 1312.761719 709.136719 1315.664062 C 709.199219 1316.820312 709.230469 1318.070312 709.769531 1319.164062 C 710.25 1320.121094 711.164062 1320.882812 711.714844 1321.820312 C 712.871094 1323.785156 712.632812 1325.960938 711.320312 1327.835938 C 710.269531 1329.335938 708.335938 1330.511719 707.773438 1332.207031 C 707.472656 1333.113281 706.734375 1333.71875 705.847656 1334.050781 Z M 952.542969 1627.074219 C 951.496094 1622.140625 951.496094 1617.402344 949.207031 1612.78125 C 947.78125 1609.898438 946.355469 1607.386719 945.480469 1604.265625 C 945.023438 1602.628906 944.484375 1601.015625 943.816406 1599.464844 C 942.339844 1589.5625 939.894531 1579.757812 932.8125 1572.636719 C 932.726562 1571.855469 932.582031 1571.082031 932.363281 1570.375 C 931.09375 1566.148438 927.265625 1562.828125 924.425781 1559.640625 C 920.867188 1555.65625 917.132812 1551.792969 913.710938 1547.679688 C 912.921875 1546.730469 911.101562 1546.136719 909.914062 1546.597656 C 909.90625 1546.597656 909.894531 1546.597656 909.894531 1546.597656 C 909.519531 1545.960938 908.863281 1545.484375 908.023438 1545.398438 C 905.003906 1545.109375 900.707031 1545.816406 898.066406 1544.128906 C 895.402344 1542.441406 894.238281 1540.308594 890.765625 1540.226562 C 884.316406 1540.058594 880.488281 1546.347656 878.292969 1551.550781 C 876.210938 1556.476562 874.722656 1563.679688 881.578125 1565.472656 C 883.785156 1566.054688 886.8125 1564.566406 888.664062 1565.347656 C 889.777344 1565.824219 890.773438 1567.585938 891.886719 1568.253906 C 892.429688 1568.574219 892.980469 1568.792969 893.53125 1568.960938 C 893.730469 1570.09375 894.113281 1571.199219 894.664062 1572.167969 C 896.078125 1574.707031 898.335938 1576.464844 900.84375 1577.820312 C 903.144531 1579.058594 907.5 1580.132812 908.386719 1582.878906 C 908.8125 1584.203125 909.5625 1585.171875 910.464844 1585.804688 C 910.695312 1586.660156 910.996094 1587.523438 911.453125 1588.460938 C 912.640625 1590.863281 914.222656 1593.105469 915.699219 1595.332031 C 918.550781 1599.632812 921.054688 1604.148438 923.429688 1608.71875 C 927.015625 1615.621094 929.179688 1624.222656 935.527344 1628.667969 C 936.152344 1629.542969 936.828125 1630.375 937.542969 1631.1875 C 937.378906 1632.125 937.660156 1633.113281 938.667969 1633.914062 C 941.539062 1636.246094 944.316406 1638.296875 947.542969 1640.132812 C 947.5625 1640.140625 947.582031 1640.152344 947.605469 1640.164062 C 949.058594 1641.214844 950.515625 1642.277344 951.890625 1643.523438 C 954.582031 1645.972656 958.195312 1643.648438 957.757812 1640.265625 C 957.144531 1635.582031 953.542969 1631.738281 952.542969 1627.074219 Z M 756.820312 1647.417969 C 753.542969 1646.636719 750.859375 1642.796875 748.382812 1640.683594 C 747.699219 1640.101562 746.824219 1639.953125 746.054688 1640.140625 C 746.054688 1640.132812 746.054688 1640.132812 746.054688 1640.121094 C 745.511719 1638.859375 743.691406 1637.902344 742.363281 1638.007812 C 736.628906 1638.445312 730.867188 1638.464844 725.125 1638.703125 C 720.546875 1638.890625 715.117188 1638.433594 710.914062 1640.621094 C 710.207031 1640.996094 709.511719 1641.453125 708.835938 1641.972656 C 698.058594 1641.839844 688.675781 1647.304688 679.9375 1653.570312 C 678.238281 1654.238281 676.597656 1655.019531 675.003906 1655.894531 C 671.9375 1657.558594 668.941406 1658.339844 665.652344 1659.402344 C 660.378906 1661.097656 656.726562 1664.648438 652.140625 1667.535156 C 647.800781 1670.261719 642.144531 1670.355469 638.074219 1673.40625 C 635.152344 1675.589844 636.066406 1680.121094 639.957031 1680.359375 C 641.957031 1680.484375 643.859375 1680.808594 645.761719 1681.140625 C 645.792969 1681.152344 645.816406 1681.171875 645.835938 1681.183594 C 649.664062 1682.285156 653.324219 1682.890625 657.269531 1683.367188 C 658.640625 1683.535156 659.621094 1683.015625 660.210938 1682.183594 C 661.378906 1682.128906 662.523438 1682.027344 663.667969 1681.859375 C 671.84375 1683.421875 680.082031 1678.640625 688.082031 1676.238281 C 693.386719 1674.644531 698.734375 1673.1875 704.183594 1672.167969 C 707.011719 1671.636719 709.914062 1671.1875 712.652344 1670.292969 C 713.710938 1669.949219 714.609375 1669.53125 715.441406 1669.0625 C 716.613281 1669.292969 717.914062 1669.148438 719.246094 1668.480469 C 722.035156 1667.105469 726.125 1669.667969 728.796875 1670.511719 C 731.71875 1671.425781 734.769531 1671.84375 737.785156 1671.042969 C 738.9375 1670.738281 740.074219 1670.210938 741.101562 1669.511719 C 741.644531 1669.8125 742.214844 1670.074219 742.871094 1670.25 C 744.222656 1670.605469 746.324219 1670.0625 747.53125 1670.5625 C 749.519531 1671.40625 750.640625 1674.851562 752.742188 1676.121094 C 759.253906 1680.070312 763.6875 1673.519531 765.921875 1668.230469 C 768.285156 1662.640625 770.25 1654.96875 765.300781 1650.117188 C 762.625 1647.503906 760.117188 1648.199219 756.820312 1647.417969 Z M 983.148438 1453.019531 C 983.355469 1452.8125 983.566406 1452.605469 983.773438 1452.40625 C 983.722656 1452.363281 983.679688 1452.3125 983.628906 1452.269531 C 983.460938 1452.519531 983.304688 1452.769531 983.148438 1453.019531 Z M 1014.378906 1449.117188 C 1013.347656 1449.1875 1012.035156 1448.878906 1011.078125 1449.1875 C 1009.84375 1449.585938 1009.050781 1451.15625 1008.324219 1452.082031 C 1006.816406 1453.988281 1005.285156 1455.882812 1003.746094 1457.757812 C 1000.449219 1461.765625 997.066406 1465.691406 993.613281 1469.554688 C 986.78125 1477.195312 979.351562 1484.203125 971.800781 1491.15625 C 964.464844 1497.894531 956.902344 1504.390625 949.214844 1510.773438 C 945.285156 1514.03125 941.339844 1517.277344 937.441406 1520.558594 C 935.421875 1522.253906 933.402344 1523.953125 931.394531 1525.648438 C 930.710938 1526.222656 930.023438 1526.742188 929.316406 1527.230469 C 929.316406 1527.230469 929.304688 1527.242188 929.304688 1527.253906 C 927.289062 1530.335938 925.820312 1533.53125 924.511719 1537.019531 C 923.59375 1539.484375 921.160156 1541.316406 918.144531 1539.464844 C 917.40625 1539.015625 916.886719 1538.464844 916.605469 1537.839844 C 916.21875 1537.683594 915.824219 1537.476562 915.4375 1537.195312 C 914.441406 1536.464844 913.765625 1535.40625 913.296875 1534.332031 C 913.078125 1533.820312 912.484375 1531.636719 912.453125 1531.613281 C 911.558594 1531.09375 910.988281 1530.417969 910.738281 1529.6875 C 908.125 1530.398438 905.484375 1530.179688 904.722656 1526.585938 C 903.589844 1521.234375 910.902344 1519.589844 914.636719 1518.457031 C 917.59375 1517.550781 920.234375 1516.308594 922.730469 1514.675781 C 924.34375 1513.625 925.726562 1512.207031 927.371094 1511.207031 C 927.765625 1509.492188 929.054688 1508.316406 930.167969 1506.960938 C 931.542969 1505.316406 932.914062 1503.648438 934.277344 1501.984375 C 937.015625 1498.664062 939.71875 1495.320312 942.414062 1491.96875 C 947.800781 1485.265625 953.011719 1478.414062 958.195312 1471.542969 C 963.476562 1464.535156 968.691406 1457.476562 973.902344 1450.429688 C 976.460938 1446.972656 978.9375 1443.453125 981.578125 1440.058594 C 982.492188 1438.882812 983.417969 1437.695312 984.40625 1436.550781 C 984.492188 1436.300781 984.59375 1436.050781 984.761719 1435.820312 C 985.980469 1434.113281 987.050781 1432.5625 987.652344 1430.480469 C 988.246094 1428.441406 988.445312 1426.253906 988.777344 1424.117188 C 989.339844 1420.507812 990.085938 1416.550781 992.542969 1413.894531 C 994.59375 1411.6875 998.378906 1411.335938 1000.875 1414.332031 C 1002.382812 1416.144531 1003.527344 1419.078125 1003.308594 1421.402344 C 1003.851562 1422.160156 1004.402344 1422.910156 1004.996094 1423.640625 C 1005.660156 1423.808594 1006.324219 1424.035156 1006.980469 1424.304688 C 1009.820312 1425.484375 1014.105469 1428.199219 1015.730469 1430.90625 C 1017.851562 1434.46875 1014.605469 1437.246094 1011.914062 1438.496094 C 1010.132812 1439.320312 1007.449219 1439.632812 1005.359375 1440.484375 C 1005.335938 1440.496094 1005.316406 1440.515625 1005.296875 1440.527344 C 1004.402344 1441.234375 1003.546875 1441.984375 1002.714844 1442.753906 C 1002.496094 1443.078125 1002.289062 1443.402344 1002.070312 1443.734375 C 1001.71875 1444.285156 1001.230469 1444.597656 1000.6875 1444.710938 C 998.523438 1446.910156 996.464844 1449.230469 994.3125 1451.417969 C 986.957031 1458.882812 979.570312 1466.316406 972.414062 1473.976562 C 965.246094 1481.628906 958.164062 1489.34375 951.296875 1497.269531 C 947.863281 1501.222656 944.484375 1505.222656 941.144531 1509.261719 C 940.90625 1509.554688 940.664062 1509.855469 940.425781 1510.148438 C 940.125 1511.074219 939.667969 1511.957031 939.15625 1512.824219 C 940.71875 1511.449219 942.277344 1510.085938 943.839844 1508.710938 C 956.433594 1497.621094 969.117188 1486.804688 980.703125 1474.726562 C 986.539062 1468.636719 992.273438 1462.441406 997.710938 1456.007812 C 998.886719 1454.625 1000.023438 1453.175781 1001.15625 1451.730469 C 1002.019531 1449.554688 1003.578125 1447.585938 1005.183594 1445.972656 C 1005.097656 1445.429688 1005.203125 1444.890625 1005.578125 1444.378906 C 1008.011719 1441.140625 1011.964844 1437.996094 1016.882812 1440.859375 C 1022.398438 1444.066406 1018.683594 1448.816406 1014.378906 1449.117188 Z M 770.085938 1623.734375 C 771.136719 1625.730469 769.886719 1627.773438 767.214844 1627.949219 C 765.152344 1628.085938 763.230469 1627.679688 761.316406 1627.097656 C 759.609375 1626.566406 757.464844 1625.492188 755.574219 1625.878906 C 753.867188 1626.210938 752.347656 1627.554688 750.757812 1628.15625 C 749.0625 1628.804688 747.4375 1628.929688 745.617188 1628.574219 C 744.597656 1628.375 743.808594 1627.636719 743.527344 1626.816406 C 741.675781 1621.503906 743.046875 1615.550781 742.789062 1610.074219 C 742.546875 1604.960938 741.707031 1599.882812 741.394531 1594.78125 C 740.988281 1594.039062 740.613281 1593.351562 740.34375 1592.40625 C 740.050781 1591.449219 739.8125 1590.480469 739.542969 1589.511719 C 738.917969 1587.261719 738.292969 1585.023438 737.753906 1582.753906 C 736.691406 1578.308594 735.539062 1573.894531 734.363281 1569.46875 C 732.082031 1560.910156 729.617188 1552.386719 726.894531 1543.921875 C 724.179688 1535.5 721.328125 1527.097656 718.320312 1518.757812 C 716.792969 1514.507812 715.316406 1510.25 713.796875 1506.003906 C 713.597656 1505.460938 713.402344 1504.921875 713.191406 1504.390625 C 713.078125 1504.203125 712.964844 1504.023438 712.847656 1503.847656 C 710.75 1500.589844 708.25 1497.589844 705.402344 1494.769531 C 703.277344 1492.65625 701.53125 1490.230469 703.070312 1487.417969 C 703.464844 1486.710938 704.019531 1486.117188 704.671875 1485.660156 C 704.839844 1485.390625 705.046875 1485.128906 705.308594 1484.867188 C 707.710938 1482.496094 711.007812 1483.953125 713.804688 1484.773438 C 717.601562 1485.890625 721.152344 1484.390625 724.71875 1483.328125 C 727.757812 1482.441406 731.398438 1481.527344 734.433594 1482.921875 C 737.242188 1484.210938 737.929688 1487.003906 736.558594 1489.335938 C 735.753906 1490.699219 734.371094 1491.730469 733.550781 1493.082031 C 732.761719 1494.394531 732.40625 1495.894531 732.125 1497.339844 C 731.648438 1499.796875 731.773438 1502.421875 731.46875 1504.929688 C 732.230469 1510.5625 734.308594 1516.195312 735.714844 1521.597656 C 737.855469 1529.886719 739.925781 1538.207031 742.027344 1546.511719 C 744.128906 1554.820312 746.253906 1563.128906 748.300781 1571.449219 C 749.382812 1575.820312 750.539062 1580.195312 751.527344 1584.585938 C 751.753906 1585.566406 751.964844 1586.554688 752.179688 1587.535156 C 754.773438 1588.585938 754.78125 1591.113281 755.238281 1593.382812 C 755.9375 1596.914062 757.757812 1600.246094 759.464844 1603.492188 C 762.988281 1610.25 766.527344 1616.996094 770.085938 1623.734375 " fill-opacity="1" fill-rule="nonzero"/></g></svg>