<?xml version="1.0" encoding="utf-8"?>
<!-- Generator: Adobe Illustrator 25.2.3, SVG Export Plug-In . SVG Version: 6.00 Build 0)  -->
<svg version="1.1" id="Layer_1" xmlns="http://www.w3.org/2000/svg" xmlns:xlink="http://www.w3.org/1999/xlink" x="0px" y="0px"
	 viewBox="0 0 562.5 375" style="enable-background:new 0 0 562.5 375;" xml:space="preserve">
<path d="M510.1,62.4c-15.7-30.9-46.5-54.1-82.5-50c-21.2,2.4-43.6,11.8-58.9,26.9c-15.6,15.3-24.7,36.6-25.6,58.4
	c-1.2,39.8,25.2,73.5,62,86.4c28.6,10.1,61.9,1,84.5-18.2c12.4-10.6,22-24.5,26.8-40.1C523.1,104.6,520.1,81.9,510.1,62.4z"/>
<path d="M96.2,110.2c9.5-5.9,21-8.2,32.1-6c5.5,1,10.1,3.3,15,5.8c4.2,2.2,8.8,2.1,11.7-2.2c2.7-4,4.2-8.4,7.3-12.1
	c3.2-3.8,6.9-7.1,11.1-9.6c8.9-5.5,19.1-7.9,29.5-6.8c5.9,0.6,5.8-8.6,0-9.2c-20.7-2.3-42,8.6-52.5,26.5c-0.6,1-3.3,5.2-9.8,1.7
	c-5-2.7-10.8-3.5-16.5-3.9c-11.4-0.9-22.9,1.9-32.5,7.9C86.5,105.4,91.2,113.4,96.2,110.2z"/>
<path d="M317.3,134.2c-18.5-11.5-44.7-11.3-62.3,1.9c-1.6,1.2-15.6-12.3-20.2-14.9c-9.6-5.4-20.8-7.9-31.8-6.7
	c-5.8,0.6-5.9,9.8,0,9.2c10.8-1.1,21.3,1.3,30.4,7.4c4.3,2.9,8.1,6.6,11.1,10.8c2.6,3.6,5.1,7.5,10.3,6.2c4.5-1,8.2-5.4,12.2-7.7
	c4.6-2.5,9.8-4.1,15.1-4.8c10.7-1.5,21.5,0.8,30.7,6.5C317.7,145.3,322.3,137.4,317.3,134.2z"/>
</svg>
