<?xml version="1.0" encoding="UTF-8"?><svg xmlns="http://www.w3.org/2000/svg" xmlns:xlink="http://www.w3.org/1999/xlink" width="75" zoomAndPan="magnify" viewBox="0 0 75 112.499997" height="112.499997" preserveAspectRatio="xMidYMid meet" version="1.0"><defs><clipPath id="clip-0"><path d="M 1.613281 3.902344 L 73.28125 3.902344 L 73.28125 108.253906 L 1.613281 108.253906 Z M 1.613281 3.902344 " clip-rule="nonzero"/></clipPath></defs><g clip-path="url(#clip-0)"><path fill="rgb(88.238525%, 88.238525%, 88.238525%)" d="M 59.714844 44.976562 C 59.679688 44.378906 59.089844 43.996094 58.515625 44.152344 C 58.128906 44.253906 57.875 44.566406 57.617188 44.863281 C 57.480469 44.898438 57.347656 44.9375 57.210938 44.976562 C 56.636719 45.144531 56.074219 45.351562 55.527344 45.59375 C 54.59375 46 53.621094 46.453125 52.757812 47.023438 C 51.996094 47.335938 51.246094 47.679688 50.503906 48.046875 C 49.925781 48.332031 49.371094 48.472656 48.730469 48.519531 C 48.515625 48.535156 48.296875 48.550781 48.078125 48.574219 C 47.59375 48.523438 47.101562 48.59375 46.65625 48.789062 C 46.46875 48.871094 46.398438 49.113281 46.464844 49.28125 C 46.449219 49.3125 46.4375 49.347656 46.425781 49.386719 C 46.375 49.617188 46.476562 49.847656 46.65625 49.988281 C 46.789062 50.09375 46.941406 50.140625 47.101562 50.164062 C 47.101562 50.175781 47.105469 50.183594 47.105469 50.195312 C 46.988281 50.292969 46.9375 50.480469 46.980469 50.625 C 47.023438 50.78125 47.066406 50.933594 47.113281 51.089844 C 47.164062 51.257812 47.34375 51.40625 47.523438 51.390625 C 48.023438 51.34375 48.367188 51.078125 48.710938 50.738281 C 49.085938 50.371094 49.484375 50.066406 49.925781 49.789062 C 50.832031 49.21875 51.773438 48.703125 52.734375 48.238281 C 53.660156 47.789062 54.613281 47.378906 55.585938 47.019531 C 55.796875 46.949219 56.007812 46.871094 56.21875 46.792969 C 56.851562 46.574219 57.492188 46.375 58.132812 46.199219 C 58.476562 46.292969 58.847656 46.289062 59.179688 46.164062 C 59.484375 46.050781 59.867188 45.84375 59.871094 45.472656 C 59.871094 45.324219 59.808594 45.191406 59.707031 45.085938 C 59.714844 45.050781 59.71875 45.011719 59.714844 44.976562 Z M 19.839844 21 C 20.433594 21.566406 21.089844 22.039062 21.808594 22.4375 C 22.429688 22.789062 23.09375 23.152344 23.789062 23.324219 C 24.300781 23.449219 24.816406 23.40625 25.261719 23.15625 C 25.332031 23.152344 25.394531 23.132812 25.457031 23.089844 C 25.753906 22.886719 26.089844 22.761719 26.378906 22.53125 C 26.65625 22.308594 26.894531 22.042969 27.148438 21.792969 C 27.648438 21.296875 28.167969 20.789062 28.753906 20.394531 C 29.015625 20.21875 28.796875 19.730469 28.492188 19.820312 C 27.980469 19.972656 27.507812 20.128906 27.0625 20.347656 C 26.980469 20.339844 26.890625 20.351562 26.796875 20.398438 C 26.597656 20.496094 26.414062 20.605469 26.242188 20.726562 C 26.160156 20.734375 26.078125 20.765625 26 20.828125 C 25.984375 20.84375 25.96875 20.851562 25.953125 20.867188 C 25.949219 20.867188 25.945312 20.867188 25.941406 20.867188 C 25.746094 20.902344 25.566406 20.890625 25.394531 20.84375 C 25.527344 20.691406 25.675781 20.503906 25.664062 20.347656 C 25.648438 20.128906 25.347656 19.90625 25.199219 19.773438 C 25.167969 19.742188 25.09375 19.691406 25.035156 19.703125 C 24.988281 19.671875 24.9375 19.65625 24.910156 19.675781 C 24.738281 19.800781 24.472656 20.074219 24.234375 20.136719 C 24.234375 20.132812 24.230469 20.132812 24.226562 20.132812 C 24.359375 20 24.578125 19.660156 24.585938 19.582031 C 24.59375 19.433594 24.339844 19.222656 24.269531 19.140625 C 24.242188 19.105469 24.105469 18.992188 24.054688 19.050781 C 23.960938 19.164062 23.660156 19.570312 23.507812 19.574219 C 23.359375 19.574219 23.171875 19.375 23.136719 19.21875 C 23.316406 19.035156 23.496094 18.851562 23.679688 18.671875 C 23.691406 18.65625 23.671875 18.621094 23.667969 18.613281 C 23.539062 18.453125 23.359375 18.238281 23.152344 18.136719 C 23.113281 18.105469 23.066406 18.085938 23.035156 18.09375 C 23.03125 18.09375 23.03125 18.09375 23.03125 18.09375 C 23.019531 18.089844 23.011719 18.085938 23 18.085938 C 22.871094 18.066406 22.636719 18.144531 22.429688 18.25 C 22.421875 18.25 22.414062 18.246094 22.40625 18.242188 C 22.425781 18.222656 22.445312 18.203125 22.464844 18.183594 C 22.558594 18.101562 22.734375 17.992188 22.78125 17.867188 C 22.859375 17.660156 22.613281 17.453125 22.496094 17.320312 C 22.457031 17.277344 22.367188 17.234375 22.308594 17.261719 C 22.160156 17.339844 22.042969 17.457031 21.898438 17.542969 C 21.851562 17.574219 21.796875 17.597656 21.742188 17.621094 C 21.707031 17.578125 21.644531 17.542969 21.59375 17.542969 C 21.675781 17.46875 21.753906 17.390625 21.839844 17.320312 C 21.910156 17.261719 22 17.226562 21.976562 17.125 C 21.9375 16.949219 21.707031 16.765625 21.550781 16.695312 C 21.476562 16.664062 21.4375 16.671875 21.371094 16.714844 C 21.324219 16.742188 21.28125 16.789062 21.226562 16.804688 C 21.199219 16.816406 21.171875 16.8125 21.140625 16.808594 C 21.246094 16.71875 21.347656 16.628906 21.453125 16.542969 C 21.535156 16.476562 21.566406 16.476562 21.648438 16.4375 C 21.703125 16.414062 21.722656 16.414062 21.753906 16.359375 C 21.859375 16.175781 21.539062 15.886719 21.429688 15.777344 C 21.351562 15.695312 21.246094 15.597656 21.140625 15.65625 C 21.050781 15.710938 20.953125 15.878906 20.878906 15.957031 C 20.804688 16.035156 20.730469 16.109375 20.660156 16.1875 C 20.691406 16.070312 20.71875 15.953125 20.734375 15.835938 C 20.785156 15.46875 20.917969 15.125 20.957031 14.75 C 20.996094 14.363281 21.078125 13.972656 21.070312 13.585938 C 21.066406 13.386719 20.941406 13.261719 20.800781 13.230469 C 20.785156 13.21875 20.769531 13.203125 20.753906 13.191406 C 20.742188 13.179688 20.726562 13.171875 20.714844 13.164062 C 20.664062 13.125 20.601562 13.121094 20.546875 13.136719 C 20.140625 13.203125 19.828125 13.808594 19.8125 14.242188 C 19.53125 14.53125 19.234375 14.808594 19.117188 15.152344 C 19.09375 15.179688 19.066406 15.207031 19.042969 15.238281 C 18.945312 15.339844 18.796875 15.480469 18.65625 15.640625 C 18.632812 15.65625 18.609375 15.671875 18.585938 15.6875 C 17.984375 16.082031 17.902344 16.695312 17.945312 17.371094 C 18.03125 18.773438 18.847656 20.058594 19.839844 21 Z M 26.242188 11.984375 C 26.8125 12.148438 27.460938 12.109375 28.027344 11.953125 C 28.175781 11.914062 28.308594 11.863281 28.4375 11.800781 C 28.441406 11.800781 28.445312 11.796875 28.449219 11.792969 C 28.703125 11.558594 28.914062 11.296875 29.121094 11.03125 C 29.121094 11.027344 29.121094 11.027344 29.121094 11.023438 C 29.527344 9.792969 27.84375 8.957031 26.902344 8.730469 C 25.910156 8.492188 24.695312 8.664062 24.300781 9.75 C 23.863281 10.960938 25.292969 11.710938 26.242188 11.984375 Z M 29.386719 14.417969 C 29.449219 14.867188 29.792969 15.242188 30.117188 15.53125 C 30.445312 15.820312 30.933594 16.28125 31.378906 16.332031 C 31.863281 16.386719 32.277344 15.980469 32.527344 15.605469 C 32.847656 15.125 33.042969 14.746094 32.898438 14.167969 C 32.769531 13.632812 32.480469 13.09375 32.074219 12.71875 C 31.238281 11.957031 30.339844 12.59375 29.605469 13.175781 C 29.519531 13.589844 29.328125 14.003906 29.386719 14.417969 Z M 28.3125 13.136719 C 27.992188 13.042969 27.6875 12.957031 27.375 12.953125 C 26.957031 13.125 26.546875 13.3125 26.167969 13.589844 C 25.855469 13.816406 25.449219 14.125 25.34375 14.519531 C 25.265625 14.800781 25.433594 14.996094 25.484375 15.234375 C 25.648438 15.242188 25.789062 15.3125 25.917969 15.414062 C 25.984375 15.40625 26.046875 15.410156 26.140625 15.441406 C 26.335938 15.507812 26.390625 15.710938 26.320312 15.875 C 26.441406 16.050781 26.550781 16.226562 26.664062 16.367188 C 26.816406 16.34375 26.933594 16.21875 27.066406 16.082031 C 27.375 15.773438 27.652344 15.417969 27.871094 15.039062 C 28.074219 14.683594 28.183594 14.3125 28.230469 13.910156 C 28.261719 13.65625 28.246094 13.382812 28.3125 13.136719 Z M 20.578125 11.765625 C 20.421875 11.347656 20.574219 11.039062 20.8125 10.765625 C 20.886719 10.527344 21.023438 10.300781 21.199219 10.105469 C 21.378906 9.90625 21.578125 9.734375 21.792969 9.574219 C 21.871094 9.519531 21.957031 9.46875 22.042969 9.414062 C 22.167969 8.988281 22.28125 8.554688 22.449219 8.140625 C 22.78125 7.3125 23.3125 6.605469 23.984375 6.027344 C 25.328125 4.871094 27.117188 4.203125 28.859375 3.980469 C 29.75 3.867188 30.683594 3.832031 31.542969 4.140625 C 32.402344 4.449219 33.335938 4.933594 34.03125 5.535156 C 34.382812 5.835938 34.675781 6.199219 34.886719 6.605469 C 35.933594 7.59375 36.488281 9.246094 36.523438 10.589844 C 36.546875 11.585938 36.320312 12.582031 35.875 13.472656 C 35.835938 13.550781 35.789062 13.632812 35.742188 13.722656 C 35.460938 14.613281 34.78125 15.382812 34.121094 16.003906 C 33.738281 16.359375 33.304688 16.667969 32.84375 16.910156 C 32.761719 16.957031 32.683594 17.003906 32.601562 17.050781 C 32.550781 17.148438 32.496094 17.246094 32.425781 17.34375 C 32.230469 17.613281 32.050781 17.855469 31.914062 18.164062 C 31.667969 18.730469 31.539062 19.148438 30.828125 19.117188 C 30.148438 19.085938 29.507812 18.804688 28.835938 18.730469 C 28.535156 18.695312 28.207031 18.699219 27.921875 18.832031 C 27.667969 18.953125 27.535156 19.113281 27.265625 19.113281 C 27.210938 19.152344 27.15625 19.191406 27.101562 19.21875 C 26.929688 19.308594 26.730469 19.363281 26.546875 19.425781 C 26.453125 19.492188 26.347656 19.539062 26.234375 19.554688 C 26.007812 19.589844 25.800781 19.410156 25.660156 19.261719 C 25.632812 19.234375 25.582031 19.167969 25.617188 19.128906 C 25.800781 18.921875 25.964844 18.703125 26.109375 18.46875 C 26.113281 18.464844 26.113281 18.460938 26.117188 18.457031 C 26.097656 18.433594 26.082031 18.410156 26.0625 18.386719 C 25.929688 18.597656 25.699219 18.941406 25.488281 18.972656 C 25.308594 19 25.054688 18.734375 24.929688 18.644531 C 24.894531 18.621094 24.816406 18.546875 24.851562 18.496094 C 24.96875 18.328125 25.085938 18.132812 25.085938 17.917969 C 25.085938 17.90625 25.078125 17.878906 25.070312 17.847656 C 24.976562 18.023438 24.894531 18.238281 24.738281 18.277344 C 24.566406 18.316406 24.390625 18.125 24.269531 18.035156 C 24.238281 18.011719 24.175781 17.957031 24.183594 17.90625 C 24.222656 17.695312 24.238281 17.484375 24.335938 17.316406 C 24.234375 17.417969 24.128906 17.515625 24.011719 17.582031 C 23.867188 17.664062 23.710938 17.625 23.574219 17.546875 C 23.449219 17.46875 23.246094 17.328125 23.242188 17.164062 C 23.242188 17.027344 23.359375 16.882812 23.453125 16.761719 C 23.4375 16.738281 23.429688 16.714844 23.433594 16.695312 C 23.433594 16.65625 23.457031 16.617188 23.488281 16.578125 C 23.414062 16.664062 23.328125 16.75 23.242188 16.792969 C 23.140625 16.84375 23.035156 16.753906 22.949219 16.703125 C 22.933594 16.691406 22.878906 16.652344 22.847656 16.609375 C 22.824219 16.59375 22.804688 16.578125 22.785156 16.554688 C 22.679688 16.453125 22.554688 16.296875 22.664062 16.160156 C 22.785156 16.007812 22.9375 15.902344 23 15.722656 C 22.921875 15.648438 22.84375 15.578125 22.761719 15.511719 C 22.757812 15.519531 22.75 15.523438 22.742188 15.53125 C 22.738281 15.539062 22.730469 15.550781 22.71875 15.554688 C 22.597656 15.652344 22.4375 15.832031 22.273438 15.851562 C 22.222656 15.859375 22.175781 15.847656 22.132812 15.832031 C 22.046875 15.859375 21.949219 15.789062 21.941406 15.699219 C 21.925781 15.683594 21.90625 15.667969 21.890625 15.652344 C 21.777344 15.535156 21.710938 15.449219 21.808594 15.296875 C 21.882812 15.179688 22 15.101562 22.109375 15.015625 C 22.113281 15.011719 22.117188 15.003906 22.125 14.996094 C 21.988281 14.847656 21.929688 14.597656 22.070312 14.429688 C 22.390625 14.042969 22.351562 13.488281 22.128906 13.0625 C 22.03125 12.992188 21.929688 12.925781 21.828125 12.859375 C 21.359375 12.558594 20.785156 12.328125 20.578125 11.765625 Z M 10.449219 70.390625 C 10.332031 70.074219 10.070312 69.898438 9.84375 69.660156 C 9.542969 69.339844 9.300781 68.96875 9.117188 68.570312 C 9.074219 68.472656 8.996094 68.425781 8.914062 68.410156 C 8.726562 68.359375 8.496094 68.5 8.597656 68.71875 C 8.945312 69.460938 9.417969 70.113281 10.03125 70.664062 C 10.214844 70.828125 10.542969 70.640625 10.449219 70.390625 Z M 8.234375 65.464844 C 8.203125 65.382812 8.144531 65.335938 8.082031 65.3125 C 8.046875 64.992188 7.539062 65.011719 7.570312 65.34375 C 7.628906 66 7.753906 66.652344 7.972656 67.277344 C 8.070312 67.558594 8.199219 68.144531 8.597656 68.132812 C 9.507812 68.101562 8.371094 65.824219 8.234375 65.464844 Z M 8.082031 63.800781 C 8.046875 63.625 7.996094 63.464844 7.957031 63.296875 C 7.984375 63.132812 8.007812 62.96875 8.015625 62.808594 C 8.023438 62.625 8.027344 62.445312 8.023438 62.261719 C 8.0625 62.140625 8.113281 62.023438 8.171875 61.910156 C 8.261719 61.730469 8.132812 61.574219 7.984375 61.539062 C 7.980469 61.523438 7.980469 61.511719 7.980469 61.496094 C 7.945312 61.167969 7.429688 61.1875 7.464844 61.519531 C 7.484375 61.746094 7.5 61.96875 7.503906 62.195312 C 7.449219 62.378906 7.414062 62.570312 7.402344 62.765625 C 7.390625 62.960938 7.394531 63.152344 7.425781 63.347656 C 7.429688 63.378906 7.4375 63.410156 7.445312 63.441406 C 7.4375 63.492188 7.429688 63.546875 7.421875 63.601562 C 7.378906 63.875 7.28125 64.34375 7.707031 64.351562 C 8.011719 64.355469 8.125 64.046875 8.082031 63.800781 Z M 12.003906 70.894531 C 12.265625 71.085938 12.617188 70.714844 12.351562 70.511719 C 11.71875 70.035156 11.191406 69.554688 10.917969 68.785156 C 10.859375 68.625 10.699219 68.589844 10.574219 68.636719 C 10.554688 68.613281 10.535156 68.585938 10.519531 68.558594 C 10.34375 68.277344 9.910156 68.558594 10.085938 68.839844 C 10.59375 69.644531 11.234375 70.335938 12.003906 70.894531 Z M 10.035156 67.804688 C 10.347656 67.515625 10.097656 67.082031 9.957031 66.78125 C 9.761719 66.359375 9.601562 65.777344 9.238281 65.472656 C 9.03125 65.292969 8.757812 65.519531 8.808594 65.726562 C 8.742188 65.785156 8.703125 65.875 8.730469 65.984375 C 8.824219 66.347656 9.34375 68.445312 10.035156 67.804688 Z M 9.109375 64.800781 C 9.746094 64.664062 9.355469 63.726562 9.371094 63.28125 C 9.394531 62.566406 9.734375 62.011719 9.277344 61.363281 C 9.203125 61.257812 9.042969 61.226562 8.929688 61.277344 C 8.777344 61.21875 8.558594 61.304688 8.558594 61.519531 C 8.558594 62.015625 8.566406 62.515625 8.511719 63.007812 C 8.476562 63.339844 8.367188 63.667969 8.355469 64 C 8.339844 64.417969 8.625 64.902344 9.109375 64.800781 Z M 14.207031 66.570312 C 14.273438 66.664062 14.390625 66.710938 14.503906 66.675781 C 15.171875 66.464844 14.28125 65.582031 14.09375 65.339844 C 14.039062 65.269531 13.96875 65.238281 13.898438 65.234375 C 13.882812 65.210938 13.863281 65.1875 13.847656 65.164062 C 13.65625 64.890625 13.222656 65.171875 13.414062 65.441406 C 13.679688 65.820312 13.941406 66.195312 14.207031 66.570312 Z M 13.492188 64.859375 C 13.757812 64.660156 13.730469 64.269531 13.605469 64 C 13.457031 63.675781 13.15625 63.46875 12.988281 63.15625 C 12.863281 62.914062 12.550781 63.0625 12.527344 63.28125 C 12.355469 63.257812 12.160156 63.398438 12.238281 63.609375 C 12.371094 63.988281 12.902344 65.300781 13.492188 64.859375 Z M 11.941406 62.160156 C 11.960938 62.207031 11.984375 62.25 12.007812 62.296875 C 12.117188 62.519531 12.039062 62.296875 11.972656 62.203125 C 11.960938 62.1875 11.949219 62.175781 11.941406 62.160156 Z M 10.726562 61.230469 C 10.683594 61.164062 10.667969 61.078125 10.699219 60.984375 C 10.765625 60.808594 10.941406 60.714844 11.125 60.726562 C 11.378906 60.742188 11.542969 60.96875 11.703125 61.144531 C 12.007812 61.476562 12.625 61.929688 12.566406 62.445312 C 12.519531 62.847656 12.054688 63.101562 11.730469 62.800781 C 11.554688 62.640625 11.5 62.382812 11.386719 62.183594 C 11.234375 61.914062 11.03125 61.699219 10.792969 61.511719 C 10.6875 61.429688 10.679688 61.320312 10.726562 61.230469 Z M 9.789062 58.734375 C 9.246094 58.707031 9.109375 58.328125 8.683594 58.082031 C 8.421875 57.933594 8.105469 57.890625 7.847656 58.066406 C 7.605469 58.230469 7.527344 58.507812 7.496094 58.785156 C 7.449219 59.300781 7.503906 59.84375 7.511719 60.359375 C 7.515625 60.484375 7.585938 60.558594 7.675781 60.585938 C 7.71875 60.710938 7.773438 60.824219 7.851562 60.914062 C 8.113281 61.230469 8.695312 61.164062 9.167969 61.101562 C 9.328125 61.105469 9.492188 61.085938 9.667969 61.035156 C 9.777344 61.007812 9.832031 60.917969 9.839844 60.824219 C 10.441406 60.902344 11.058594 60.492188 11.070312 59.839844 C 11.082031 59.09375 10.421875 58.761719 9.789062 58.734375 Z M 27.597656 23.882812 C 27.171875 23.980469 26.621094 24.039062 26.246094 24.261719 C 25.859375 24.496094 25.847656 24.949219 25.953125 25.328125 C 25.976562 25.402344 26.023438 25.476562 26.085938 25.535156 C 26.105469 25.746094 26.332031 25.941406 26.550781 25.925781 C 27.007812 25.894531 27.667969 25.933594 28.039062 25.628906 C 28.050781 25.617188 28.0625 25.609375 28.070312 25.597656 C 28.480469 25.371094 28.441406 24.953125 28.359375 24.5625 C 28.34375 24.5 28.308594 24.449219 28.261719 24.410156 C 28.300781 24.074219 27.9375 23.800781 27.597656 23.882812 Z M 26.269531 27.722656 C 26.507812 27.847656 26.777344 27.8125 27.035156 27.796875 C 27.363281 27.777344 27.6875 27.746094 28.015625 27.710938 C 28.339844 27.675781 28.613281 27.421875 28.515625 27.082031 C 28.453125 26.875 28.414062 26.65625 28.351562 26.449219 C 28.265625 26.144531 27.933594 26.058594 27.664062 26.179688 C 27.363281 26.3125 27 26.355469 26.675781 26.378906 C 26.558594 26.386719 26.464844 26.425781 26.394531 26.476562 C 26.265625 26.460938 26.128906 26.507812 26.066406 26.636719 C 25.878906 27.015625 25.824219 27.484375 26.269531 27.722656 Z M 26.183594 29.042969 C 26.230469 29.058594 26.269531 29.09375 26.304688 29.128906 C 26.390625 29.351562 26.578125 29.527344 26.914062 29.621094 C 27.570312 29.792969 28.4375 29.753906 28.691406 29.023438 C 28.792969 28.738281 28.746094 28.371094 28.484375 28.175781 C 28.34375 28.070312 28.148438 28.039062 27.976562 28.070312 C 27.824219 28.097656 27.679688 28.222656 27.53125 28.238281 C 27.398438 28.25 27.269531 28.128906 27.148438 28.074219 C 27.0625 28.039062 26.976562 28.011719 26.890625 27.996094 C 26.753906 27.816406 26.472656 27.839844 26.386719 28.054688 C 26.1875 28.136719 26.039062 28.296875 25.960938 28.515625 C 25.898438 28.691406 26 28.960938 26.183594 29.042969 Z M 65.894531 35.40625 C 65.992188 35.488281 66.15625 35.488281 66.242188 35.324219 C 66.402344 35.019531 66.546875 34.714844 66.675781 34.394531 C 66.75 34.21875 66.492188 34.070312 66.382812 34.230469 C 66.355469 34.269531 66.332031 34.308594 66.308594 34.347656 C 66.214844 34.402344 66.136719 34.527344 66.085938 34.597656 C 65.960938 34.765625 65.820312 34.914062 65.6875 35.070312 C 65.558594 35.214844 65.738281 35.433594 65.894531 35.40625 Z M 64.203125 36.746094 C 64.289062 36.777344 64.367188 36.78125 64.4375 36.765625 C 64.46875 36.777344 64.503906 36.777344 64.539062 36.765625 C 64.851562 36.679688 65.148438 36.390625 65.386719 36.171875 C 65.46875 36.089844 65.503906 35.996094 65.5 35.910156 C 65.527344 35.882812 65.558594 35.851562 65.585938 35.820312 C 65.664062 35.734375 65.648438 35.582031 65.578125 35.496094 C 65.5 35.402344 65.382812 35.386719 65.269531 35.421875 C 65.175781 35.449219 65.058594 35.523438 64.984375 35.617188 C 64.941406 35.632812 64.90625 35.65625 64.871094 35.695312 C 64.769531 35.742188 64.675781 35.796875 64.585938 35.867188 C 64.523438 35.917969 64.460938 35.980469 64.40625 36.042969 C 64.378906 36.070312 64.351562 36.105469 64.328125 36.136719 C 64.28125 36.160156 64.238281 36.183594 64.191406 36.203125 C 63.964844 36.296875 63.960938 36.667969 64.203125 36.746094 Z M 62.457031 39.289062 C 62.578125 39.308594 62.675781 39.21875 62.710938 39.113281 C 62.726562 39.101562 62.738281 39.089844 62.753906 39.078125 C 62.988281 38.820312 63.140625 38.511719 63.402344 38.273438 C 63.636719 38.054688 63.867188 37.851562 64.03125 37.5625 C 64.269531 37.148438 63.9375 36.753906 63.476562 36.910156 C 63.191406 37.007812 63 37.304688 62.816406 37.53125 C 62.578125 37.828125 62.347656 38.132812 62.160156 38.464844 C 61.886719 38.945312 61.878906 39.179688 62.457031 39.289062 Z M 68.882812 36.253906 C 68.960938 36.257812 69.027344 36.246094 69.089844 36.226562 C 69.144531 36.339844 69.277344 36.410156 69.410156 36.351562 C 69.734375 36.207031 70.097656 36.046875 70.355469 35.796875 C 70.675781 35.480469 70.886719 35.128906 71.273438 34.875 C 71.445312 34.765625 71.269531 34.519531 71.097656 34.582031 C 71.03125 34.605469 70.972656 34.628906 70.914062 34.652344 C 70.515625 34.800781 70.152344 34.960938 69.796875 35.21875 C 69.472656 35.453125 69.027344 35.734375 68.804688 36.070312 C 68.757812 36.136719 68.792969 36.25 68.882812 36.253906 Z M 66.480469 37.492188 C 66.359375 37.496094 66.277344 37.574219 66.25 37.691406 C 66.214844 37.851562 66.265625 37.992188 66.328125 38.140625 C 66.40625 38.320312 66.695312 38.429688 66.851562 38.265625 C 66.957031 38.15625 67.015625 38.023438 67.019531 37.894531 C 67.058594 37.898438 67.101562 37.890625 67.144531 37.867188 C 67.457031 37.683594 69.125 36.792969 68.339844 36.3125 C 68.210938 36.230469 68.054688 36.246094 67.957031 36.371094 C 67.574219 36.859375 67.066406 37.222656 66.503906 37.480469 C 66.496094 37.484375 66.488281 37.488281 66.480469 37.492188 Z M 65.484375 38.113281 C 65.261719 38.277344 65.105469 38.488281 64.921875 38.6875 C 64.792969 38.765625 64.667969 38.835938 64.574219 38.902344 C 64.351562 39.070312 64.109375 39.226562 63.914062 39.429688 C 63.894531 39.4375 63.878906 39.449219 63.855469 39.457031 C 63.664062 39.546875 63.660156 39.738281 63.742188 39.867188 C 63.78125 39.976562 63.878906 40.054688 64.003906 40.023438 C 64.453125 39.902344 64.835938 39.582031 65.210938 39.316406 C 65.523438 39.09375 65.882812 38.882812 66.019531 38.503906 C 66.140625 38.175781 65.761719 37.914062 65.484375 38.113281 Z M 72.875 36.53125 C 73.105469 36.34375 72.816406 35.988281 72.585938 36.171875 C 72.457031 36.257812 72.335938 36.34375 72.21875 36.429688 C 71.90625 36.625 71.570312 36.789062 71.246094 36.957031 C 70.886719 37.144531 70.441406 37.261719 70.15625 37.558594 C 70.109375 37.601562 70.101562 37.6875 70.144531 37.738281 C 70.097656 37.773438 70.050781 37.804688 70.003906 37.84375 C 69.832031 37.980469 70 38.238281 70.195312 38.164062 C 70.722656 37.96875 71.214844 37.738281 71.707031 37.46875 C 72.152344 37.226562 72.480469 36.847656 72.875 36.53125 Z M 67.84375 39.625 C 68.398438 39.390625 68.902344 39.054688 69.453125 38.820312 C 69.546875 38.78125 69.625 38.683594 69.632812 38.578125 C 69.640625 38.398438 69.625 38.257812 69.570312 38.089844 C 69.5 37.875 69.230469 37.863281 69.074219 37.96875 C 68.789062 38.164062 68.523438 38.394531 68.253906 38.613281 C 68.242188 38.621094 68.230469 38.628906 68.222656 38.640625 C 67.976562 38.757812 67.742188 38.902344 67.523438 39.097656 C 67.261719 39.328125 67.511719 39.761719 67.84375 39.625 Z M 66.867188 39.894531 C 66.71875 39.511719 66.183594 39.390625 65.96875 39.792969 C 65.949219 39.828125 65.933594 39.867188 65.921875 39.910156 C 65.394531 40.15625 64.933594 40.515625 64.421875 40.824219 C 64.382812 40.847656 64.351562 40.875 64.328125 40.90625 C 64.316406 40.910156 64.308594 40.914062 64.296875 40.914062 C 63.878906 40.980469 64.195312 41.574219 64.457031 41.363281 C 64.515625 41.378906 64.578125 41.375 64.652344 41.351562 C 65.347656 41.09375 65.894531 40.53125 66.617188 40.339844 C 66.824219 40.285156 66.949219 40.105469 66.867188 39.894531 Z M 71.832031 41.246094 C 71.652344 41.226562 71.410156 41.3125 71.300781 41.355469 C 71.105469 41.429688 70.867188 41.527344 70.695312 41.675781 C 70.605469 41.699219 70.515625 41.722656 70.425781 41.742188 C 70.148438 41.804688 70.207031 42.238281 70.488281 42.179688 C 70.542969 42.171875 70.59375 42.15625 70.648438 42.144531 C 70.945312 42.214844 71.289062 42.054688 71.550781 41.929688 C 71.628906 41.890625 71.761719 41.824219 71.871094 41.738281 C 72.136719 41.675781 72.421875 41.609375 72.503906 41.324219 C 72.515625 41.285156 72.507812 41.242188 72.472656 41.214844 C 72.257812 41.070312 72.042969 41.144531 71.832031 41.246094 Z M 73.058594 38.816406 C 72.753906 38.960938 72.429688 39.070312 72.105469 39.160156 C 72 39.171875 71.90625 39.195312 71.808594 39.246094 C 71.636719 39.296875 71.488281 39.363281 71.390625 39.492188 C 71.222656 39.5 71.109375 39.496094 70.949219 39.59375 C 70.785156 39.691406 70.664062 39.816406 70.605469 40 C 70.566406 40.113281 70.613281 40.226562 70.722656 40.277344 C 70.882812 40.351562 71.039062 40.351562 71.203125 40.304688 C 71.414062 40.25 71.496094 40.15625 71.613281 40.015625 C 71.832031 40.03125 72.019531 39.882812 72.207031 39.746094 C 72.523438 39.515625 72.839844 39.289062 73.191406 39.113281 C 73.375 39.019531 73.253906 38.734375 73.058594 38.816406 Z M 70.0625 40.171875 C 70.046875 40.128906 70.03125 40.089844 70.011719 40.046875 C 69.855469 39.730469 69.445312 39.90625 69.464844 40.183594 C 69.285156 40.214844 69.074219 40.339844 68.953125 40.449219 C 68.9375 40.464844 68.925781 40.476562 68.921875 40.496094 C 68.773438 40.523438 68.628906 40.578125 68.496094 40.632812 C 68.253906 40.730469 68.011719 40.839844 67.785156 40.972656 C 67.78125 40.976562 67.78125 40.976562 67.777344 40.976562 C 67.519531 41.0625 67.644531 41.515625 67.910156 41.441406 C 68.183594 41.367188 68.457031 41.25 68.714844 41.132812 C 68.878906 41.058594 69.054688 40.972656 69.191406 40.847656 C 69.34375 40.792969 69.496094 40.738281 69.648438 40.6875 C 69.792969 40.820312 70.0625 40.785156 70.09375 40.53125 C 70.09375 40.527344 70.09375 40.527344 70.09375 40.523438 C 70.195312 40.433594 70.171875 40.246094 70.0625 40.171875 Z M 64.941406 42.574219 C 65.628906 42.847656 66.464844 42.109375 67.128906 41.972656 C 67.300781 41.9375 67.363281 41.785156 67.320312 41.625 C 67.296875 41.523438 67.261719 41.421875 67.21875 41.324219 C 67.125 41.078125 66.800781 41.132812 66.699219 41.335938 C 66.671875 41.390625 66.632812 41.445312 66.578125 41.492188 C 66.570312 41.496094 66.5625 41.496094 66.550781 41.496094 C 66.332031 41.542969 66.101562 41.652344 65.902344 41.742188 C 65.6875 41.839844 65.417969 41.957031 65.207031 42.121094 C 65.121094 42.140625 65.035156 42.152344 64.949219 42.152344 C 64.683594 42.152344 64.671875 42.507812 64.90625 42.535156 C 64.910156 42.550781 64.921875 42.566406 64.941406 42.574219 Z M 69.40625 42.070312 C 69.242188 42.09375 69.09375 42.210938 68.945312 42.304688 C 68.519531 42.335938 67.980469 42.445312 67.832031 42.886719 C 67.800781 42.976562 67.835938 43.101562 67.9375 43.132812 C 68.332031 43.25 68.710938 43.03125 69.085938 42.941406 C 69.328125 42.882812 69.679688 42.710938 69.742188 42.441406 C 69.796875 42.214844 69.636719 42.039062 69.40625 42.070312 Z M 67.402344 42.988281 C 67.386719 42.953125 67.367188 42.914062 67.34375 42.886719 C 67.320312 42.855469 67.28125 42.824219 67.25 42.796875 C 67.207031 42.757812 67.109375 42.738281 67.050781 42.75 C 66.980469 42.761719 66.910156 42.796875 66.871094 42.855469 C 66.851562 42.882812 66.835938 42.914062 66.820312 42.9375 C 66.816406 42.949219 66.8125 42.957031 66.808594 42.96875 C 66.558594 42.972656 66.3125 43.070312 66.066406 43.132812 C 65.691406 43.226562 65.324219 43.316406 64.957031 43.445312 C 64.695312 43.535156 64.824219 43.949219 65.089844 43.90625 C 65.472656 43.84375 65.84375 43.75 66.222656 43.65625 C 66.453125 43.597656 66.722656 43.570312 66.9375 43.457031 C 66.949219 43.464844 66.960938 43.472656 66.972656 43.480469 C 67.050781 43.515625 67.140625 43.542969 67.226562 43.527344 C 67.414062 43.488281 67.535156 43.296875 67.457031 43.109375 C 67.4375 43.070312 67.421875 43.027344 67.402344 42.988281 Z M 63.152344 40.140625 C 62.972656 39.964844 62.792969 39.875 62.613281 39.847656 C 62.304688 39.644531 61.945312 39.488281 61.59375 39.699219 C 61.457031 39.78125 61.355469 39.890625 61.300781 40.042969 C 61.273438 40.121094 61.265625 40.191406 61.261719 40.273438 C 61.269531 40.304688 61.273438 40.335938 61.277344 40.367188 C 61.207031 40.394531 61.074219 40.464844 61.066406 40.472656 C 61.015625 40.511719 60.96875 40.535156 60.929688 40.582031 C 60.792969 40.738281 60.828125 40.839844 60.8125 41.027344 C 60.8125 41.0625 60.804688 41.097656 60.800781 41.132812 C 60.574219 41.382812 60.398438 41.667969 60.34375 42.03125 C 60.300781 42.289062 60.449219 42.875 60.699219 43.304688 C 60.839844 43.753906 61.207031 44.160156 61.609375 44.347656 C 61.726562 45.125 63.074219 44.691406 63.515625 44.554688 C 64.441406 44.277344 64.578125 43.617188 64.363281 42.742188 C 64.136719 41.835938 63.832031 40.816406 63.152344 40.140625 Z M 39.148438 33.039062 C 39.128906 33.042969 39.105469 33.046875 39.085938 33.050781 C 39.085938 33.050781 39.085938 33.050781 39.089844 33.050781 C 39.097656 33.0625 39.109375 33.074219 39.121094 33.085938 C 39.128906 33.070312 39.140625 33.054688 39.148438 33.039062 Z M 41.414062 34.617188 C 41.988281 36.898438 42.746094 39.144531 43.503906 41.367188 C 43.855469 42.394531 44.242188 43.429688 44.882812 44.316406 C 45.480469 45.136719 46.167969 45.859375 46.460938 46.855469 C 46.515625 47.042969 46.425781 47.273438 46.257812 47.367188 C 46 47.511719 45.726562 47.585938 45.429688 47.550781 C 45.40625 47.550781 45.355469 47.542969 45.300781 47.535156 C 45.289062 47.554688 45.273438 47.578125 45.257812 47.605469 C 45.238281 47.648438 45.214844 47.695312 45.191406 47.738281 C 44.9375 48.195312 44.496094 48.550781 43.945312 48.410156 C 43.511719 48.292969 43.195312 47.882812 43.320312 47.429688 C 43.386719 47.179688 43.566406 47.066406 43.707031 46.871094 C 43.800781 46.746094 43.765625 46.574219 43.746094 46.417969 C 43.617188 45.292969 43.226562 44.195312 42.816406 43.144531 C 42.386719 42.050781 41.917969 40.980469 41.546875 39.867188 C 41.214844 38.894531 40.910156 37.910156 40.601562 36.925781 C 40.234375 36.261719 39.789062 35.664062 39.183594 35.191406 C 39.027344 35.292969 38.839844 35.347656 38.636719 35.324219 C 37.460938 35.199219 37.746094 33.570312 37.953125 32.820312 C 37.996094 32.671875 38.148438 32.613281 38.277344 32.640625 C 38.53125 32.328125 38.988281 32.238281 39.382812 32.210938 C 39.574219 32.195312 39.710938 32.351562 39.773438 32.511719 C 39.738281 32.425781 39.933594 32.460938 40.019531 32.453125 C 40.15625 32.441406 40.285156 32.425781 40.425781 32.441406 C 40.691406 32.472656 40.933594 32.601562 41.078125 32.839844 C 41.246094 33.113281 41.269531 33.488281 41.316406 33.804688 C 41.355469 34.074219 41.394531 34.34375 41.414062 34.617188 Z M 8.191406 56.296875 C 8.226562 56.691406 8.246094 57.089844 8.5 57.402344 C 8.871094 57.867188 9.570312 57.90625 9.953125 57.449219 C 9.976562 57.421875 9.992188 57.390625 10.007812 57.351562 C 10.152344 57.328125 10.28125 57.261719 10.371094 57.136719 C 10.585938 56.839844 10.398438 56.445312 10.21875 56.171875 C 10.023438 55.875 9.726562 55.652344 9.394531 55.527344 C 8.980469 55.003906 8.578125 54.464844 8.199219 53.910156 C 8.078125 53.722656 7.953125 53.539062 7.824219 53.355469 C 7.253906 52.488281 6.722656 51.59375 6.242188 50.683594 C 5.738281 49.738281 5.28125 48.765625 4.886719 47.769531 C 4.695312 47.28125 4.554688 46.800781 4.46875 46.285156 C 4.386719 45.804688 4.269531 45.386719 3.894531 45.054688 C 3.757812 44.933594 3.523438 44.949219 3.382812 45.054688 C 3.257812 45.152344 3.128906 45.25 3.003906 45.347656 C 2.882812 45.441406 2.8125 45.617188 2.851562 45.773438 C 2.84375 45.777344 2.835938 45.785156 2.828125 45.792969 C 2.6875 45.71875 2.535156 45.664062 2.367188 45.667969 C 2.136719 45.675781 1.921875 45.804688 1.828125 46.023438 C 1.8125 46.058594 1.800781 46.09375 1.792969 46.128906 C 1.644531 46.222656 1.554688 46.460938 1.660156 46.640625 C 1.90625 47.058594 2.261719 47.410156 2.679688 47.65625 C 2.839844 47.800781 3.007812 47.945312 3.175781 48.085938 C 3.664062 48.503906 4.027344 48.945312 4.324219 49.515625 C 4.710938 50.25 5.113281 50.972656 5.542969 51.675781 C 5.902344 52.648438 6.421875 53.589844 6.933594 54.472656 C 7.234375 54.988281 7.570312 55.488281 7.929688 55.964844 C 8.015625 56.078125 8.101562 56.1875 8.191406 56.296875 Z M 4 42.984375 C 4.007812 42.980469 4.019531 42.976562 4.027344 42.96875 C 4.0625 42.949219 4.101562 42.929688 4.136719 42.914062 C 4.128906 42.902344 4.125 42.890625 4.121094 42.875 C 4.082031 42.914062 4.039062 42.949219 4 42.984375 Z M 2.929688 43.382812 C 2.832031 43.238281 2.847656 43.023438 2.964844 42.898438 C 3.753906 42.046875 4.773438 41.464844 5.605469 40.65625 C 6.4375 39.847656 7.15625 38.9375 7.859375 38.015625 C 9.257812 36.183594 10.652344 34.339844 12.132812 32.574219 C 12.074219 32.175781 12.375 31.644531 12.570312 31.382812 C 12.699219 31.207031 12.871094 31.046875 13.105469 31.046875 C 13.417969 31.046875 13.546875 31.316406 13.753906 31.496094 C 13.757812 31.5 13.761719 31.503906 13.769531 31.507812 C 13.777344 31.441406 13.8125 31.378906 13.878906 31.339844 C 14.21875 31.144531 14.625 31.285156 14.902344 31.535156 C 15.203125 31.808594 15.324219 32.238281 15.304688 32.632812 C 15.273438 33.300781 14.574219 34.371094 13.832031 33.757812 C 13.820312 33.75 13.8125 33.742188 13.800781 33.730469 C 13.789062 33.742188 13.773438 33.75 13.761719 33.757812 C 13.515625 33.894531 13.25 33.933594 12.980469 33.984375 C 12.671875 34.039062 12.515625 34.144531 12.355469 34.421875 C 12.316406 34.480469 12.273438 34.527344 12.21875 34.558594 C 11.996094 34.84375 11.753906 35.121094 11.507812 35.394531 C 10.617188 36.390625 9.746094 37.398438 8.9375 38.464844 C 8.160156 39.488281 7.550781 40.65625 6.609375 41.542969 C 6.421875 41.722656 6.234375 41.898438 6.042969 42.074219 C 6.082031 42.175781 6.082031 42.289062 6.023438 42.40625 C 5.75 42.957031 5.652344 43.582031 5.777344 44.191406 C 5.847656 44.519531 5.632812 44.773438 5.292969 44.742188 C 4.972656 44.710938 4.75 44.480469 4.617188 44.195312 C 4.546875 44.054688 4.523438 43.898438 4.457031 43.753906 C 4.449219 43.738281 4.429688 43.714844 4.414062 43.6875 C 4.394531 43.699219 4.375 43.707031 4.359375 43.71875 C 3.882812 44.042969 3.234375 43.832031 2.929688 43.382812 Z M 22.824219 32.421875 C 23.023438 32.679688 23.292969 32.652344 23.578125 32.707031 C 23.816406 32.753906 24.03125 32.867188 24.253906 32.960938 C 24.988281 33.269531 25.703125 33.238281 26.445312 33.164062 C 26.289062 32.949219 26.171875 32.71875 26.082031 32.476562 C 25.945312 32.460938 25.804688 32.4375 25.667969 32.421875 C 25.152344 32.351562 24.625 32.253906 24.128906 32.078125 C 23.839844 31.976562 23.554688 31.777344 23.355469 31.53125 C 23.339844 31.527344 23.324219 31.527344 23.308594 31.527344 C 23.117188 31.523438 22.925781 31.511719 22.734375 31.492188 C 22.671875 31.804688 22.589844 32.117188 22.824219 32.421875 Z M 25.171875 31.339844 C 25.371094 31.378906 25.570312 31.410156 25.773438 31.433594 C 25.796875 31.277344 25.867188 31.125 25.992188 30.996094 C 25.761719 31.164062 25.445312 31.273438 25.171875 31.339844 Z M 26.683594 42.921875 C 26.585938 42.976562 26.480469 43.027344 26.378906 43.089844 C 26.132812 43.242188 25.902344 43.414062 25.679688 43.597656 C 26.019531 43.355469 26.386719 43.179688 26.777344 43.121094 C 26.773438 43.082031 26.765625 43.039062 26.761719 42.996094 C 26.734375 42.976562 26.707031 42.949219 26.683594 42.921875 Z M 25.445312 42.597656 C 25.683594 42.425781 25.992188 42.175781 26.3125 42.058594 C 26.277344 41.878906 26.253906 41.691406 26.242188 41.515625 C 25.957031 41.765625 25.609375 41.972656 25.332031 42.183594 C 24.792969 42.589844 24.25 43.007812 23.683594 43.378906 C 22.632812 44.066406 21.1875 43.878906 19.996094 43.726562 C 19.070312 43.605469 17.832031 43.320312 17.183594 42.546875 C 17.242188 43.433594 17.382812 44.332031 18.019531 44.976562 C 18.800781 45.765625 20.03125 45.871094 21.082031 45.847656 C 21.796875 45.832031 22.402344 45.761719 22.925781 45.230469 C 23.355469 44.796875 23.699219 44.28125 24.105469 43.828125 C 24.511719 43.375 24.957031 42.960938 25.445312 42.597656 Z M 23.941406 45.511719 C 23.550781 45.980469 23.121094 46.402344 22.535156 46.613281 C 21.886719 46.847656 21.117188 46.828125 20.441406 46.789062 C 19.207031 46.714844 17.875 46.359375 17.113281 45.304688 C 17.328125 46.296875 17.5625 47.28125 18.113281 48.148438 C 18.453125 48.6875 19 49.351562 19.660156 49.476562 C 20.355469 49.609375 21.101562 49.054688 21.585938 48.613281 C 22.554688 47.730469 23.183594 46.5625 23.941406 45.511719 Z M 26.324219 39.019531 C 26.355469 38.765625 26.386719 38.511719 26.421875 38.257812 C 26.117188 38.371094 25.792969 38.449219 25.492188 38.515625 C 24.964844 38.628906 24.484375 38.710938 23.941406 38.683594 C 22.902344 38.625 21.898438 38.308594 20.957031 37.875 C 20.269531 37.5625 19.542969 37.152344 19.207031 36.464844 C 18.980469 37.386719 18.21875 38.355469 18.933594 39.269531 C 19.464844 39.945312 20.539062 40.136719 21.328125 40.285156 C 22.3125 40.46875 23.335938 40.449219 24.289062 40.128906 C 24.722656 39.980469 25.132812 39.769531 25.511719 39.511719 C 25.789062 39.324219 26.011719 39.066406 26.324219 39.019531 Z M 28.492188 33.984375 C 28.507812 34.398438 28.523438 34.8125 28.539062 35.230469 C 28.839844 35.355469 29.101562 35.460938 29.449219 35.480469 C 29.890625 35.507812 30.335938 35.511719 30.777344 35.523438 C 31.652344 35.550781 32.550781 35.636719 33.425781 35.582031 C 34.140625 35.53125 35.109375 35.21875 35.207031 34.375 C 35.253906 33.980469 35.019531 33.570312 34.761719 33.285156 C 34.679688 33.195312 34.582031 33.125 34.496094 33.046875 C 34.359375 33.558594 34 33.996094 33.5 34.214844 C 33.066406 34.402344 32.585938 34.429688 32.125 34.484375 C 31.546875 34.550781 30.964844 34.605469 30.382812 34.554688 C 29.792969 34.503906 29.027344 34.355469 28.492188 33.984375 Z M 28.683594 33.148438 C 29.199219 33.246094 29.703125 33.46875 30.230469 33.53125 C 31 33.621094 31.785156 33.539062 32.546875 33.429688 C 33.101562 33.347656 33.652344 33.089844 33.578125 32.425781 C 33.546875 32.125 33.308594 31.898438 33.136719 31.667969 C 32.957031 31.429688 32.789062 31.1875 32.628906 30.9375 C 32.601562 30.945312 32.574219 30.949219 32.550781 30.957031 C 32.519531 30.960938 32.492188 30.96875 32.464844 30.976562 C 32.378906 31.601562 31.730469 31.984375 31.167969 32.253906 C 30.484375 32.578125 29.753906 32.738281 29.015625 32.675781 C 28.9375 32.851562 28.824219 33.007812 28.683594 33.148438 Z M 34.257812 36.300781 C 33.152344 36.597656 31.90625 36.414062 30.777344 36.378906 C 30.140625 36.359375 29.238281 36.441406 28.578125 36.164062 L 28.613281 36.984375 C 28.683594 36.980469 28.757812 36.988281 28.824219 37.023438 C 29.171875 37.210938 29.460938 37.507812 29.808594 37.703125 C 30.152344 37.894531 30.511719 38.027344 30.890625 38.117188 C 31.722656 38.3125 32.597656 38.242188 33.425781 38.054688 C 33.871094 37.953125 34.3125 37.820312 34.746094 37.667969 C 35.097656 37.546875 35.496094 37.414062 35.757812 37.132812 C 36.242188 36.609375 36.109375 35.722656 35.832031 35.085938 C 35.539062 35.699219 34.90625 36.125 34.257812 36.300781 Z M 34.160156 38.902344 C 33.035156 39.210938 31.84375 39.351562 30.691406 39.097656 C 30.015625 38.949219 29.183594 38.628906 28.65625 38.085938 C 28.671875 38.4375 28.683594 38.789062 28.699219 39.140625 C 28.796875 39.160156 28.894531 39.214844 28.960938 39.308594 C 30.140625 40.96875 32.425781 40.828125 34.226562 40.660156 C 35.140625 40.570312 36.28125 40.457031 36.832031 39.609375 C 37.132812 39.148438 37.058594 38.542969 36.976562 38.03125 C 36.941406 37.800781 36.867188 37.53125 36.84375 37.269531 C 36.839844 37.277344 36.839844 37.28125 36.835938 37.285156 C 36.378906 38.300781 35.144531 38.632812 34.160156 38.902344 Z M 34.648438 41.453125 C 33.15625 41.617188 30.839844 41.929688 29.378906 41.082031 C 29.414062 41.140625 29.453125 41.199219 29.492188 41.25 C 29.785156 41.632812 30.148438 41.980469 30.535156 42.265625 C 31.007812 42.613281 31.53125 42.816406 32.097656 42.964844 C 32.644531 43.109375 33.230469 43.273438 33.800781 43.292969 C 34.867188 43.328125 36.054688 42.8125 36.789062 42.035156 C 37.316406 41.472656 37.53125 40.792969 37.515625 40.082031 C 36.921875 41.074219 35.714844 41.335938 34.648438 41.453125 Z M 34.359375 44.371094 C 33.601562 44.472656 32.84375 44.3125 32.101562 44.152344 C 31.382812 44 30.679688 43.75 30.070312 43.328125 C 30 43.28125 29.933594 43.230469 29.867188 43.179688 C 30.164062 43.539062 30.476562 43.886719 30.820312 44.199219 C 31.71875 45.019531 32.761719 45.355469 33.972656 45.316406 C 34.976562 45.285156 36.289062 45.1875 37.046875 44.433594 C 37.59375 43.894531 37.707031 43.132812 37.757812 42.378906 C 36.980469 43.476562 35.683594 44.195312 34.359375 44.371094 Z M 34.464844 46.332031 C 33.203125 46.441406 32.015625 46.257812 30.960938 45.621094 C 31.054688 45.742188 31.144531 45.867188 31.238281 45.992188 C 31.992188 47.011719 32.679688 48.144531 34.03125 48.355469 C 35.132812 48.53125 36.261719 48.066406 36.972656 47.21875 C 37.476562 46.621094 37.710938 45.875 37.824219 45.109375 C 36.976562 46.011719 35.644531 46.230469 34.464844 46.332031 Z M 13.535156 29.574219 C 13.75 29.027344 14.335938 28.875 14.859375 28.742188 C 15.394531 28.605469 15.960938 28.527344 16.515625 28.515625 C 17.6875 28.488281 18.773438 28.796875 19.796875 29.355469 C 20.820312 29.914062 21.835938 30.371094 23.011719 30.476562 C 23.058594 30.480469 23.109375 30.484375 23.15625 30.488281 C 23.191406 30.40625 23.238281 30.328125 23.296875 30.25 C 23.375 30.152344 23.582031 30.128906 23.605469 30.289062 C 23.617188 30.371094 23.636719 30.441406 23.660156 30.507812 C 24.015625 30.511719 24.375 30.492188 24.726562 30.441406 C 25.171875 30.382812 25.769531 30.226562 26.195312 30.410156 C 26.300781 30.457031 26.320312 30.605469 26.269531 30.699219 C 26.230469 30.769531 26.179688 30.835938 26.117188 30.894531 C 26.3125 30.777344 26.546875 30.804688 26.726562 30.960938 C 26.984375 31.183594 27.441406 31.445312 27.722656 31.15625 C 27.84375 31.03125 28.023438 31.003906 28.175781 31.058594 C 28.339844 31.011719 28.519531 31.042969 28.609375 31.199219 C 28.828125 31.320312 28.988281 31.539062 29.066406 31.785156 C 29.558594 31.847656 30.027344 31.808594 30.53125 31.671875 C 30.945312 31.5625 31.578125 31.449219 31.898438 31.105469 C 31.074219 31.296875 30.207031 31.488281 29.386719 31.410156 C 29.011719 31.375 28.828125 30.886719 29.1875 30.671875 C 30.195312 30.070312 31.503906 29.867188 32.632812 29.617188 C 33.234375 29.484375 33.847656 29.449219 34.449219 29.339844 C 35.015625 29.234375 35.574219 29.101562 36.136719 28.992188 C 37.199219 28.785156 38.285156 28.667969 39.359375 28.847656 C 40.226562 28.988281 41.234375 29.359375 41.808594 30.054688 C 42.238281 30.574219 41.582031 31.25 41.070312 30.796875 C 40.40625 30.214844 39.71875 29.875 38.828125 29.785156 C 37.792969 29.683594 36.738281 29.859375 35.726562 30.085938 C 34.941406 30.261719 34.183594 30.515625 33.417969 30.734375 C 33.957031 31.160156 34.46875 31.660156 34.550781 32.363281 C 34.554688 32.386719 34.554688 32.414062 34.554688 32.441406 C 34.617188 32.453125 34.671875 32.476562 34.707031 32.519531 C 34.734375 32.519531 34.769531 32.539062 34.808594 32.582031 C 34.847656 32.601562 34.886719 32.621094 34.925781 32.640625 C 35.023438 32.703125 35.117188 32.765625 35.210938 32.835938 C 35.375 32.960938 35.53125 33.101562 35.652344 33.273438 C 35.878906 33.589844 36.003906 33.980469 36 34.367188 C 36.074219 34.367188 36.148438 34.398438 36.210938 34.464844 C 36.820312 35.09375 37.160156 35.964844 36.984375 36.820312 C 37.183594 37.019531 37.277344 37.347656 37.386719 37.601562 C 37.503906 37.878906 37.613281 38.15625 37.699219 38.445312 C 37.75 38.613281 37.78125 38.78125 37.789062 38.949219 C 38.378906 39.5625 38.464844 40.464844 38.257812 41.277344 C 38.601562 42.195312 38.734375 43.277344 38.390625 44.199219 C 38.761719 45.363281 38.425781 46.671875 37.757812 47.664062 C 37 48.789062 35.753906 49.457031 34.394531 49.453125 C 32.835938 49.449219 31.808594 48.570312 30.953125 47.34375 C 30.042969 46.039062 29.117188 44.738281 28.277344 43.386719 C 28.175781 43.71875 28.054688 44.050781 27.910156 44.382812 C 27.730469 44.789062 27.007812 44.691406 26.941406 44.253906 C 26.921875 44.148438 26.910156 44.035156 26.890625 43.925781 C 26.492188 44.222656 26.074219 44.480469 25.710938 44.839844 C 25.234375 45.3125 24.832031 45.855469 24.453125 46.414062 C 23.804688 47.375 23.199219 48.386719 22.355469 49.191406 C 21.554688 49.957031 20.34375 50.75 19.199219 50.332031 C 18.066406 49.914062 17.304688 48.742188 16.875 47.667969 C 16.378906 46.425781 16.28125 45.03125 16.441406 43.714844 C 16.449219 43.664062 16.476562 43.625 16.511719 43.601562 C 16.445312 42.875 16.554688 42.117188 16.726562 41.421875 C 16.738281 41.382812 16.753906 41.351562 16.777344 41.328125 C 16.785156 41.058594 16.835938 40.785156 16.894531 40.519531 C 17.039062 39.84375 17.230469 39.152344 17.644531 38.601562 C 17.683594 38.550781 17.765625 38.550781 17.785156 38.621094 C 17.9375 39.179688 17.894531 39.730469 17.832031 40.304688 C 17.777344 40.765625 17.550781 41.386719 17.8125 41.816406 C 18.0625 42.226562 18.65625 42.445312 19.089844 42.578125 C 19.582031 42.730469 20.09375 42.800781 20.605469 42.839844 C 21.144531 42.878906 21.703125 42.921875 22.242188 42.890625 C 22.804688 42.855469 23.191406 42.574219 23.632812 42.257812 C 24.109375 41.910156 24.589844 41.574219 25.074219 41.242188 C 25.425781 41 25.792969 40.675781 26.214844 40.570312 C 26.21875 40.445312 26.222656 40.320312 26.226562 40.195312 C 26.039062 40.328125 25.835938 40.441406 25.6875 40.527344 C 25.207031 40.808594 24.675781 41.027344 24.128906 41.164062 C 22.917969 41.46875 21.742188 41.292969 20.546875 40.992188 C 19.5625 40.742188 18.457031 40.351562 18.011719 39.34375 C 17.5625 38.316406 17.933594 36.804688 18.769531 36.0625 C 18.859375 35.984375 18.960938 35.96875 19.050781 36 C 18.925781 35.347656 19.1875 34.066406 19.929688 33.851562 C 20.03125 33.824219 20.132812 33.90625 20.136719 34.015625 C 20.144531 34.339844 19.917969 34.640625 19.816406 34.949219 C 19.699219 35.316406 19.625 35.746094 19.816406 36.105469 C 20.160156 36.75 21.296875 36.929688 21.941406 37.085938 C 22.71875 37.273438 23.511719 37.40625 24.3125 37.414062 C 24.703125 37.417969 25.101562 37.460938 25.488281 37.394531 C 25.8125 37.335938 26.117188 37.21875 26.425781 37.125 C 26.429688 37 26.429688 36.867188 26.433594 36.738281 C 26.4375 36.617188 26.4375 36.492188 26.4375 36.367188 C 26.058594 36.558594 25.667969 36.648438 25.242188 36.675781 C 24.28125 36.742188 23.375 36.4375 22.570312 35.929688 C 21.90625 35.507812 20.960938 34.992188 20.625 34.246094 C 20.265625 33.457031 20.730469 32.621094 21.269531 32.046875 C 21.535156 31.761719 22.023438 32.136719 21.8125 32.46875 C 21.425781 33.0625 20.980469 33.742188 21.757812 34.230469 C 22.34375 34.59375 23.015625 34.871094 23.675781 35.082031 C 24.351562 35.296875 24.960938 35.382812 25.671875 35.347656 C 25.929688 35.332031 26.191406 35.3125 26.449219 35.296875 C 26.460938 35.019531 26.484375 34.742188 26.523438 34.46875 C 26.542969 34.363281 26.566406 34.257812 26.59375 34.15625 C 25.640625 34.613281 24.363281 34.382812 23.492188 33.820312 C 22.929688 33.457031 22.296875 33.304688 22.027344 32.625 C 21.902344 32.308594 21.851562 31.792969 21.960938 31.375 C 21.339844 31.25 20.734375 31.054688 20.160156 30.785156 C 19.628906 30.535156 19.136719 30.199219 18.589844 29.972656 C 18.054688 29.75 17.472656 29.636719 16.894531 29.617188 C 16.332031 29.601562 15.777344 29.660156 15.226562 29.789062 C 14.714844 29.910156 14.195312 30.167969 13.683594 29.9375 C 13.566406 29.886719 13.488281 29.695312 13.535156 29.574219 Z M 26.007812 47.269531 C 25.992188 47.5 26.222656 47.660156 26.445312 47.675781 C 26.941406 47.714844 27.460938 47.773438 27.960938 47.75 C 28.535156 47.722656 28.664062 47.320312 28.523438 46.867188 C 28.515625 46.839844 28.507812 46.808594 28.5 46.777344 C 28.53125 46.746094 28.558594 46.707031 28.582031 46.660156 C 28.75 46.328125 28.441406 46.027344 28.152344 46.023438 C 28.09375 45.980469 28.023438 45.949219 27.941406 45.929688 C 27.765625 45.890625 27.617188 45.941406 27.457031 45.980469 C 27.320312 45.949219 27.183594 45.914062 27.042969 45.890625 C 26.722656 45.839844 26.410156 45.875 26.179688 46.101562 C 26.070312 46.207031 26.035156 46.359375 26.0625 46.5 C 26.0625 46.503906 26.058594 46.511719 26.058594 46.515625 C 26.042969 46.769531 26.023438 47.019531 26.007812 47.269531 Z M 26.214844 50.085938 C 26.46875 50.203125 26.832031 50.214844 27.109375 50.203125 C 27.285156 50.195312 27.464844 50.164062 27.632812 50.109375 C 27.746094 50.074219 27.917969 49.945312 28.042969 49.980469 C 28.328125 50.054688 28.648438 49.839844 28.640625 49.558594 C 28.628906 49.265625 28.621094 48.972656 28.613281 48.683594 C 28.605469 48.5 28.503906 48.375 28.367188 48.316406 C 28.324219 48.285156 28.277344 48.257812 28.222656 48.242188 C 27.917969 48.148438 27.585938 48.222656 27.269531 48.261719 C 26.949219 48.296875 26.625 48.34375 26.304688 48.398438 C 26.109375 48.429688 25.90625 48.660156 25.933594 48.847656 C 25.9375 48.886719 25.945312 48.925781 25.957031 48.960938 C 25.761719 49.375 25.699219 49.847656 26.214844 50.085938 Z M 25.734375 52 C 26.28125 52.285156 26.953125 52.019531 27.546875 52.035156 C 27.835938 52.042969 28.113281 52.113281 28.355469 51.925781 C 28.632812 51.71875 28.566406 51.367188 28.554688 51.074219 C 28.546875 50.851562 28.355469 50.65625 28.105469 50.65625 C 28.023438 50.660156 27.9375 50.65625 27.855469 50.652344 C 27.777344 50.589844 27.675781 50.554688 27.554688 50.5625 C 27.375 50.570312 27.199219 50.582031 27.023438 50.59375 C 26.765625 50.574219 26.507812 50.566406 26.25 50.59375 C 26.152344 50.605469 26.066406 50.636719 25.996094 50.679688 C 25.917969 50.703125 25.851562 50.765625 25.839844 50.839844 C 25.730469 51.011719 25.730469 51.230469 25.839844 51.382812 C 25.550781 51.46875 25.417969 51.832031 25.734375 52 Z M 26.398438 54.019531 C 26.347656 54.082031 26.515625 54.042969 26.59375 54.046875 C 26.742188 54.058594 26.894531 54.082031 27.046875 54.09375 C 27.398438 54.121094 27.753906 54.140625 28.105469 54.148438 C 28.429688 54.152344 28.628906 53.859375 28.5625 53.589844 C 28.503906 53.339844 28.449219 53.089844 28.386719 52.84375 C 28.375 52.800781 28.359375 52.765625 28.339844 52.730469 C 28.34375 52.476562 28.121094 52.222656 27.792969 52.320312 C 27.160156 52.507812 26.515625 52.355469 25.867188 52.476562 C 25.429688 52.5625 25.464844 53.070312 25.757812 53.273438 C 25.777344 53.289062 25.800781 53.300781 25.820312 53.316406 C 25.804688 53.425781 25.761719 53.527344 25.683594 53.632812 C 25.378906 54.042969 26.089844 54.410156 26.398438 54.019531 Z M 25.84375 55.730469 C 25.445312 56 25.667969 56.59375 26.1875 56.488281 C 26.570312 56.410156 26.949219 56.367188 27.339844 56.371094 C 27.679688 56.375 28.027344 56.453125 28.359375 56.355469 C 28.644531 56.269531 28.847656 56.035156 28.84375 55.753906 C 28.84375 55.476562 28.515625 55.265625 28.578125 55.007812 C 28.648438 54.738281 28.398438 54.472656 28.132812 54.453125 C 28.09375 54.445312 28.054688 54.4375 28.015625 54.4375 C 27.394531 54.425781 26.785156 54.449219 26.164062 54.394531 C 25.738281 54.359375 25.535156 54.910156 25.820312 55.164062 C 25.855469 55.191406 25.890625 55.21875 25.925781 55.246094 C 25.921875 55.300781 25.914062 55.351562 25.910156 55.410156 C 25.90625 55.480469 25.921875 55.675781 25.84375 55.730469 Z M 30.277344 61.324219 C 30.203125 61.472656 30.03125 61.578125 29.875 61.578125 C 29.546875 61.570312 29.203125 61.566406 28.886719 61.675781 C 28.535156 61.800781 28.445312 62.054688 28.378906 62.402344 C 28.300781 62.800781 28.214844 63.179688 27.910156 63.476562 C 27.851562 63.53125 27.789062 63.582031 27.722656 63.625 C 27.769531 63.6875 27.808594 63.753906 27.835938 63.832031 C 27.867188 63.929688 27.882812 64.03125 27.875 64.132812 C 27.878906 64.183594 27.875 64.230469 27.863281 64.277344 C 28.316406 64.117188 28.746094 63.917969 29.183594 63.695312 C 29.199219 63.648438 29.222656 63.601562 29.257812 63.5625 C 29.496094 63.285156 29.714844 63 29.921875 62.703125 C 30.089844 62.457031 30.304688 62.183594 30.390625 61.894531 C 30.457031 61.667969 30.398438 61.480469 30.277344 61.324219 Z M 29.546875 64.945312 C 29.527344 64.820312 29.5 64.695312 29.464844 64.570312 C 29.289062 64.667969 29.019531 64.777344 28.964844 64.808594 C 28.761719 64.914062 28.566406 65.023438 28.367188 65.128906 C 28.347656 65.253906 28.332031 65.378906 28.316406 65.503906 C 28.332031 65.523438 28.347656 65.546875 28.363281 65.570312 C 28.492188 65.820312 28.636719 66.0625 28.796875 66.292969 C 28.867188 66.390625 29.074219 66.753906 29.210938 66.746094 C 29.46875 66.738281 29.554688 65.914062 29.570312 65.730469 C 29.59375 65.472656 29.585938 65.203125 29.546875 64.945312 Z M 25.726562 63.675781 C 25.644531 63.566406 25.625 63.433594 25.585938 63.304688 C 25.5 63.03125 25.390625 62.769531 25.257812 62.511719 C 25.125 62.261719 24.976562 62.011719 24.816406 61.773438 C 24.734375 61.652344 24.582031 61.347656 24.425781 61.203125 C 24.257812 61.210938 24.085938 61.207031 23.921875 61.242188 C 23.546875 61.324219 23.242188 61.566406 23.386719 61.980469 C 23.410156 62.050781 23.441406 62.117188 23.480469 62.183594 C 23.5625 62.269531 23.648438 62.351562 23.730469 62.433594 C 23.875 62.578125 24.015625 62.738281 24.164062 62.890625 C 24.210938 62.921875 24.261719 62.953125 24.308594 62.976562 C 24.683594 63.179688 25.007812 63.382812 24.921875 63.851562 C 25.042969 63.921875 25.164062 63.988281 25.292969 64.046875 C 25.304688 64.050781 25.316406 64.054688 25.332031 64.058594 C 25.34375 64.035156 25.359375 64.011719 25.378906 63.988281 C 25.480469 63.863281 25.597656 63.757812 25.726562 63.675781 Z M 24.25 65.078125 C 24.15625 64.914062 24.09375 64.730469 23.96875 64.578125 C 23.8125 64.390625 23.605469 64.234375 23.375 64.148438 C 23.269531 64.109375 23.15625 64.082031 23.042969 64.070312 C 23.015625 64.070312 22.992188 64.074219 22.972656 64.074219 C 22.976562 64.113281 22.96875 64.164062 22.96875 64.175781 C 22.972656 64.476562 22.976562 64.78125 23.003906 65.085938 C 23.042969 65.496094 23.289062 66.386719 23.882812 66.222656 C 24.136719 66.148438 24.238281 65.914062 24.234375 65.671875 C 24.234375 65.472656 24.238281 65.277344 24.25 65.078125 Z M 32.59375 62.25 C 32.570312 62.550781 32.609375 62.84375 32.570312 63.140625 C 32.675781 63.167969 32.769531 63.230469 32.832031 63.335938 C 33.144531 63.886719 32.792969 64.378906 32.449219 64.804688 C 32.15625 65.167969 31.839844 65.511719 31.441406 65.753906 C 31.441406 66.515625 31.269531 67.277344 30.707031 67.839844 C 30.132812 68.410156 29.300781 68.601562 28.558594 68.25 C 27.824219 67.902344 27.421875 67.203125 27.140625 66.472656 C 27.023438 66.167969 26.839844 65.648438 26.445312 65.628906 C 26.261719 65.621094 26.089844 65.734375 25.90625 65.742188 C 25.835938 65.746094 25.765625 65.738281 25.695312 65.726562 C 25.355469 66.421875 24.925781 67.105469 24.347656 67.582031 C 23.542969 68.25 22.476562 68.179688 21.789062 67.378906 C 21.496094 67.035156 21.3125 66.613281 21.203125 66.179688 C 21.148438 65.949219 21.113281 65.71875 21.078125 65.484375 C 21.054688 65.324219 21.0625 65.058594 20.960938 64.921875 C 20.839844 64.761719 20.5625 64.675781 20.40625 64.550781 C 20.253906 64.429688 20.125 64.285156 20.023438 64.121094 C 19.820312 63.789062 19.734375 63.386719 19.78125 63 C 19.8125 62.753906 19.894531 62.535156 20.015625 62.316406 C 20.105469 62.160156 20.257812 61.996094 20.289062 61.816406 C 20.351562 61.464844 19.921875 61.203125 19.679688 61.03125 C 19.285156 60.75 18.921875 60.460938 18.695312 60.027344 C 18.507812 59.652344 18.410156 59.234375 18.402344 58.8125 C 18.390625 58.300781 18.511719 57.78125 18.6875 57.300781 C 18.84375 56.886719 19.015625 56.414062 19.339844 56.089844 C 19.953125 55.484375 20.996094 55.546875 21.785156 55.601562 C 22.734375 55.671875 23.542969 56.039062 24.203125 56.726562 C 24.515625 57.050781 24.789062 57.425781 25.03125 57.808594 C 25.160156 58.015625 25.289062 58.3125 25.484375 58.5 C 25.539062 58.492188 25.589844 58.496094 25.644531 58.519531 C 26.464844 58.851562 27.429688 58.757812 28.15625 58.269531 C 28.210938 58.207031 28.273438 58.148438 28.332031 58.09375 C 28.625 57.828125 28.921875 57.566406 29.214844 57.300781 C 29.75 56.820312 30.300781 56.320312 31.011719 56.140625 C 32.371094 55.800781 33.785156 56.394531 34.566406 57.535156 C 35.253906 58.546875 35.511719 60.277344 34.398438 61.09375 C 33.976562 61.410156 33.453125 61.472656 32.988281 61.695312 C 32.734375 61.820312 32.617188 61.957031 32.59375 62.25 Z M 39.699219 66.304688 C 39.730469 66.320312 39.765625 66.335938 39.800781 66.351562 C 41.117188 67.027344 42.320312 67.949219 43.535156 68.789062 C 44.824219 69.679688 46.238281 70.453125 47.320312 71.640625 C 47.855469 72.230469 48.320312 72.914062 48.757812 73.601562 C 48.929688 73.875 49.09375 74.160156 49.175781 74.492188 C 49.265625 74.855469 49.265625 75.242188 49.445312 75.5625 C 49.625 75.886719 49.921875 76.097656 50.210938 76.285156 C 50.492188 76.464844 50.839844 76.554688 51.160156 76.292969 C 51.421875 76.078125 51.558594 75.742188 51.617188 75.414062 C 51.695312 74.984375 51.722656 74.777344 52.046875 74.476562 C 52.558594 73.988281 53.183594 73.386719 52.859375 72.636719 C 52.558594 71.945312 51.847656 71.972656 51.214844 72.195312 C 50.445312 71.582031 49.601562 71.085938 48.789062 70.53125 C 47.824219 69.871094 46.878906 69.171875 45.929688 68.480469 C 45.816406 68.398438 45.703125 68.316406 45.589844 68.234375 C 45.410156 68.097656 45.230469 67.964844 45.042969 67.839844 C 44.394531 67.371094 43.742188 66.910156 43.074219 66.46875 C 42.4375 66.050781 41.789062 65.617188 41.117188 65.246094 C 41.097656 65.199219 41.070312 65.160156 41.023438 65.125 C 40.476562 64.722656 39.898438 64.359375 39.300781 64.039062 C 39.316406 63.949219 39.300781 63.851562 39.238281 63.753906 C 38.578125 62.753906 37.859375 61.734375 36.703125 61.417969 C 36.261719 61.296875 35.625 61.242188 35.183594 61.582031 C 34.941406 61.765625 34.796875 62.042969 34.652344 62.316406 C 34.5 62.613281 34.363281 62.90625 34.234375 63.207031 C 34.082031 63.246094 33.933594 63.378906 33.902344 63.589844 C 33.863281 63.871094 34.042969 64.113281 34.171875 64.3125 C 34.332031 64.550781 34.515625 64.769531 34.761719 64.902344 C 34.980469 65.019531 35.230469 65.050781 35.488281 65 C 35.792969 64.933594 36.074219 64.871094 36.34375 65.023438 C 36.835938 65.300781 37.015625 66.03125 37.679688 65.96875 C 37.847656 65.953125 37.964844 65.796875 38 65.632812 C 38.511719 65.945312 39.070312 66.179688 39.660156 66.300781 C 39.671875 66.304688 39.6875 66.304688 39.699219 66.304688 Z M 20.183594 82.53125 C 20.207031 82.53125 20.230469 82.535156 20.257812 82.539062 C 20.25 82.523438 20.238281 82.511719 20.230469 82.5 C 20.214844 82.507812 20.199219 82.511719 20.183594 82.519531 C 20.183594 82.523438 20.183594 82.527344 20.183594 82.53125 Z M 18.605469 67.160156 C 18.617188 67.1875 18.621094 67.21875 18.613281 67.253906 C 18.300781 69.421875 18.472656 71.613281 18.824219 73.769531 C 19 74.832031 19.214844 75.886719 19.433594 76.9375 C 19.53125 77.40625 19.609375 77.871094 19.699219 78.339844 C 19.8125 78.46875 19.898438 78.621094 19.972656 78.753906 C 20.117188 79.042969 20.269531 79.328125 20.425781 79.617188 C 20.714844 80.148438 21.042969 80.667969 21.402344 81.171875 C 21.574219 81.410156 21.738281 81.644531 21.914062 81.878906 C 22.0625 82.074219 22.234375 82.257812 22.339844 82.476562 C 22.542969 82.90625 22.382812 83.386719 21.933594 83.664062 C 21.472656 83.945312 20.941406 83.84375 20.445312 83.695312 C 20.195312 83.617188 19.957031 83.527344 19.695312 83.617188 C 19.445312 83.703125 19.257812 83.84375 18.980469 83.871094 C 18.464844 83.929688 18.027344 83.628906 17.894531 83.21875 C 17.753906 82.785156 17.902344 82.308594 17.957031 81.875 C 18.03125 81.289062 18.050781 80.703125 18.078125 80.113281 C 18.09375 79.824219 18.09375 79.535156 18.105469 79.25 C 18.023438 79.070312 17.992188 78.875 17.945312 78.6875 C 17.875 78.429688 17.804688 78.167969 17.734375 77.90625 C 17.605469 77.421875 17.472656 76.9375 17.347656 76.449219 C 17.09375 75.476562 16.855469 74.5 16.691406 73.515625 C 16.53125 72.546875 16.429688 71.5625 16.449219 70.589844 C 16.464844 70.074219 16.496094 69.5625 16.5625 69.054688 C 16.578125 68.949219 16.589844 68.84375 16.605469 68.742188 C 16.40625 67.886719 16.3125 67.003906 16.167969 66.140625 C 16.097656 65.742188 16.035156 65.398438 15.761719 65.058594 C 15.523438 64.757812 15.296875 64.472656 15.273438 64.101562 C 15.226562 63.394531 15.921875 62.792969 16.667969 62.574219 C 16.960938 62.484375 17.324219 62.449219 17.605469 62.589844 C 17.742188 62.660156 17.863281 62.78125 17.902344 62.914062 C 17.929688 62.992188 17.902344 63.097656 17.898438 63.1875 C 17.945312 63.210938 17.988281 63.242188 18.019531 63.292969 C 18.117188 63.433594 18.28125 63.726562 18.53125 63.691406 C 18.75 63.664062 18.964844 63.765625 18.96875 63.972656 C 18.972656 64.3125 18.976562 64.65625 18.992188 64.996094 C 19 65.132812 19.003906 65.277344 19.066406 65.40625 C 19.121094 65.519531 19.230469 65.609375 19.296875 65.71875 C 19.429688 65.953125 19.402344 66.207031 19.25 66.429688 C 19.125 66.605469 18.898438 66.742188 18.832031 66.941406 C 18.796875 67.046875 18.710938 67.121094 18.605469 67.160156 Z M 47.578125 101.628906 C 47.453125 101.046875 47.453125 100.492188 47.1875 99.945312 C 47.019531 99.605469 46.851562 99.3125 46.75 98.945312 C 46.695312 98.753906 46.632812 98.5625 46.554688 98.378906 C 46.378906 97.214844 46.09375 96.0625 45.261719 95.222656 C 45.25 95.132812 45.234375 95.042969 45.207031 94.957031 C 45.058594 94.460938 44.609375 94.070312 44.277344 93.695312 C 43.859375 93.226562 43.417969 92.773438 43.015625 92.289062 C 42.925781 92.175781 42.710938 92.105469 42.570312 92.160156 C 42.523438 92.085938 42.449219 92.03125 42.347656 92.019531 C 41.996094 91.984375 41.492188 92.070312 41.179688 91.871094 C 40.867188 91.671875 40.730469 91.421875 40.324219 91.410156 C 39.566406 91.390625 39.117188 92.132812 38.859375 92.742188 C 38.613281 93.324219 38.4375 94.171875 39.242188 94.382812 C 39.503906 94.449219 39.859375 94.273438 40.074219 94.367188 C 40.207031 94.421875 40.324219 94.628906 40.453125 94.707031 C 40.519531 94.746094 40.582031 94.773438 40.648438 94.792969 C 40.671875 94.925781 40.714844 95.054688 40.78125 95.167969 C 40.945312 95.46875 41.210938 95.675781 41.507812 95.832031 C 41.777344 95.980469 42.289062 96.105469 42.390625 96.429688 C 42.441406 96.585938 42.53125 96.699219 42.636719 96.773438 C 42.664062 96.875 42.699219 96.976562 42.753906 97.085938 C 42.890625 97.367188 43.078125 97.632812 43.25 97.894531 C 43.585938 98.398438 43.878906 98.929688 44.160156 99.46875 C 44.578125 100.28125 44.835938 101.292969 45.578125 101.816406 C 45.652344 101.917969 45.730469 102.015625 45.816406 102.113281 C 45.796875 102.222656 45.828125 102.339844 45.949219 102.433594 C 46.285156 102.707031 46.613281 102.949219 46.992188 103.164062 C 46.992188 103.164062 46.996094 103.167969 46.996094 103.167969 C 47.167969 103.292969 47.339844 103.417969 47.5 103.5625 C 47.816406 103.851562 48.242188 103.578125 48.191406 103.179688 C 48.117188 102.628906 47.695312 102.175781 47.578125 101.628906 Z M 24.59375 104.019531 C 24.207031 103.929688 23.890625 103.476562 23.601562 103.230469 C 23.519531 103.160156 23.417969 103.144531 23.328125 103.164062 C 23.265625 103.015625 23.050781 102.902344 22.894531 102.914062 C 22.222656 102.964844 21.542969 102.96875 20.871094 102.996094 C 20.332031 103.019531 19.695312 102.964844 19.199219 103.222656 C 19.117188 103.265625 19.035156 103.320312 18.957031 103.378906 C 17.691406 103.363281 16.589844 104.007812 15.5625 104.746094 C 15.363281 104.824219 15.171875 104.914062 14.984375 105.019531 C 14.625 105.214844 14.273438 105.304688 13.886719 105.429688 C 13.265625 105.628906 12.835938 106.046875 12.296875 106.386719 C 11.789062 106.707031 11.125 106.71875 10.648438 107.078125 C 10.304688 107.335938 10.410156 107.867188 10.867188 107.894531 C 11.101562 107.910156 11.328125 107.949219 11.550781 107.988281 C 11.554688 107.988281 11.554688 107.992188 11.558594 107.992188 C 12.007812 108.121094 12.4375 108.195312 12.902344 108.25 C 13.0625 108.269531 13.175781 108.207031 13.246094 108.109375 C 13.382812 108.105469 13.519531 108.09375 13.652344 108.074219 C 14.613281 108.257812 15.578125 107.695312 16.519531 107.410156 C 17.140625 107.222656 17.769531 107.050781 18.410156 106.933594 C 18.742188 106.871094 19.082031 106.816406 19.40625 106.710938 C 19.53125 106.671875 19.636719 106.621094 19.734375 106.566406 C 19.871094 106.59375 20.023438 106.578125 20.179688 106.5 C 20.507812 106.335938 20.988281 106.636719 21.300781 106.738281 C 21.644531 106.84375 22.003906 106.894531 22.355469 106.800781 C 22.492188 106.765625 22.625 106.703125 22.746094 106.621094 C 22.808594 106.65625 22.878906 106.6875 22.953125 106.707031 C 23.113281 106.75 23.359375 106.683594 23.5 106.742188 C 23.734375 106.84375 23.867188 107.25 24.113281 107.398438 C 24.878906 107.863281 25.398438 107.089844 25.660156 106.46875 C 25.9375 105.8125 26.167969 104.910156 25.589844 104.339844 C 25.273438 104.03125 24.980469 104.113281 24.59375 104.019531 Z M 51.171875 81.152344 C 51.195312 81.128906 51.222656 81.105469 51.246094 81.082031 C 51.238281 81.078125 51.234375 81.070312 51.226562 81.066406 C 51.207031 81.09375 51.191406 81.125 51.171875 81.152344 Z M 54.839844 80.695312 C 54.71875 80.703125 54.566406 80.667969 54.453125 80.703125 C 54.308594 80.75 54.214844 80.933594 54.128906 81.042969 C 53.953125 81.265625 53.773438 81.492188 53.589844 81.710938 C 53.203125 82.183594 52.804688 82.644531 52.402344 83.097656 C 51.597656 83.996094 50.726562 84.820312 49.839844 85.640625 C 48.976562 86.433594 48.089844 87.195312 47.1875 87.945312 C 46.726562 88.332031 46.261719 88.710938 45.804688 89.097656 C 45.566406 89.296875 45.328125 89.496094 45.09375 89.695312 C 45.011719 89.765625 44.933594 89.824219 44.851562 89.882812 C 44.851562 89.882812 44.847656 89.882812 44.847656 89.886719 C 44.613281 90.25 44.4375 90.625 44.285156 91.035156 C 44.179688 91.324219 43.890625 91.539062 43.539062 91.320312 C 43.449219 91.269531 43.390625 91.203125 43.355469 91.132812 C 43.3125 91.113281 43.265625 91.089844 43.21875 91.054688 C 43.101562 90.96875 43.023438 90.84375 42.96875 90.71875 C 42.941406 90.660156 42.875 90.402344 42.871094 90.398438 C 42.765625 90.335938 42.699219 90.257812 42.667969 90.171875 C 42.363281 90.253906 42.050781 90.230469 41.960938 89.808594 C 41.828125 89.175781 42.6875 88.984375 43.125 88.851562 C 43.472656 88.746094 43.785156 88.597656 44.078125 88.40625 C 44.265625 88.28125 44.429688 88.117188 44.621094 88 C 44.667969 87.796875 44.820312 87.65625 44.949219 87.5 C 45.113281 87.304688 45.273438 87.109375 45.433594 86.914062 C 45.753906 86.523438 46.070312 86.128906 46.386719 85.734375 C 47.019531 84.945312 47.632812 84.140625 48.242188 83.332031 C 48.863281 82.507812 49.472656 81.675781 50.085938 80.847656 C 50.386719 80.441406 50.675781 80.027344 50.988281 79.628906 C 51.09375 79.492188 51.203125 79.351562 51.320312 79.214844 C 51.328125 79.1875 51.34375 79.15625 51.363281 79.128906 C 51.503906 78.929688 51.628906 78.746094 51.699219 78.503906 C 51.769531 78.261719 51.792969 78.003906 51.832031 77.753906 C 51.898438 77.328125 51.988281 76.863281 52.273438 76.550781 C 52.515625 76.292969 52.960938 76.25 53.253906 76.601562 C 53.429688 76.816406 53.566406 77.160156 53.539062 77.433594 C 53.601562 77.523438 53.667969 77.613281 53.738281 77.699219 C 53.816406 77.71875 53.894531 77.742188 53.972656 77.777344 C 54.304688 77.914062 54.808594 78.234375 55 78.550781 C 55.246094 78.972656 54.867188 79.296875 54.550781 79.445312 C 54.339844 79.542969 54.027344 79.578125 53.78125 79.679688 C 53.777344 79.679688 53.777344 79.683594 53.773438 79.683594 C 53.667969 79.765625 53.566406 79.855469 53.46875 79.945312 C 53.445312 79.984375 53.417969 80.023438 53.394531 80.0625 C 53.351562 80.125 53.296875 80.164062 53.230469 80.175781 C 52.976562 80.433594 52.734375 80.707031 52.484375 80.964844 C 51.621094 81.84375 50.75 82.71875 49.910156 83.617188 C 49.070312 84.519531 48.238281 85.425781 47.429688 86.359375 C 47.027344 86.824219 46.632812 87.292969 46.238281 87.769531 C 46.210938 87.804688 46.183594 87.839844 46.15625 87.875 C 46.121094 87.980469 46.066406 88.085938 46.003906 88.1875 C 46.1875 88.027344 46.371094 87.867188 46.554688 87.703125 C 48.035156 86.398438 49.523438 85.128906 50.886719 83.707031 C 51.570312 82.992188 52.242188 82.261719 52.882812 81.503906 C 53.019531 81.34375 53.152344 81.171875 53.285156 81 C 53.386719 80.746094 53.570312 80.515625 53.757812 80.324219 C 53.75 80.261719 53.761719 80.195312 53.804688 80.136719 C 54.09375 79.757812 54.554688 79.386719 55.132812 79.722656 C 55.78125 80.101562 55.34375 80.660156 54.839844 80.695312 Z M 26.148438 101.234375 C 26.273438 101.46875 26.125 101.710938 25.8125 101.730469 C 25.570312 101.746094 25.34375 101.699219 25.121094 101.628906 C 24.917969 101.566406 24.667969 101.441406 24.445312 101.488281 C 24.246094 101.527344 24.066406 101.683594 23.878906 101.753906 C 23.679688 101.832031 23.492188 101.847656 23.277344 101.804688 C 23.15625 101.78125 23.0625 101.695312 23.03125 101.597656 C 22.8125 100.972656 22.976562 100.273438 22.945312 99.628906 C 22.917969 99.027344 22.816406 98.429688 22.78125 97.828125 C 22.734375 97.742188 22.6875 97.660156 22.65625 97.550781 C 22.621094 97.4375 22.59375 97.324219 22.5625 97.210938 C 22.488281 96.945312 22.417969 96.679688 22.351562 96.414062 C 22.226562 95.890625 22.09375 95.371094 21.953125 94.851562 C 21.6875 93.84375 21.398438 92.84375 21.078125 91.847656 C 20.757812 90.855469 20.425781 89.867188 20.070312 88.886719 C 19.890625 88.386719 19.71875 87.886719 19.539062 87.386719 C 19.515625 87.324219 19.492188 87.257812 19.46875 87.195312 C 19.457031 87.175781 19.441406 87.152344 19.429688 87.132812 C 19.179688 86.75 18.886719 86.394531 18.554688 86.066406 C 18.304688 85.816406 18.097656 85.53125 18.28125 85.199219 C 18.328125 85.117188 18.390625 85.046875 18.46875 84.992188 C 18.488281 84.960938 18.511719 84.929688 18.542969 84.898438 C 18.824219 84.621094 19.210938 84.792969 19.539062 84.890625 C 19.988281 85.019531 20.402344 84.84375 20.820312 84.71875 C 21.179688 84.613281 21.605469 84.507812 21.964844 84.671875 C 22.292969 84.824219 22.375 85.152344 22.210938 85.425781 C 22.117188 85.585938 21.957031 85.707031 21.859375 85.867188 C 21.765625 86.019531 21.726562 86.195312 21.691406 86.367188 C 21.636719 86.65625 21.652344 86.964844 21.613281 87.261719 C 21.703125 87.921875 21.949219 88.585938 22.113281 89.21875 C 22.363281 90.195312 22.609375 91.175781 22.855469 92.152344 C 23.101562 93.128906 23.351562 94.105469 23.589844 95.085938 C 23.71875 95.597656 23.855469 96.113281 23.96875 96.628906 C 23.996094 96.746094 24.023438 96.863281 24.046875 96.976562 C 24.351562 97.101562 24.351562 97.398438 24.40625 97.664062 C 24.488281 98.078125 24.703125 98.472656 24.902344 98.855469 C 25.316406 99.648438 25.730469 100.441406 26.148438 101.234375 " fill-opacity="1" fill-rule="nonzero"/></g></svg>