<?xml version="1.0" encoding="UTF-8"?><svg xmlns="http://www.w3.org/2000/svg" xmlns:xlink="http://www.w3.org/1999/xlink" width="562.5" zoomAndPan="magnify" viewBox="0 0 562.5 374.999991" height="374.999991" preserveAspectRatio="xMidYMid meet" version="1.0"><defs><clipPath id="clip-0"><path d="M 38 155 L 525 155 L 525 366.761719 L 38 366.761719 Z M 38 155 " clip-rule="nonzero"/></clipPath></defs><g clip-path="url(#clip-0)"><path fill="rgb(0%, 0%, 0%)" d="M 200 254.945312 C 197.949219 255.871094 198.257812 258.433594 198.359375 260.175781 C 198.359375 260.6875 198.460938 261.199219 198.460938 261.710938 C 200.410156 260.6875 202.769531 259.25 203.078125 257.40625 C 203.59375 255.5625 201.847656 254.128906 200 254.945312 Z M 200 254.945312 C 197.949219 255.871094 198.257812 258.433594 198.359375 260.175781 C 198.359375 260.6875 198.460938 261.199219 198.460938 261.710938 C 200.410156 260.6875 202.769531 259.25 203.078125 257.40625 C 203.59375 255.5625 201.847656 254.128906 200 254.945312 Z M 489.617188 312.339844 C 494.953125 315.105469 501.3125 320.027344 507.570312 317.363281 C 512.390625 315.3125 515.367188 309.777344 517.828125 305.472656 C 520.292969 301.066406 522.34375 296.453125 524.191406 291.738281 C 525.011719 289.792969 523.675781 287.539062 522.035156 286.511719 C 515.574219 282.3125 509.210938 278.109375 502.542969 274.417969 C 490.128906 267.65625 496.59375 263.144531 498.441406 261.199219 C 503.878906 255.460938 509.316406 249.71875 514.855469 244.082031 C 517.007812 241.828125 516.394531 238.550781 513.929688 236.808594 C 500.800781 227.6875 487.667969 218.5625 474.535156 209.441406 C 472.585938 208.109375 469.203125 208.929688 468.175781 211.082031 C 462.636719 222.5625 456.992188 234.140625 451.453125 245.621094 C 446.21875 242.445312 440.886719 239.472656 435.347656 236.703125 C 430.214844 234.039062 423.238281 229.222656 417.1875 229.941406 C 412.058594 230.65625 410.007812 234.859375 407.75 238.960938 C 404.671875 244.492188 401.285156 249.824219 398.003906 255.152344 C 396.566406 257.40625 397.695312 259.96875 399.644531 261.507812 C 410.621094 269.707031 422.316406 276.777344 434.628906 282.515625 C 428.472656 300.453125 419.855469 316.847656 410.722656 333.554688 C 410.007812 334.785156 403.644531 345.957031 399.335938 352.824219 C 392.15625 353.027344 385.078125 353.230469 377.894531 353.4375 C 377.792969 334.886719 377.691406 288.5625 377.691406 283.847656 C 377.691406 280.054688 378.101562 275.753906 375.433594 272.675781 C 373.378906 270.320312 370.199219 269.808594 367.226562 269.601562 C 362.300781 269.191406 313.261719 268.679688 308.644531 268.886719 C 305.054688 268.988281 301.875 269.707031 300.027344 273.085938 C 297.667969 277.496094 298.695312 284.257812 298.796875 289.074219 C 298.898438 296.25 300.4375 340.933594 300.234375 356.203125 C 292.128906 356.511719 284.023438 356.71875 276.019531 356.921875 C 277.355469 349.953125 277.558594 342.675781 278.277344 335.707031 C 279.304688 325.152344 280.535156 314.59375 281.5625 303.9375 C 283.203125 287.332031 284.230469 270.628906 286.179688 254.128906 C 287 247.566406 287.71875 241.113281 286.382812 234.550781 C 283.511719 221.332031 275.714844 210.363281 267.507812 199.910156 C 255.402344 184.4375 242.371094 169.984375 227.496094 157.175781 C 225.648438 155.535156 222.878906 155.328125 220.929688 157.175781 C 208.105469 169.984375 196.207031 183.820312 185.535156 198.476562 C 178.96875 207.597656 172.097656 217.539062 169.429688 228.609375 C 166.144531 242.238281 169.019531 256.792969 170.863281 270.320312 C 173.226562 287.4375 176.710938 304.449219 179.894531 321.359375 C 182.148438 333.144531 183.585938 345.339844 186.253906 357.023438 C 176.917969 356.71875 167.480469 356.308594 158.144531 355.792969 C 158.964844 346.160156 158.453125 336.425781 158.246094 326.894531 C 157.9375 314.59375 157.21875 302.296875 155.167969 290.101562 C 152.605469 274.316406 149.527344 256.484375 136.496094 245.929688 C 120.289062 232.808594 98.4375 231.171875 81.917969 244.800781 C 69.914062 254.640625 65.707031 269.089844 63.042969 283.847656 C 59.347656 304.140625 59.144531 325.5625 59.449219 346.261719 C 53.910156 346.058594 48.371094 346.058594 42.832031 346.261719 C 36.878906 346.570312 36.878906 355.792969 42.832031 355.488281 C 73.609375 353.949219 104.285156 360.507812 134.855469 363.171875 C 165.429688 365.839844 196.207031 366.761719 226.984375 366.761719 C 288.023438 366.761719 348.964844 362.96875 409.902344 361.636719 C 444.785156 360.917969 479.5625 361.019531 514.339844 363.070312 C 520.292969 363.378906 520.292969 354.15625 514.339844 353.847656 C 494.234375 352.71875 474.023438 352.207031 453.914062 352.105469 C 460.480469 336.015625 467.046875 319.925781 473.613281 303.832031 C 479.050781 306.703125 484.382812 309.574219 489.617188 312.339844 Z M 213.03125 281.800781 C 209.234375 278.621094 205.234375 275.753906 201.027344 272.984375 C 201.746094 275.238281 202.566406 277.597656 203.285156 279.75 C 205.234375 285.386719 196.308594 287.742188 194.359375 282.207031 C 190.871094 272.265625 181.738281 245.519531 200.925781 245.414062 C 206.976562 245.414062 212.414062 250.539062 212.414062 256.691406 C 212.414062 260.6875 210.261719 263.863281 207.492188 266.324219 C 211.59375 269.089844 215.59375 272.0625 219.390625 275.238281 C 224.210938 279.03125 217.648438 285.589844 213.03125 281.800781 Z M 229.855469 273.703125 C 227.597656 264.273438 224.726562 255.050781 221.441406 245.929688 C 219.390625 240.292969 228.316406 237.933594 230.367188 243.46875 C 233.652344 252.589844 236.523438 261.917969 238.78125 271.34375 C 240.21875 277.085938 231.292969 279.542969 229.855469 273.703125 Z M 254.886719 260.378906 C 255.8125 262.734375 256.734375 264.992188 257.554688 267.347656 C 259.710938 272.882812 250.785156 275.238281 248.628906 269.808594 C 245.449219 261.609375 238.679688 250.539062 241.449219 241.417969 C 243.5 234.757812 250.886719 230.554688 257.65625 232.296875 C 273.765625 236.292969 268.222656 259.660156 254.886719 260.378906 Z M 256.527344 241.625 C 253.863281 239.777344 250.679688 242.136719 250.167969 245.007812 C 249.859375 246.75 250.375 248.796875 251.089844 250.746094 C 252.324219 254.945312 266.378906 248.386719 256.527344 241.625 Z M 200 254.945312 C 197.949219 255.871094 198.257812 258.433594 198.359375 260.175781 C 198.359375 260.6875 198.460938 261.199219 198.460938 261.710938 C 200.410156 260.6875 202.769531 259.25 203.078125 257.40625 C 203.59375 255.5625 201.847656 254.128906 200 254.945312 Z M 200 254.945312 C 197.949219 255.871094 198.257812 258.433594 198.359375 260.175781 C 198.359375 260.6875 198.460938 261.199219 198.460938 261.710938 C 200.410156 260.6875 202.769531 259.25 203.078125 257.40625 C 203.59375 255.5625 201.847656 254.128906 200 254.945312 Z M 200 254.945312 C 197.949219 255.871094 198.257812 258.433594 198.359375 260.175781 C 198.359375 260.6875 198.460938 261.199219 198.460938 261.710938 C 200.410156 260.6875 202.769531 259.25 203.078125 257.40625 C 203.59375 255.5625 201.847656 254.128906 200 254.945312 Z M 200 254.945312 " fill-opacity="1" fill-rule="nonzero"/></g><path fill="rgb(0%, 0%, 0%)" d="M 510.136719 62.375 C 494.4375 31.523438 463.660156 8.261719 427.652344 12.359375 C 406.414062 14.71875 384.050781 24.144531 368.765625 39.210938 C 353.171875 54.480469 344.039062 75.800781 343.117188 97.628906 C 341.886719 137.394531 368.355469 171.113281 405.082031 184.027344 C 433.703125 194.171875 466.945312 185.050781 489.617188 165.785156 C 502.03125 155.226562 511.570312 141.289062 516.394531 125.710938 C 523.0625 104.597656 520.085938 81.949219 510.136719 62.375 Z M 510.136719 62.375 " fill-opacity="1" fill-rule="nonzero"/><path fill="rgb(0%, 0%, 0%)" d="M 96.179688 110.234375 C 105.71875 104.292969 117.210938 102.035156 128.289062 104.1875 C 133.828125 105.214844 138.34375 107.46875 143.269531 110.03125 C 147.472656 112.183594 152.089844 112.082031 154.964844 107.878906 C 157.632812 103.882812 159.167969 99.472656 162.246094 95.785156 C 165.429688 91.992188 169.121094 88.714844 173.328125 86.152344 C 182.253906 80.617188 192.410156 78.257812 202.875 79.386719 C 208.824219 80 208.722656 70.777344 202.875 70.164062 C 182.148438 67.90625 160.914062 78.773438 150.347656 96.707031 C 149.730469 97.730469 147.0625 101.933594 140.5 98.449219 C 135.472656 95.785156 129.726562 94.964844 123.980469 94.554688 C 112.59375 93.632812 101.101562 96.503906 91.460938 102.445312 C 86.535156 105.417969 91.152344 113.414062 96.179688 110.234375 Z M 96.179688 110.234375 " fill-opacity="1" fill-rule="nonzero"/><path fill="rgb(0%, 0%, 0%)" d="M 317.261719 134.21875 C 298.796875 122.738281 272.535156 122.945312 254.988281 136.164062 C 253.347656 137.394531 239.394531 123.867188 234.78125 121.304688 C 225.136719 115.871094 213.953125 113.414062 202.976562 114.640625 C 197.128906 115.257812 197.027344 124.480469 202.976562 123.867188 C 213.75 122.738281 224.316406 125.199219 233.34375 131.246094 C 237.652344 134.113281 241.449219 137.804688 244.421875 142.007812 C 246.988281 145.59375 249.554688 149.488281 254.683594 148.257812 C 259.195312 147.234375 262.890625 142.828125 266.890625 140.570312 C 271.507812 138.113281 276.738281 136.472656 281.972656 135.753906 C 292.640625 134.21875 303.515625 136.574219 312.648438 142.210938 C 317.671875 145.285156 322.289062 137.394531 317.261719 134.21875 Z M 317.261719 134.21875 " fill-opacity="1" fill-rule="nonzero"/></svg>