<?xml version="1.0" encoding="UTF-8" standalone="no"?>
<!-- Created with Inkscape (http://www.inkscape.org/) -->

<svg
   version="1.1"
   id="svg2"
   width="321.75195"
   height="414.2074"
   viewBox="0 0 321.75195 414.2074"
   xmlns="http://www.w3.org/2000/svg"
   xmlns:svg="http://www.w3.org/2000/svg">
  <defs
     id="defs6" />
  <g
     id="g8"
     transform="translate(-1041.0508,-579.45531)">
    <path
       style="fill:#000000;stroke-width:0.322168"
       d="m 1298.2012,993.5708 c -10.2736,-1.297 -12.1,-1.4318 -31.2582,-2.3061 -6.9955,-0.3192 -14.1848,-0.076 -23.4837,0.7932 -3.2849,0.3071 -6.0717,0.4624 -6.1929,0.345 -0.1211,-0.1174 0.1747,-2.9598 0.6574,-6.3165 0.8002,-5.5648 0.8773,-6.9792 0.8741,-16.0356 0,-6.5778 0.1749,-11.8795 0.5248,-15.6968 0.626,-6.82873 0.4538,-13.19903 -0.5278,-19.51935 -0.8327,-5.36139 -1.4166,-7.54014 -2.7981,-10.44021 -1.2352,-2.59286 -5.2731,-8.72876 -5.6395,-8.5697 -0.1305,0.0566 -2.2658,1.22064 -4.7453,2.58674 -6.0476,3.332 -17.3501,8.62703 -22.9855,10.76836 -5.4026,2.05285 -11.7435,3.9802 -17.7383,5.39167 l -4.3185,1.01681 -1.002,3.96384 c -1.3215,5.22776 -1.94,9.19521 -2.3154,14.85034 -0.1698,2.5585 -0.4045,5.94 -0.5216,7.5146 -0.1881,2.5294 -0.1329,3.0147 0.4742,4.1676 0.8564,1.6263 2.4859,2.9896 5.9739,4.9979 1.4938,0.8601 3.3448,2.1996 4.1133,2.9766 1.7539,1.7734 3.8769,5.6886 4.5217,8.3386 0.4787,1.9673 0.667,4.7723 0.3416,5.0876 -0.088,0.086 -1.3035,-0.024 -2.7003,-0.2424 -6.3177,-0.9904 -13.7257,-0.8938 -29.5427,0.385 -3.3303,0.2693 -13.6406,0.6332 -22.9117,0.8086 -9.2711,0.1754 -18.3294,0.3895 -20.1296,0.4758 -2.8829,0.1382 -7.5558,-0.2517 -8.8695,-0.7401 -1.0824,-0.4025 -0.314,-2.2244 2.9855,-7.0791 4.8725,-7.169 9.5465,-9.8915 16.9303,-9.8615 4.2716,0.017 7.3876,0.6127 13.3287,2.5466 6.9478,2.2616 7.8188,2.3545 22.3123,2.3786 l 12.647,0.021 -0.8223,-1.5728 c -1.5642,-2.9918 -4.3186,-6.998 -6.3313,-9.2089 -2.4901,-2.7351 -3.5808,-4.9319 -3.916,-7.8871 -0.2446,-2.1561 0.071,-12.10518 0.5355,-16.87555 l 0.2189,-2.24806 -4.227,-0.2073 c -15.5621,-0.76305 -23.1424,-5.24044 -25.6516,-15.15147 -0.5333,-2.10635 -0.7398,-4.43645 -0.9926,-11.19984 -0.1755,-4.69709 -0.4029,-8.62129 -0.5052,-8.72044 -0.1023,-0.0992 -6.2509,-0.20102 -13.6635,-0.22632 -8.3085,-0.0285 -14.4806,-0.18811 -16.0929,-0.41649 -6.0269,-0.85375 -11.3726,-2.77783 -15.3292,-5.51751 -4.211,-2.9158 -10.1648,-9.71324 -14.4573,-16.50589 -8.9049,-14.09105 -12.0667,-27.47543 -8.94,-37.84357 0.3814,-1.26446 0.7598,-2.29902 0.8409,-2.29902 0.3542,0 3.3777,2.79072 5.4409,5.02198 1.2359,1.33652 5.0893,6.06884 8.5632,10.51626 6.6429,8.50463 9.5221,11.84498 9.9757,11.57338 0.1502,-0.0899 0.666,-0.83998 1.1463,-1.66677 1.6221,-2.79282 2.7029,-6.66819 3.7492,-13.44418 0.5562,-3.60256 1.2445,-7.3108 1.5295,-8.24055 l 0.5182,-1.69046 2.0103,2.05696 c 3.3756,3.45406 7.0555,8.93759 11.2014,16.6917 1.3847,2.58984 2.8762,5.32242 3.3144,6.0724 l 0.7968,1.3636 1.1323,-1.43667 c 1.7407,-2.20875 3.5594,-5.709 4.8719,-9.37676 1.011,-2.82518 3.1766,-10.64723 3.9288,-14.19055 0.1204,-0.56683 0.3295,-1.03059 0.4648,-1.03059 0.509,0 4.9602,4.76254 8.595,9.1961 2.0732,2.52893 4.9166,5.65003 6.3187,6.93578 l 2.5492,2.33772 0.7444,-1.49644 c 1.9065,-3.83237 3.5504,-4.1958 8.6783,-1.91855 1.7574,0.78046 3.8397,1.55894 4.6274,1.72996 3.0583,0.664 8.1753,-0.79281 12.2695,-3.49309 2.0883,-1.37735 7.2157,-5.57862 7.5817,-6.21236 0.2064,-0.35727 -0.09,-1.10106 -1.0347,-2.6006 -0.7282,-1.15512 -2.4683,-4.50317 -3.8672,-7.44011 -1.3988,-2.93694 -2.9551,-6.04073 -3.4584,-6.8973 -1.8536,-3.15438 -5.2383,-7.49213 -7.7876,-9.98019 -3.094,-3.01978 -6.0366,-4.79284 -10.3114,-6.21302 -2.8131,-0.93461 -3.4681,-1.03232 -6.8735,-1.02542 -6.0709,0.0123 -8.8896,1.01201 -21.2489,7.53631 -6.2747,3.31234 -12.3873,5.81652 -17.2909,7.08366 -6.2643,1.61874 -13.1781,1.00008 -16.6699,-1.49167 -2.7536,-1.96496 -3.7696,-5.77262 -2.503,-9.38094 0.7047,-2.00772 3.5051,-4.73337 6.1166,-5.95329 4.6044,-2.15087 9.8224,-2.85749 24.9203,-3.37464 10.4929,-0.35942 11.7188,-0.55977 20.1296,-3.28986 12.8544,-4.17245 17.1319,-3.71237 23.7496,2.55448 6.2358,5.90521 12.714,15.04017 19.9166,28.08454 1.0361,1.87634 2.0057,3.33849 2.1548,3.24922 0.5269,-0.31548 1.0685,-4.73669 0.8654,-7.06431 -0.4434,-5.08234 -2.4257,-10.49608 -7.1263,-19.46266 -4.0978,-7.81653 -7.4759,-12.71424 -11.3681,-16.48174 -5.1688,-5.00319 -8.3116,-6.0977 -12.6474,-4.40458 -1.0787,0.4212 -2.4493,1.04202 -3.0458,1.37961 -0.6231,0.3526 -1.2026,0.49418 -1.362,0.33273 -0.2436,-0.24688 -8.1601,-23.46459 -9.2052,-26.99734 -0.2193,-0.74124 -0.5415,-1.34771 -0.7162,-1.34771 -0.6292,0 -4.5288,4.24131 -6.4256,6.98859 -2.2856,3.31049 -5.6395,9.80463 -7.659,14.82995 -0.7923,1.97169 -1.5717,3.59944 -1.732,3.61721 -0.5371,0.0596 -4.19,-7.45668 -7.2781,-14.97547 -4.8426,-11.79039 -7.7711,-16.98501 -12.5172,-22.20314 l -2.3868,-2.62424 -0.9478,1.07924 c -4.2716,4.8643 -8.1638,12.71293 -12.0148,24.22806 -4.4719,13.3717 -6.9149,20.15969 -8.5349,23.71501 -0.9366,2.0555 -1.7652,3.67688 -1.8414,3.60307 -0.076,-0.0738 -0.3515,-2.29213 -0.6118,-4.92961 -1.5891,-16.10129 -5.4545,-33.17241 -10.6877,-47.2021 l -0.9759,-2.61614 -2.0147,0.003 c -4.0892,0.006 -6.6094,1.83603 -11.3334,8.22863 -1.6811,2.27483 -3.8193,4.83491 -4.7515,5.68906 -1.5276,1.39969 -4.5544,3.20292 -5.3763,3.20292 -0.1763,0 -0.037,-0.79875 0.3098,-1.775 1.4828,-4.17548 1.703,-6.19903 1.9641,-18.0442 0.2747,-12.46483 0.5981,-15.32346 2.2854,-20.20277 2.9023,-8.39267 9.1451,-15.80182 16.949,-20.11567 6.1281,-3.38744 12.389,-4.8779 20.5226,-4.88556 10.9304,-0.0103 21.2184,2.98756 31.9806,9.31898 7.8131,4.59647 13.2912,9.02629 24.7025,19.97541 l 8.8958,8.53548 0.3822,-1.37499 c 1.7423,-6.2687 2.4192,-12.93616 2.183,-21.50206 -0.2861,-10.37492 -1.4948,-17.40273 -5.9504,-34.59722 -3.4735,-13.40475 -3.8887,-16.55611 -4.4259,-33.58816 -0.1847,-5.85655 -0.4187,-11.67399 -0.52,-12.92765 -0.1822,-2.25486 -0.1953,-2.28158 -1.2219,-2.48602 -0.5707,-0.11366 -2.0191,-0.41652 -3.2186,-0.67301 -2.5243,-0.53981 -2.4872,0.18602 -0.2974,-5.8189 1.4398,-3.94826 1.7115,-6.27702 0.8164,-6.99673 -1.7643,-1.41856 -10.3702,3.79644 -14.8439,8.99511 -1.0804,1.25541 -2.4481,3.20182 -3.0395,4.32534 l -1.0753,2.04278 -0.1636,6.05812 c -0.1375,5.0869 -0.2567,6.19558 -0.744,6.9155 -0.3529,0.52126 -0.8762,0.85738 -1.335,0.85738 -1.1992,0 -3.5986,-1.74214 -6.4124,-4.65584 -2.2997,-2.38135 -2.6471,-2.90057 -2.9798,-4.453 -0.4026,-1.87876 -0.2675,-3.77825 0.5586,-7.85639 0.4506,-2.22473 1.9061,-7.36937 2.6016,-9.19611 0.1328,-0.34881 -1.4441,0.93547 -3.5042,2.85397 -4.3006,4.00486 -7.5376,6.21471 -11.0252,7.52676 -2.234,0.84042 -6.9449,1.57893 -6.9449,1.08872 0,-0.10833 0.8138,-3.09001 1.8084,-6.62597 1.9659,-6.98837 3.9479,-11.50339 6.3332,-14.42705 0.7221,-0.88501 3.8076,-3.76438 6.8566,-6.3986 5.5364,-4.78325 7.5534,-6.93567 8.8581,-9.45304 0.5763,-1.11196 0.9624,-3.26298 0.5857,-3.26298 -0.059,0 -1.2,0.36199 -2.5367,0.80443 -6.0344,1.99734 -8.7653,2.52504 -13.0679,2.52512 -3.3642,6e-5 -4.295,-0.10499 -5.237,-0.59106 -1.3531,-0.6982 -2.9458,-2.08263 -2.9458,-2.56053 0,-0.18568 0.6967,-0.6941 1.5482,-1.12982 2.3627,-1.20904 5.9342,-3.77886 9.8252,-7.06966 5.0874,-4.30261 6.3325,-5.14661 8.8205,-5.97896 3.0523,-1.02114 9.743,-1.02236 13.6306,-0.002 5.2954,1.38916 9.4482,3.48031 16.3141,8.2151 5.43,3.7445 11.3716,7.15162 19.1652,10.98995 7.4544,3.67125 9.9196,5.28194 12.3001,8.0364 1.6672,1.92908 4.3346,6.88698 5.4173,10.06889 1.526,4.48495 1.8439,6.95275 1.8384,14.26982 -0.01,7.26485 0.068,6.54868 -2.48,24.25869 -0.9576,6.65648 -2.1093,13.22713 -3.585,20.45341 -2.0318,9.95007 -2.2616,12.58174 -2.6026,29.80806 -0.1692,8.54604 -0.4741,18.46356 -0.6775,22.03895 -0.4882,8.57705 -0.4353,15.41537 0.1717,22.19749 0.2731,3.05216 0.4985,5.92264 0.5008,6.37885 0,0.69414 0.5908,1.22859 3.6001,3.27572 1.9778,1.34543 4.3682,2.85535 5.312,3.35536 l 1.7159,0.90911 2.298,-2.14947 c 9.2218,-8.62555 22.8442,-14.00566 31.1427,-12.2996 5.7418,1.18046 9.5648,4.56236 11.6067,10.26753 3.2756,9.15239 1.1866,23.48954 -4.8859,33.53336 -1.4469,2.39315 -5.6979,6.99227 -7.5804,8.20119 l -0.8183,0.52548 2.1276,1.9312 c 3.1103,2.82328 6.8272,5.66796 11.4216,8.74123 3.4242,2.29055 4.1646,2.66571 4.746,2.40498 0.3789,-0.16991 1.9724,-1.47578 3.5412,-2.90192 5.9511,-5.40998 8.9974,-11.98396 15.1447,-32.68206 4.5862,-15.4419 6.9267,-24.99523 8.3127,-33.93046 2.8672,-18.48408 3.0108,-40.50267 0.3606,-55.28923 -1.6879,-9.41718 -5.5886,-20.36006 -8.2905,-23.25743 -1.284,-1.37692 -3.6504,-2.69406 -7.2538,-4.03735 -1.2615,-0.47028 -2.6354,-1.1048 -3.0531,-1.41005 l -0.7595,-0.555 1.3348,-2.79902 c 0.7341,-1.53946 1.3347,-2.84046 1.3347,-2.89109 0,-0.21154 -1.9205,0.46604 -3.4397,1.21357 -3.3144,1.63081 -6.5105,5.0579 -9.3261,10.00017 -0.8097,1.42122 -1.577,2.58822 -1.705,2.59333 -0.5883,0.0235 -0.9759,-2.89137 -0.8211,-6.17429 0.2329,-4.93758 1.5437,-9.11481 5.5978,-17.83927 0.8313,-1.78878 1.5114,-3.32279 1.5114,-3.4089 0,-0.93091 -4.0943,2.7139 -6.0857,5.41756 -3.5593,4.8324 -6.5283,12.87667 -7.7966,21.12415 l -0.4051,2.63413 -1.0511,-3.17107 c -1.5836,-4.77729 -2.3363,-9.58392 -2.3363,-14.91932 0,-5.15361 0.4644,-9.03742 2.1359,-17.86257 0.6401,-3.37969 1.1201,-6.27198 1.0667,-6.42731 -0.1071,-0.3112 -5.8953,9.01064 -7.3072,11.76819 -2.3941,4.67573 -3.308,8.65954 -3.6397,15.86659 -0.1771,3.84706 0.1813,9.43189 0.7449,11.60738 0.2738,1.05698 -0.4694,0.99663 -2.8472,-0.23118 -4.7045,-2.42932 -7.7077,-7.4524 -8.9818,-15.02293 -0.6175,-3.66908 -0.6268,-11.98085 -0.017,-14.74548 1.4547,-6.58988 5.758,-12.33253 12.5001,-16.6807 2.5179,-1.62388 11.0831,-5.83391 11.8689,-5.83391 0.8287,0 0.285,-0.61064 -0.8598,-0.96572 -0.6751,-0.20939 -2.9756,-1.22255 -5.1123,-2.25147 -9.8737,-4.75468 -14.6291,-9.60655 -16.1167,-16.44345 -0.6811,-3.13042 -0.4642,-7.42843 0.4985,-9.87624 1.2173,-3.09521 3.5635,-5.63704 5.6742,-6.14735 0.8505,-0.20563 0.9001,-0.15776 0.9001,0.86907 0,2.08575 0.8839,4.14973 2.3623,5.51588 1.9829,1.83234 2.823,2.34163 8.5467,5.18141 3.3334,1.65383 6.8941,3.77274 10.3304,6.1475 9.2572,6.39738 12.349,7.83109 26.059,12.08359 13.8716,4.30268 19.4668,7.12409 25.6173,12.91763 4.3708,4.11715 6.9621,8.86904 8.3522,15.31568 0.9878,4.58138 0.9658,15.89655 -0.051,26.01231 -1.1635,11.57981 -1.9495,16.51684 -5.1492,32.34492 -1.7595,8.70366 -3.5645,19.38082 -4.8783,28.85674 -1.5544,11.21134 -2.7263,17.8865 -4.5501,25.91671 -4.476,19.70812 -7.9737,30.54449 -15.3297,47.49359 -4.0595,9.35371 -6.7054,17.50745 -8.7364,26.92189 l -0.6429,2.98031 2.3017,2.41051 c 8.5149,8.91766 13.4859,23.29932 12.9659,37.51247 l -0.1711,4.67661 1.6808,0.60661 c 5.295,1.91088 12.8091,2.34866 17.9272,1.04444 10.093,-2.57194 15.0589,-9.47115 13.957,-19.39067 -0.543,-4.88719 -1.9321,-8.04264 -6.7618,-15.35921 -4.9073,-7.43399 -6.1405,-10.33177 -7.0937,-16.66797 -0.7783,-5.1733 -0.5349,-14.48193 0.4559,-17.44153 2.1699,-6.48137 8.3604,-12.28079 17.9505,-16.81665 5.1789,-2.44944 10.9329,-3.7162 19.4157,-4.27439 l 3.1095,-0.20461 0.7219,-2.28262 c 1.8458,-5.8363 7.3292,-10.815 13.6797,-12.42051 2.5482,-0.64424 7.6117,-0.64813 10.1467,-0.008 5.7048,1.44102 11.2983,5.85914 13.8696,10.95511 0.748,1.48248 1.6063,3.80872 1.9074,5.16943 0.5109,2.30942 0.5111,2.65751 0,5.23227 -1.2229,6.19498 -5.1498,11.30045 -10.7066,13.92003 -1.5302,0.72135 -3.5627,1.46604 -4.5166,1.65486 -2.4768,0.49021 -7.4642,0.42393 -9.6525,-0.12828 -7.1972,-1.81619 -13.0933,-7.88229 -14.4784,-14.8957 -0.2657,-1.34558 -0.4832,-3.01436 -0.4832,-3.70841 0,-1.05452 -0.094,-1.23424 -0.5727,-1.09361 -0.3151,0.0926 -1.3093,0.3207 -2.2094,0.50698 -5.1169,1.05895 -11.9741,3.85601 -16.2568,6.63121 -6.0294,3.90697 -10.0093,10.15862 -10.0728,15.82248 -0.065,5.80923 3.0384,11.72982 11.5856,22.10154 6.6326,8.04834 9.6275,12.74829 11.72,18.39221 1.9508,5.26184 2.0688,11.8243 0.3035,16.87102 -3.3,9.43441 -10.2738,18.19272 -18.882,23.71377 -6.4405,4.13077 -11.6115,5.68935 -20.1296,6.06718 -7.4364,0.32989 -17.5034,-0.8735 -22.9012,-2.73752 -0.9843,-0.33991 -1.876,-0.51356 -1.9815,-0.38586 -0.1055,0.1277 -1.0677,1.29326 -2.1381,2.59013 -1.0704,1.29688 -3.0901,3.55655 -4.4882,5.02152 l -2.5421,2.66354 0.9353,1.16207 c 3.628,4.50778 5.9036,8.65087 6.9469,12.64817 0.7553,2.89354 0.7551,3.28085 -0.013,21.01741 -0.4181,9.65087 -0.4093,10.16592 0.2612,15.22117 0.3817,2.8777 1.2732,7.8722 1.9811,11.0987 0.708,3.2266 1.3861,6.455 1.5068,7.1742 l 0.2197,1.3077 3.3331,-1.0439 c 4.6441,-1.4545 7.9317,-1.8549 13.4547,-1.6388 10.9298,0.4278 18.5801,3.1596 24.9683,8.916 4.0925,3.6876 6.4885,8.2106 6.2527,11.8033 l -0.1014,1.5455 -2.2912,0.038 c -1.2601,0.021 -2.733,-0.018 -3.2731,-0.086 z m -93.7,-212.91415 c 2.3191,-3.30353 5.4832,-9.22723 6.5078,-12.18377 0.5356,-1.54524 0.7693,-2.94244 0.7693,-4.59805 -10e-5,-2.84362 -0.5683,-4.06862 -2.4451,-5.27192 -4.5577,-2.9221 -11.6906,0.38781 -21.5994,10.02281 -4.2213,4.10476 -8.0881,8.39557 -7.958,8.8308 0.073,0.24465 22.0527,6.04231 22.5234,5.94109 0.18,-0.0387 1.1709,-1.27215 2.202,-2.74096 z"
       id="path1085" />
  </g>
</svg>
