<?xml version="1.0" encoding="UTF-8" standalone="no"?>
<svg
   version="1.0"
   width="86.328476"
   height="31.61083"
   viewBox="0 0 64.746357 23.708123"
   preserveAspectRatio="xMidYMid meet"
   id="svg8"
   sodipodi:docname="title_bat.svg"
   inkscape:version="1.1.1 (3bf5ae0d25, 2021-09-20)"
   xmlns:inkscape="http://www.inkscape.org/namespaces/inkscape"
   xmlns:sodipodi="http://sodipodi.sourceforge.net/DTD/sodipodi-0.dtd"
   xmlns="http://www.w3.org/2000/svg"
   xmlns:svg="http://www.w3.org/2000/svg">
  <defs
     id="defs12" />
  <sodipodi:namedview
     id="namedview10"
     pagecolor="#ffffff"
     bordercolor="#666666"
     borderopacity="1.0"
     inkscape:pageshadow="2"
     inkscape:pageopacity="0.0"
     inkscape:pagecheckerboard="0"
     inkscape:document-units="pt"
     showgrid="false"
     units="px"
     fit-margin-top="0"
     fit-margin-left="0"
     fit-margin-right="0"
     fit-margin-bottom="0"
     inkscape:zoom="0.61992188"
     inkscape:cx="384.7259"
     inkscape:cy="289.55261"
     inkscape:window-width="2498"
     inkscape:window-height="1417"
     inkscape:window-x="-8"
     inkscape:window-y="137"
     inkscape:window-maximized="1"
     inkscape:current-layer="svg8" />
  <metadata
     id="metadata2">
Created by potrace 1.15, written by Peter Selinger 2001-2017
</metadata>
  <g
     transform="matrix(0.00506062,0,0,-0.00546471,-0.02957721,29.336774)"
     fill="#000000"
     stroke="none"
     id="g6">
    <path
       d="m 9670,5361 -55,-6 -6,-75 c -14,-163 -136,-388 -356,-659 -103,-126 -467,-493 -608,-613 -435,-369 -822,-598 -1012,-598 -55,0 -66,3 -92,28 -27,26 -32,46 -111,442 -126,637 -240,1132 -298,1300 l -19,55 -11,-40 c -6,-22 -45,-170 -87,-330 -106,-402 -167,-630 -170,-633 -1,-1 -34,4 -74,13 -117,24 -308,45 -421,45 -200,0 -397,-49 -641,-160 -63,-28 -121,-54 -130,-57 -13,-4 -73,94 -270,439 l -254,443 -3,-230 c -3,-232 7,-534 34,-965 7,-129 19,-322 26,-427 13,-223 11,-234 -61,-266 -39,-17 -60,-19 -160,-14 -434,19 -1372,451 -1891,870 -196,158 -349,341 -380,453 -7,27 -14,50 -15,52 -1,1 -69,-11 -151,-27 C 1941,4298 1459,4074 1020,3734 883,3628 593,3343 487,3210 370,3062 267,2902 191,2747 109,2582 72,2479 34,2314 11,2212 7,2172 6,2035 5,1947 9,1853 13,1826 l 9,-48 69,76 c 154,167 378,273 645,307 127,16 350,6 468,-21 174,-39 352,-138 569,-315 l 124,-102 100,102 c 157,162 284,244 442,287 99,27 329,29 439,4 216,-48 434,-153 724,-348 48,-32 91,-58 95,-58 4,1 33,38 63,83 206,308 537,497 872,497 158,0 264,-36 395,-134 101,-76 190,-181 382,-448 138,-192 219,-288 309,-365 248,-214 493,-313 774,-313 291,0 555,120 772,351 144,153 244,327 350,609 139,369 200,484 321,606 132,134 256,183 485,191 111,4 153,1 236,-16 207,-43 406,-147 561,-294 22,-22 45,-38 50,-36 5,2 69,71 142,152 353,393 642,559 971,559 180,0 319,-47 528,-176 52,-32 97,-54 101,-50 4,5 36,50 71,99 134,190 285,350 406,430 117,78 313,149 499,181 115,20 370,14 460,-10 106,-29 196,-69 276,-122 44,-28 79,-46 79,-39 0,7 -7,52 -15,101 -67,391 -315,767 -713,1082 -489,388 -1113,638 -1767,707 -139,15 -519,18 -635,6 z"
       id="path4" />
  </g>
</svg>
