<?xml version="1.0" encoding="UTF-8" standalone="no"?>
<!-- Created with Inkscape (http://www.inkscape.org/) -->

<svg
   width="798.88239"
   height="959.20538"
   viewBox="0 0 211.37096 253.78977"
   version="1.1"
   id="svg1316"
   xmlns="http://www.w3.org/2000/svg"
   xmlns:svg="http://www.w3.org/2000/svg">
  <defs
     id="defs1313" />
  <g
     id="layer1"
     transform="translate(-347.58176,-32.503058)">
    <path
       style="fill:#000000;stroke-width:0.264583"
       d="m 530.12302,285.65687 c 7.9e-4,-0.34977 0.41739,-4.95921 0.92604,-10.2432 0.50866,-5.284 0.92772,-10.10603 0.93124,-10.71563 0.004,-0.6096 -0.9038,-5.22361 -2.01631,-10.25336 l -2.02273,-9.14499 -9.16233,-12.45977 c -5.03929,-6.85287 -11.11616,-15.12011 -13.50417,-18.37166 -4.04412,-5.50655 -4.81066,-6.3841 -11.17952,-12.79845 l -6.8377,-6.88654 -1.9976,-6.304 c -1.09867,-3.46719 -1.96148,-6.47715 -1.91734,-6.68879 0.0441,-0.21164 1.68759,-1.10084 3.65212,-1.97601 l 3.57187,-1.59122 7.80521,0.17704 7.80521,0.17704 7.40134,-1.37687 7.40133,-1.37687 6.62158,0.11898 6.62158,0.11897 5.44489,2.8659 c 4.01115,2.11126 5.58927,3.08018 5.9932,3.67969 0.30158,0.44759 1.1495,1.65716 1.88427,2.68793 l 1.33595,1.87414 -3.95572,7.08783 c -2.17564,3.89831 -3.95571,7.12613 -3.95571,7.17294 0,0.0468 0.70974,1.58677 1.57721,3.42212 1.6885,3.5725 1.60465,3.5042 3.01097,2.45279 0.46328,-0.34637 0.42574,-0.48783 -0.76633,-2.88757 l -1.25348,-2.52337 0.71579,-1.56359 c 0.39368,-0.85997 2.06048,-3.64718 3.704,-6.19379 1.64353,-2.54662 3.385,-5.35306 3.86994,-6.23654 l 0.88172,-1.60632 -2.19796,-3.60708 -2.19795,-3.60707 -3.52992,-2.00691 c -1.94145,-1.10381 -5.21583,-2.77614 -7.2764,-3.71629 -3.4321,-1.56593 -3.90473,-1.71179 -5.63215,-1.73809 -1.03711,-0.0158 -2.57871,-0.10509 -3.42578,-0.19844 l -1.54012,-0.16972 2.33387,-1.39093 c 2.83607,-1.69022 4.52793,-3.5633 7.47665,-8.27751 l 2.06173,-3.29614 4.03876,-2.58498 4.03876,-2.58498 0.95795,0.72215 c 3.80729,2.87013 5.08094,4.04123 6.64355,6.10862 0.9475,1.25358 1.84273,2.31577 1.98938,2.36042 0.14666,0.0447 0.41742,-0.16021 0.60168,-0.45526 0.28302,-0.4532 0.22439,-0.84807 -0.3778,-2.54434 l -0.71281,-2.00788 -4.4124,-3.79548 -4.4124,-3.79548 -5.04462,2.14333 -5.04462,2.14333 -2.9873,4.39423 -2.98731,4.39423 -6.61194,5.40931 -6.61195,5.4093 -6.76175,0.46599 c -9.23772,0.63661 -8.26569,0.72202 -9.40223,-0.82624 l -0.96574,-1.31561 6.66218,-7.58607 c 3.6642,-4.17234 7.64832,-8.84977 8.85358,-10.39428 2.17731,-2.79014 2.21242,-2.81979 5.45968,-4.61067 2.94336,-1.62329 3.78118,-1.94121 8.42764,-3.19801 l 5.15938,-1.39554 0.91128,-2.19186 0.91128,-2.19187 3.042,-1.42935 3.04201,-1.42935 1.61758,1.6032 c 0.88967,0.88177 1.7003,1.52049 1.8014,1.41939 0.40036,-0.40036 0.11905,-1.02154 -1.42508,-3.14684 -1.54805,-2.13069 -1.65563,-2.22047 -2.84427,-2.37353 -0.67945,-0.0875 -1.4321,-0.19822 -1.67255,-0.24606 -0.24045,-0.0478 -1.06806,0.43053 -1.83913,1.06303 -0.77107,0.63251 -1.4355,1.11645 -1.47652,1.07543 -0.041,-0.041 0.0475,-0.48341 0.19669,-0.9831 0.19746,-0.66132 0.14421,-2.29799 -0.19573,-6.01531 -0.25685,-2.80873 -0.54624,-5.235 -0.64309,-5.39171 -0.47169,-0.76321 -0.69595,0.39378 -0.8407,4.33725 -0.14851,4.04592 -0.21005,4.43848 -1.00728,6.42584 -0.64252,1.60169 -1.20649,2.48586 -2.31805,3.63415 -1.35348,1.39819 -1.68829,1.59044 -4.25919,2.44554 -2.52992,0.84147 -10.83724,2.89682 -11.00731,2.72336 -0.0387,-0.0395 -0.1555,-2.1554 -0.25951,-4.70201 l -0.18912,-4.63021 -1.21877,-2.84427 c -0.86765,-2.02485 -1.34854,-2.84427 -1.6692,-2.84427 -1.13516,0 -1.71048,0.53281 -2.81366,2.60572 -0.96085,1.80548 -1.11046,2.28636 -0.96031,3.08674 0.27924,1.48848 1.44821,2.41658 1.23777,0.98272 -0.0721,-0.4915 0.17936,-1.23275 0.76303,-2.24895 0.47885,-0.8337 0.95274,-1.51581 1.05308,-1.51581 0.10034,0 0.31381,0.56554 0.47436,1.25677 0.58224,2.50667 0.80882,5.04139 0.81395,9.10589 l 0.005,4.14495 -0.99511,0.78814 c -1.56744,1.24144 -8.85777,5.38681 -9.06473,5.15432 -0.10254,-0.11519 -0.52641,-1.93586 -0.94191,-4.04591 l -0.75547,-3.83646 -3.30098,-3.37181 -3.30098,-3.37181 0.51804,-1.61952 0.51805,-1.61953 2.90686,-1.3109 c 1.59877,-0.721 3.88085,-1.92771 5.07129,-2.68158 2.13796,-1.35392 2.17679,-1.39808 3.175,-3.61097 1.65615,-3.6715 3.69677,-6.89396 5.59042,-8.82819 0.97358,-0.99445 3.43774,-2.97835 5.47592,-4.40869 3.37987,-2.3719 4.08377,-2.74427 8.004,-4.23423 l 4.29823,-1.63363 3.22615,0.94455 c 3.67465,1.07586 3.47505,0.92516 8.35596,6.30862 1.54886,1.70833 2.89571,3.01802 2.99301,2.91042 0.0973,-0.1076 0.31972,-0.64252 0.49426,-1.18871 l 0.31736,-0.99307 -2.67266,-3.53771 -2.67266,-3.53771 -3.66059,-2.22241 -3.66058,-2.22241 -5.10875,0.35173 c -4.57138,0.31474 -5.22402,0.41929 -6.20464,0.99397 l -1.09589,0.64224 -0.44882,-1.25224 c -0.74894,-2.08958 -0.58187,-4.21317 0.67828,-8.621689 l 1.12448,-3.933883 3.60678,-3.369741 c 3.44343,-3.217116 3.67711,-3.383735 5.15938,-3.678729 0.85392,-0.169945 1.79078,-0.372915 2.08191,-0.451046 0.42814,-0.114901 1.05339,0.51439 3.27103,3.292184 2.15821,2.703353 3.13718,3.697208 4.59993,4.669866 1.68353,1.119476 1.92322,1.206326 2.5498,0.923899 5.88825,-2.654133 14.31568,-6.773249 14.30921,-6.993985 -0.005,-0.157864 -0.18057,-0.514522 -0.39099,-0.792573 -0.36861,-0.48709 -0.644,-0.403592 -7.54407,2.287376 l -7.16149,2.792923 -1.7203,-2.155084 c -1.72786,-2.164569 -6.53589,-6.785292 -7.06034,-6.785292 -0.15435,0 -1.81994,0.565483 -3.70131,1.256628 l -3.42067,1.25663 -3.31226,2.910557 -3.31227,2.910559 -1.15077,3.704167 c -0.63293,2.037292 -1.95487,6.383073 -2.93766,9.657293 l -1.78689,5.95312 -4.52636,6.08542 c -2.4895,3.34698 -4.99353,6.89052 -5.56451,7.87453 l -1.03815,1.78913 -4.8473,2.80038 c -2.66602,1.54021 -4.9162,2.73149 -5.00039,2.64729 -0.0842,-0.0842 0.15236,-1.67322 0.52569,-3.53117 l 0.67877,-3.37808 4.55018,-7.67292 4.55017,-7.67291 -0.70093,-4.95675 -0.70093,-4.956743 -3.82407,-6.213779 c -3.67716,-5.975096 -3.93265,-6.485234 -6.65109,-13.280583 l -2.82702,-7.066801 1.01337,-4.119961 c 0.75922,-3.086714 1.3911,-4.920848 2.51954,-7.31339 l 1.50618,-3.193426 7.84709,-2.732564 7.8471,-2.732563 3.3714,1.031197 3.3714,1.031198 1.69019,1.786162 c 1.50325,1.588612 3.59651,4.296582 4.28241,5.539997 0.20316,0.368289 -0.89243,1.475174 -6.22262,6.286738 -3.55805,3.211859 -6.53027,5.938575 -6.60492,6.059368 -0.15035,0.243271 1.24288,1.362109 1.69615,1.362109 0.15763,0 0.96612,-0.503655 1.79665,-1.119237 0.83053,-0.61558 3.53412,-2.497201 6.00798,-4.181385 6.56747,-4.471088 8.8284,-6.158979 8.84824,-6.605627 0.0509,-1.145453 -2.33346,-6.164702 -4.31714,-9.087964 l -2.12725,-3.134841 -4.48421,-2.24504 -4.48421,-2.245038 -4.25834,0.115549 c -2.34209,0.06355 -4.556,0.203515 -4.9198,0.31103 -0.54483,0.161014 -0.43719,-0.02384 0.6105,-1.048429 0.69958,-0.684151 1.22628,-1.289594 1.17045,-1.345428 -0.11956,-0.119563 -2.75774,-0.634422 -3.25082,-0.634422 -0.26898,0 -12.73544,13.198874 -17.43723,18.46168 -0.55597,0.622308 -1.05792,1.08441 -1.11544,1.026893 -0.0772,-0.07722 -2.20246,-11.120967 -2.20246,-11.44502 0,-0.02985 -1.75617,-1.634522 -3.90261,-3.565933 -2.14643,-1.93141 -4.22434,-3.805359 -4.61757,-4.164329 -0.58825,-0.536991 -2.24703,-1.017532 -9.35868,-2.711166 -9.80222,-2.33439 -8.28945,-1.595903 -13.34198,-6.513145 l -2.77812,-2.703739 -0.83461,0.753977 -0.83462,0.753977 1.6409,2.473715 c 0.90249,1.360544 2.03716,3.393859 2.52148,4.518478 0.97864,2.272479 0.74561,2.137901 4.22248,2.438595 0.9287,0.08032 3.20436,0.622466 5.05703,1.204775 2.66791,0.838547 3.77787,1.058742 5.33691,1.058742 1.75889,0 2.20392,0.113883 4.18077,1.069867 3.03241,1.466442 5.1932,3.38106 6.10829,5.412424 0.90341,2.005394 3.07853,9.783294 4.32853,15.478125 1.10649,5.040976 2.56018,8.707805 4.21275,10.626314 0.93082,1.080614 1.1875,1.680753 1.93401,4.521843 0.47342,1.801725 1.79968,5.887257 2.94726,9.078957 l 2.0865,5.803093 -0.3602,5.00701 -0.36019,5.00701 -3.01206,4.78257 c -1.65663,2.63042 -3.39861,5.71046 -3.87107,6.84453 -0.47245,1.13407 -0.94148,1.96751 -1.04229,1.85208 -0.10081,-0.11543 -0.7461,-2.65065 -1.43397,-5.63383 l -1.25068,-5.42396 -2.66716,-4.66892 -2.66717,-4.66893 -4.12561,-2.915376 c -2.26909,-1.603457 -6.06468,-4.448667 -8.43465,-6.322692 l -4.30903,-3.40732 -3.18542,-4.618794 -3.18543,-4.618794 0.21842,-6.217708 c 0.12013,-3.419739 0.21841,-7.454209 0.21841,-8.965485 v -2.74778 l -4.23333,-1.85574 -4.23333,-1.855742 -3.175,0.317801 c -2.71866,0.272124 -13.68058,1.833473 -13.79592,1.965005 -0.0217,0.02479 -1.31682,1.592879 -2.87797,3.48465 -1.56115,1.891771 -2.97256,3.403523 -3.13645,3.359449 -0.1639,-0.04408 -1.42909,-0.495896 -2.81154,-1.004046 -2.30228,-0.846252 -11.39311,-3.281445 -12.24998,-3.281445 -0.20079,0 -0.51386,0.326533 -0.6957,0.725628 -0.26943,0.591349 -0.26505,0.766344 0.0237,0.945655 0.19486,0.121015 3.86664,1.574125 8.1595,3.229136 l 7.80521,3.009109 1.32292,-1.375076 c 2.44466,-2.541051 5.72919,-4.877695 8.06914,-5.740464 2.07349,-0.764519 2.31724,-0.79398 6.56714,-0.793782 3.01176,1.41e-4 5.1024,-0.136498 6.58187,-0.430172 l 2.16815,-0.430377 1.30253,0.956146 c 0.7164,0.525881 1.44058,1.122474 1.60929,1.325761 0.38029,0.458219 0.0672,2.777104 -1.04536,7.743216 -1.45387,6.489427 -0.94354,10.175152 2.14865,15.518278 1.25621,2.170657 2.1288,3.263635 4.377,5.482449 1.5444,1.524215 3.27481,3.328853 3.84536,4.010308 l 1.03736,1.239007 -2.32328,0.08582 c -1.2778,0.0472 -4.52592,-0.06309 -7.21806,-0.245092 -4.33111,-0.292801 -5.37417,-0.46061 -9.05759,-1.457187 l -4.16279,-1.126279 -2.70604,-2.087276 -2.70604,-2.08728 -4.2575,-0.273372 c -4.50337,-0.289158 -3.96167,-0.340085 -11.00014,1.034155 -0.64655,0.126238 -0.8523,-0.157173 -3.67471,-5.061833 l -2.98981,-5.195557 -1.22009,0.181581 c -0.67104,0.09987 -1.25815,0.218437 -1.30468,0.263485 -0.18163,0.175824 6.13268,11.638785 6.5549,11.899728 0.10983,0.06788 1.92392,-0.20756 4.03132,-0.612082 l 3.83164,-0.735494 4.21045,1.076452 4.21046,1.07645 2.31889,1.90487 c 1.49092,1.224722 2.64924,1.966841 3.24407,2.078431 1.29139,0.242266 1.41757,0.640424 0.20734,0.654275 -0.55429,0.0064 -2.19965,0.110411 -3.65635,0.231265 -2.61154,0.216659 -2.70769,0.24934 -6.87917,2.338175 l -4.23062,2.11845 -2.24896,2.70301 c -1.23693,1.48665 -2.21461,2.82427 -2.17263,2.97249 0.042,0.14822 1.71844,2.84536 3.72547,5.99364 2.00703,3.14828 3.73144,5.86578 3.83202,6.03889 0.10058,0.17312 -0.19459,1.82203 -0.65594,3.66425 -0.70088,2.79868 -0.77796,3.38802 -0.46876,3.5838 0.20353,0.12887 0.4395,0.23613 0.52438,0.23835 0.0849,0.002 0.66893,-1.68597 1.29789,-3.75156 1.07004,-3.51417 1.1232,-3.83309 0.82691,-4.96093 -0.17416,-0.66293 -1.19449,-2.5286 -2.2674,-4.14594 -1.07292,-1.61733 -2.26557,-3.56186 -2.65034,-4.32116 l -0.69957,-1.38055 1.13992,-1.45395 c 0.62696,-0.79967 1.27134,-1.6223 1.43196,-1.82805 0.16062,-0.20576 1.4018,-0.8667 2.75816,-1.46875 2.70214,-1.19941 6.18008,-2.00431 11.76647,-2.72312 1.89177,-0.24341 4.65033,-0.65435 6.13013,-0.9132 l 2.69053,-0.47063 2.07197,0.8456 c 1.99923,0.81593 2.24204,0.85085 6.91773,0.99493 4.04779,0.12473 5.51332,0.28902 8.89939,0.99763 l 4.05361,0.8483 2.15317,2.01199 2.15317,2.01199 3.31225,11.077 c 2.55104,8.53128 3.73534,13.02918 5.15318,19.5715 1.0125,4.67199 1.83866,8.79562 1.8359,9.16363 -0.0126,1.6781 -1.19522,4.49126 -2.69498,6.41049 -1.63055,2.08662 -3.5847,5.09607 -6.61911,10.19364 -1.05913,1.77925 -2.02479,3.20473 -2.14591,3.16773 -0.12113,-0.037 -1.29662,-2.59954 -2.6122,-5.69453 l -2.39197,-5.62726 -4.92843,-4.57485 c -4.61658,-4.28537 -5.55624,-5.00764 -14.8503,-11.41473 -5.45703,-3.76194 -10.21953,-6.87999 -10.58334,-6.929 -0.3638,-0.049 -5.04163,0.67136 -10.39517,1.60082 -7.76395,1.34794 -9.85211,1.79628 -10.31875,2.2155 -0.32177,0.28907 -2.65944,2.29977 -5.19483,4.46823 -2.53539,2.16846 -5.06735,4.3405 -5.62657,4.82675 l -1.01678,0.88409 -0.5121,-1.14868 c -0.28166,-0.63176 -1.79822,-3.91293 -3.37012,-7.29147 l -2.85801,-6.14281 -7.10124,-5.91461 -7.10123,-5.9146 -5.8625,1.15289 -5.86249,1.15289 -7.7458,4.42223 -7.74581,4.42223 -2.75661,4.22685 c -2.88171,4.41867 -2.93908,4.62463 -1.29046,4.63264 0.76444,0.004 0.99287,-0.22898 2.7299,-2.78085 l 1.89565,-2.7849 2.82636,-1.4155 c 3.06056,-1.5328 8.44198,-3.87965 13.2774,-5.79032 2.39475,-0.94625 3.64994,-1.27422 5.89419,-1.5401 l 2.85148,-0.33782 1.60122,1.57208 c 2.00085,1.96445 10.37453,13.78246 11.84991,16.72413 1.10867,2.21051 3.19902,7.36058 3.20173,7.88823 7.9e-4,0.15736 -0.88217,1.08009 -1.96216,2.05052 l -1.96363,1.76441 h -2.39488 -2.39487 l -2.43269,2.91242 c -2.73538,3.27479 -1.7692,2.75402 -8.82634,4.75739 -1.60073,0.45442 -5.68655,1.74234 -9.07961,2.86206 l -6.16918,2.03584 -4.25225,3.41654 -4.25225,3.41653 -2.20108,4.58884 -2.20107,4.58883 0.73521,4.20718 0.73522,4.20718 2.20701,3.69905 2.20701,3.69905 1.21362,0.1378 c 0.66749,0.0758 1.25789,0.0944 1.312,0.0414 0.0541,-0.053 -0.75448,-1.88925 -1.79686,-4.08053 -1.04238,-2.19128 -2.12887,-4.5292 -2.41443,-5.19539 l -0.5192,-1.21125 0.90054,-2.07808 c 0.75195,-1.73518 0.93169,-2.53489 1.08925,-4.84654 l 0.1887,-2.76846 2.41743,-1.96208 c 3.49099,-2.83341 9.54563,-6.69253 12.14365,-7.74013 2.45569,-0.99022 5.63838,-1.58118 10.05528,-1.86705 l 2.84815,-0.18434 1.91435,-1.33955 c 1.05288,-0.73676 3.0221,-2.35952 4.37603,-3.60616 2.48912,-2.29185 3.67068,-2.86493 3.5822,-1.73743 -0.0228,0.29104 -0.90674,5.99807 -1.96422,12.68228 l -1.92271,12.15311 0.59589,1.07605 c 0.32773,0.59183 2.68773,4.98457 5.24444,9.76163 l 4.64857,8.68557 -0.18796,4.01443 c -0.10338,2.20793 -0.33546,5.28706 -0.51574,6.84251 l -0.32779,2.82807 3.48844,1.22576 3.48844,1.22575 2.47833,-0.4485 c 1.36309,-0.24668 2.61579,-0.5231 2.78379,-0.61425 0.19606,-0.10638 -0.10081,-0.63293 -0.82885,-1.47015 l -1.13431,-1.3044 -2.02294,0.44451 c -1.11261,0.24447 -2.17625,0.4445 -2.36364,0.4445 -0.18739,0 -0.6723,-0.69377 -1.07758,-1.54171 l -0.73687,-1.5417 0.44568,-2.1851 c 0.24512,-1.2018 0.6657,-2.82462 0.93463,-3.60626 0.31024,-0.90173 0.51343,-2.33929 0.55592,-3.93312 l 0.067,-2.51196 -1.61134,-3.28861 c -1.22517,-2.50048 -2.12912,-3.90446 -3.77187,-5.85831 -1.1883,-1.41332 -2.1064,-2.71077 -2.04023,-2.88322 0.0662,-0.17244 0.7593,-0.66744 1.54027,-1.1 l 1.41996,-0.78646 5.19072,0.0339 5.19072,0.0339 4.06823,2.74423 c 3.82803,2.58219 4.11782,2.83796 4.90807,4.33172 0.4619,0.87313 0.84951,1.7809 0.86135,2.01727 0.0119,0.23637 -1.14958,1.96278 -2.58094,3.83646 -1.91075,2.50121 -2.80005,3.92725 -3.3458,5.36517 -0.64067,1.68799 -0.69561,2.03513 -0.39782,2.51354 0.19003,0.30528 2.54475,3.26978 5.23269,6.58775 l 4.88718,6.0327 0.6185,-0.58105 c 0.34017,-0.31958 0.54149,-0.71257 0.44737,-0.87332 -0.0941,-0.16074 -1.6764,-2.43539 -3.51618,-5.05477 -1.83977,-2.61937 -3.73355,-5.33415 -4.20838,-6.03283 l -0.86334,-1.27033 1.82441,-2.43384 c 1.43024,-1.908 4.14314,-6.39911 4.79796,-7.94286 0.0528,-0.12448 -0.87801,-1.6743 -2.06848,-3.44406 l -2.16447,-3.21774 -3.56394,-2.47391 -3.56395,-2.47392 -6.14154,-0.36596 c -3.37784,-0.20128 -7.23303,-0.43785 -8.5671,-0.5257 l -2.42556,-0.15975 -0.19356,-2.29205 c -0.15013,-1.77774 -0.0887,-2.767 0.2738,-4.40871 0.25705,-1.16417 0.56911,-3.74563 0.69346,-5.73658 0.19106,-3.05895 0.37581,-4.08398 1.19218,-6.61458 1.51651,-4.70088 3.73622,-8.8148 6.23409,-11.554 0.70997,-0.77856 2.12321,-2.63838 3.14052,-4.13292 3.04589,-4.4747 9.19333,-9.66735 13.5937,-11.48239 1.56667,-0.64621 2.41068,-0.80538 5.1,-0.96184 l 3.22264,-0.18748 3.39194,1.32751 c 1.86557,0.73014 4.88022,1.76786 6.69923,2.30605 1.81902,0.53819 3.51002,1.08574 3.7578,1.21676 0.24777,0.13103 2.01637,2.05276 3.93021,4.27052 1.91385,2.21775 4.21369,4.80619 5.11077,5.75207 0.89707,0.94589 3.24751,3.56527 5.22319,5.82084 3.56568,4.07081 3.59943,4.12152 4.57905,6.87916 0.5428,1.52797 1.21256,4.14735 1.48836,5.82084 0.27581,1.67349 0.86833,4.1738 1.31671,5.55625 1.08187,3.33563 1.44843,8.10485 0.79309,10.31875 -0.3596,1.21483 -0.40084,2.1847 -0.24968,5.87139 l 0.18107,4.41619 3.10416,4.84423 c 1.70729,2.66433 4.27027,6.5111 5.69552,8.54839 6.52556,9.32781 8.34342,12.45969 12.08728,20.82452 1.93484,4.32297 3.51789,7.98362 3.51789,8.13478 0,0.15117 -1.38235,3.93654 -3.0719,8.41194 l -3.07189,8.1371 0.43685,2.64583 c 0.86505,5.23921 0.64169,4.81088 3.49217,6.69674 1.60608,1.06259 2.47446,1.79793 2.3883,2.02245 -0.0744,0.19403 -2.35912,3.64697 -5.07705,7.67319 -2.71791,4.02623 -4.87743,7.38466 -4.7989,7.46318 0.0785,0.0785 12.11634,0.20853 26.75071,0.28892 l 26.60796,0.14616 0.001,-0.63595 z"
       id="path2812" />
  </g>
</svg>
