<?xml version="1.0" encoding="UTF-8" standalone="no"?>
<!-- Created with Inkscape (http://www.inkscape.org/) -->

<svg
   width="117.76976"
   height="169.58151"
   viewBox="0 0 31.159915 44.868443"
   version="1.1"
   id="svg2920"
   inkscape:version="1.1.1 (3bf5ae0d25, 2021-09-20)"
   sodipodi:docname="title_owl.svg"
   xmlns:inkscape="http://www.inkscape.org/namespaces/inkscape"
   xmlns:sodipodi="http://sodipodi.sourceforge.net/DTD/sodipodi-0.dtd"
   xmlns="http://www.w3.org/2000/svg"
   xmlns:svg="http://www.w3.org/2000/svg">
  <sodipodi:namedview
     id="namedview2922"
     pagecolor="#505050"
     bordercolor="#ffffff"
     borderopacity="1"
     inkscape:pageshadow="0"
     inkscape:pageopacity="0"
     inkscape:pagecheckerboard="1"
     inkscape:document-units="mm"
     showgrid="false"
     units="px"
     fit-margin-top="0"
     fit-margin-left="0"
     fit-margin-right="0"
     fit-margin-bottom="0"
     inkscape:zoom="0.90583672"
     inkscape:cx="123.09062"
     inkscape:cy="129.71433"
     inkscape:window-width="2498"
     inkscape:window-height="1417"
     inkscape:window-x="-8"
     inkscape:window-y="137"
     inkscape:window-maximized="1"
     inkscape:current-layer="layer1" />
  <defs
     id="defs2917" />
  <g
     inkscape:label="Layer 1"
     inkscape:groupmode="layer"
     id="layer1"
     transform="translate(-221.63364,-96.763757)">
    <path
       style="fill:#000000;stroke-width:0.144357"
       d="m 252.79246,130.0093 c 0.002,-0.69174 0.0247,-0.57095 -0.28752,-2.64467 -0.12393,-0.823 -0.47489,-2.27075 -0.7799,-3.21721 -1.05407,-3.27077 -1.02158,-3.09176 -0.75567,-4.16406 0.22873,-0.92232 0.22733,-0.96843 -0.0479,-1.57946 -0.38474,-0.85399 -2.91848,-4.4573 -3.87025,-5.504 -0.56915,-0.62592 -0.98673,-0.9323 -1.59606,-1.17103 -0.45388,-0.17782 -0.86118,-0.42396 -0.90511,-0.54698 -0.0483,-0.13513 0.12047,-0.44415 0.4262,-0.78058 0.5631,-0.61962 0.61868,-0.83579 0.26896,-1.04608 -0.20078,-0.12074 -0.20862,-0.17951 -0.0511,-0.38342 0.15584,-0.20177 0.15018,-0.36795 -0.0349,-1.02454 -0.12149,-0.43104 -0.25835,-1.18773 -0.30414,-1.68153 -0.18275,-1.97126 -0.17459,-1.94745 -0.66741,-1.94631 -0.39671,0.001 -0.48435,-0.0818 -0.79177,-0.74716 -0.44554,-0.96431 -0.45457,-2.4733 -0.0252,-4.214789 0.1657,-0.672116 0.30127,-1.408589 0.30127,-1.6366 v -0.414566 l -0.40947,0.421528 c -0.51101,0.526044 -0.77766,0.430436 -0.9974,-0.357626 -0.093,-0.333555 -0.20756,-0.60646 -0.25456,-0.60646 -0.047,0 -0.34567,0.589194 -0.66372,1.309326 -0.31804,0.720134 -0.76405,1.545008 -0.99113,1.833064 l -0.41287,0.523733 -1.41779,0.0517 c -1.15662,0.0422 -1.56351,-0.004 -2.20885,-0.25149 -0.43509,-0.16678 -1.02422,-0.344257 -1.3092,-0.394394 -0.28497,-0.05017 -0.70136,-0.256815 -0.92531,-0.459291 -0.22394,-0.202481 -0.43729,-0.368139 -0.47411,-0.368139 -0.0368,0 -0.10291,0.193257 -0.14687,0.429463 -0.0523,0.281213 -0.19056,0.461298 -0.40038,0.521689 -0.41795,0.120282 -2.48902,0.121882 -3.54993,0.0028 l -0.83325,-0.09358 -0.66373,-1.435695 c -0.61284,-1.325615 -0.67865,-1.413769 -0.85833,-1.149738 -0.10703,0.157271 -0.1946,0.370114 -0.1946,0.472977 0,0.392606 -0.2895,0.343063 -1.05003,-0.179689 -0.6204,-0.426426 -0.77084,-0.48271 -0.70951,-0.265445 0.1678,0.594459 0.36486,2.264998 0.36586,3.101482 0.002,1.72604 -0.51405,2.63602 -1.49508,2.63602 -0.4512,0 -0.47763,0.0261 -0.39301,0.3884 0.0537,0.22969 0.0197,0.48038 -0.0831,0.61346 -0.0956,0.12378 -0.16029,0.41592 -0.14374,0.64922 0.0165,0.23329 -0.0333,0.46624 -0.1107,0.51766 -0.18892,0.12546 -0.17799,0.8803 0.0232,1.60188 0.14053,0.50398 0.12839,0.6529 -0.0849,1.04081 l -0.24886,0.45267 0.43623,0.48361 c 0.44473,0.49302 0.55038,0.7732 0.67083,1.77905 0.0794,0.66312 -0.19298,1.08424 -0.79293,1.22582 -0.81797,0.19305 -1.70749,1.78146 -1.71106,3.05545 -0.004,1.24023 0.67653,3.71796 1.37942,5.02619 1.47656,2.74819 4.0452,6.18815 6.8645,9.19301 1.8719,1.41034 1.41508,2.37334 5.1046,7.2412 0.3079,0.35679 0.38343,0.37295 1.3688,0.29287 0.8402,-0.0683 1.11292,-0.0355 1.40301,0.16876 0.55638,0.39172 0.70402,0.86835 0.41552,1.34146 -0.31424,0.51531 -0.0282,0.53651 0.64241,0.0476 0.40151,-0.29273 0.46819,-0.42308 0.4401,-0.86042 -0.0989,-1.53938 -0.10223,-1.5176 0.29154,-1.88155 0.2544,-0.23512 0.55721,-0.35451 0.89824,-0.35415 0.49093,5.6e-4 0.56136,0.0694 1.53907,1.50555 1.11894,1.64356 3.11629,3.98174 3.97493,4.65321 0.67674,0.52923 1.00626,0.53441 1.50243,0.0236 l 0.38966,-0.40111 0.63472,0.3406 c 0.83299,0.44701 1.2273,0.33384 1.68717,-0.48424 0.19717,-0.35074 0.57584,-0.7908 0.84149,-0.97791 0.85056,-0.59909 1.38123,-2.34426 1.71493,-5.63977 m -16.62764,-27.20361 c -1.26653,-1.03799 -1.23686,-2.83827 0.0638,-3.87306 0.59022,-0.46956 1.35163,-0.58796 2.16782,-0.33711 2.02323,0.62186 2.32591,3.34372 0.49099,4.41527 -0.7631,0.44563 -2.04662,0.34895 -2.72265,-0.2051 z m 2.02201,-1.14864 c 0.34903,-0.21902 0.44652,-0.86899 0.19277,-1.28513 -0.44153,-0.72405 -1.60467,-0.3088 -1.60467,0.57288 0,0.63422 0.85161,1.06383 1.4119,0.71225 z m -9.49469,1.30408 c -0.41449,-0.23552 -0.70792,-0.55081 -0.92711,-0.99618 -0.4019,-0.81662 -0.40345,-1.26259 -0.007,-2.10662 1.09754,-2.33863 4.63952,-1.50945 4.60319,1.07761 -0.0259,1.84831 -2.03157,2.95544 -3.66874,2.02519 z m 1.86403,-1.42546 c 0.50371,-0.59806 0.11464,-1.52199 -0.64094,-1.52199 -0.47058,0 -0.79974,0.36438 -0.79974,0.88532 0,0.80066 0.94924,1.22016 1.44068,0.63667 z"
       id="path3075"
       sodipodi:nodetypes="csssssssssssscssscssssscccsssssccssssscssssssscssscsccsssssscssscssscssssssssssscsssssss" />
  </g>
</svg>
