<?xml version="1.0" encoding="UTF-8" standalone="no"?>
<svg
   xmlns:dc="http://purl.org/dc/elements/1.1/"
   xmlns:cc="http://creativecommons.org/ns#"
   xmlns:rdf="http://www.w3.org/1999/02/22-rdf-syntax-ns#"
   xmlns:svg="http://www.w3.org/2000/svg"
   xmlns="http://www.w3.org/2000/svg"
   xmlns:xlink="http://www.w3.org/1999/xlink"
   height="752.1355"
   width="1222.3389"
   version="1.0"
   viewBox="0 0 1145.9427 705.12701"
   id="svg2">
  <title
     id="title89157">Witch and Cat on Broomstick Silhouette</title>
  <defs
     id="defs35" />
  <metadata
     id="metadata34">
    <rdf:RDF>
      <cc:Work>
        <dc:format>image/svg+xml</dc:format>
        <dc:type
           rdf:resource="http://purl.org/dc/dcmitype/StillImage" />
        <cc:license
           rdf:resource="http://creativecommons.org/publicdomain/zero/1.0/" />
        <dc:publisher>
          <cc:Agent
             rdf:about="http://openclipart.org/">
            <dc:title>Openclipart</dc:title>
          </cc:Agent>
        </dc:publisher>
        <dc:title>Witch and Cat on Broomstick Silhouette</dc:title>
        <dc:date>2017-09-23</dc:date>
        <dc:creator>
          <cc:Agent>
            <dc:title>Urs Roesch</dc:title>
          </cc:Agent>
        </dc:creator>
        <dc:language>en</dc:language>
        <dc:contributor>
          <cc:Agent>
            <dc:title>GDJ, j4p4n</dc:title>
          </cc:Agent>
        </dc:contributor>
        <dc:subject>
          <rdf:Bag>
            <rdf:li>remix+287458</rdf:li>
            <rdf:li>remix+172130</rdf:li>
            <rdf:li>witch</rdf:li>
            <rdf:li>black</rdf:li>
            <rdf:li>halloween</rdf:li>
            <rdf:li>walpurgis night</rdf:li>
            <rdf:li>caldron</rdf:li>
            <rdf:li>broom</rdf:li>
            <rdf:li>broomstick</rdf:li>
            <rdf:li>silhouette</rdf:li>
            <rdf:li>outline</rdf:li>
            <rdf:li>cat</rdf:li>
            <rdf:li>hissing cat</rdf:li>
            <rdf:li>black cat</rdf:li>
          </rdf:Bag>
        </dc:subject>
        <dc:description>Silhouette of flying witch with hissing cat on broomstick.</dc:description>
      </cc:Work>
      <cc:License
         rdf:about="http://creativecommons.org/publicdomain/zero/1.0/">
        <cc:permits
           rdf:resource="http://creativecommons.org/ns#Reproduction" />
        <cc:permits
           rdf:resource="http://creativecommons.org/ns#Distribution" />
        <cc:permits
           rdf:resource="http://creativecommons.org/ns#DerivativeWorks" />
      </cc:License>
    </rdf:RDF>
  </metadata>
  <g
     transform="translate(1224.1105,-2349.7383)"
     id="g92272">
    <path
       style="fill:#000000;stroke-width:0.78303671"
       id="path74664"
       d="m -318.5965,3002.0627 c 1.6636,-0.7187 2.7098,-1.7411 1.6102,-3.8248 -64.54336,-25.4341 -141.04348,-46.8949 -163.83189,-119.8981 -2.71664,-8.7836 -2.74268,-17.7491 -1.59143,-26.785 3.97317,-18.8225 3.9691,-18.7999 21.81316,-15.0101 1.69745,0.3605 3.40093,0.644 5.04503,1.2388 4.95488,0.3867 7.93309,2.4294 7.1935,8.6499 -0.3836,9.618 3.71447,19.3737 11.06305,24.2965 11.49767,-0.4155 14.94946,7.9303 17.20643,18.0493 1.16208,5.2102 3.94924,9.795 6.58485,14.3462 18.47371,28.9582 36.11197,49.9879 62.25036,60.4852 54.95104,18.9324 102.67894,9.5708 147.15694,-4.2147 2.9416,-1.903 6.9396,-2.5189 7.5978,-7.2377 -0.981,-2.4515 -3.0813,-2.7807 -5.1395,-3.2018 -46.6295,2.439 -91.3389,7.2858 -127.8971,-22.728 -2.0883,-1.5462 -3.7611,-3.6862 -5.8939,-5.0075 0.072,0.087 0.3301,0.1951 0.3959,0.2591 46.3858,46.529 196.4414,25.9214 226.5187,-18.3357 3.9909,-5.2273 14.876001,-22.2116 9.594601,-25.9583 -34.154401,34.6685 -83.493001,31.9905 -115.680001,21.5357 58.3248,-2.2658 98.5722,-10.6729 131.948901,-48.4115 1.8456,-2.0867 3.9828,-4.1554 4.4831,-7.0108 -0.01,-0.7517 -0.1798,-1.4606 -0.4926,-2.1322 -0.9124,-1.3045 -2.1888,-1.6973 -3.6224,-1.7046 -10.4152,3.6388 -20.638901,9.7471 -31.650201,11.4531 -34.975,5.4187 -43.6555,6.9178 -105.9155,-4.3932 30.7565,10.0594 105.3692,7.9122 103.4295,-10.3252 -31.736,5.2201 -68.765,4.2687 -96.5482,-8.7254 -10.7881,-5.1073 -19.9764,-13.1168 -29.99,-19.7367 -37.0415,-24.4874 -72.9805,-19.1274 -105.99158,-14.5127 -11.3319,1.5841 -21.79533,7.3672 -31.81293,13.4663 -4.30823,2.623 -8.64249,3.6237 -13.53748,1.9088 -6.67521,-2.3386 -13.26652,-0.3914 -19.82842,1.0877 -2.15946,0.7217 -4.34382,1.3592 -6.5391,1.9535 -3.12183,1.2298 -5.89981,3.2046 -8.8516,4.7976 -3.12974,1.7685 -6.33668,1.0305 -9.48313,0.205 -7.50117,-1.9683 -15.08662,-3.4981 -22.63265,-5.2307 -4.85052,-1.1137 -5.97054,-3.8854 -4.24193,-8.7906 3.18872,-9.0485 9.16123,-17.4021 9.458,-27.207 1.01716,-33.609 -17.96829,-44.9397 -38.64029,-59.9577 40.78537,-0.1677 87.78537,-11.78 110.91923,-40.5735 17.49981,-21.7812 25.08263,-52.0165 47.64508,-64.9705 40.2792,-23.1258 99.2898,-13.9904 136.3811,-11.149 37.5147,2.8738 89.2778,-1.7813 105.327801,-42.4878 0.087,-0.22 0.4495,-0.2881 0.5593,-0.5282 4.673,-10.2167 7.1929,-34.3974 2.0909,-34.1294 -11.659001,20.2161 -24.737801,38.6485 -43.928801,46.1297 -68.0458,26.5265 -148.6317,-46.2061 -216.28511,-18.5278 -43.7294,17.8905 -49.23613,104.8774 -97.56835,109.0881 -82.93688,7.2256 -108.97994,-78.8087 -172.86003,-93.3384 -2.27202,-0.3275 -0.67992,-1.5446 -1.21928,-0.6286 -0.1152,0.1958 0.0791,0.3934 0.5882,0.411 37.78098,0.3496 77.82511,7.4479 107.63253,26.4117 24.34966,15.4916 42.36422,38.2145 72.13928,34.8378 31.08907,-3.5257 54.8726,-66.7802 73.29288,-101.2635 -24.75923,6.3876 -36.55667,64.3913 -66.32436,71.4003 -46.19277,10.8763 -57.48984,-29.4573 -91.80247,-50.8047 -25.34268,-15.598 -46.60542,-14.599 -71.14764,-14.6992 26.03448,-2.0617 56.99668,1.5923 78.34302,10.7025 27.34773,12.8155 53.34737,48.6488 82.08872,43.9583 4.93517,-2.536 11.59315,-2.4664 13.17924,-10.1223 -55.03858,-8.76 -67.31459,-64.9293 -130.6648,-65.4267 -83.90017,-0.6586 -115.90423,-5.8441 -150.03363,-6.8496 42.27792,-1.5166 83.75366,4.6399 113.27989,3.9033 36.80024,-6.77 16.32418,-5.3099 -11.2626,-8.5832 -38.82207,-4.6064 -89.17069,-16.9725 -89.17069,-16.9725 -7.9749,-2.5706 -9.6186,-5.0296 -11.9342,-13.3428 -0.6343,-16.2196 -9.4677,-47.8324 -0.408,-59.6853 4.8259,-5.6194 17.0939,-1.8368 28.8521,-0.097 11.7582,1.7397 29.10829,7.2187 50.20007,19.8597 -13.50851,-36.5177 -31.84986,-49.4459 -57.47827,-59.3715 -19.6633,-7.6154 -45.5777,-25.1088 -63.827,-16.577 -18.2494,8.5318 -21.8327,33.3447 -33.7975,52.1994 -11.9649,18.8547 -19.3449,40.8374 -19.2552,61.8805 v 0 0 0 0 c -1.1983,1.5203 -3.2463,0.1718 -4.4844,1.5577 -43.3521,-1.4568 -86.7306,-1.2349 -127.9987,-2.4344 0.2645,4.9574 2.8608,6.4778 6.1095,7.3563 l -0.021,-0.01 c 34.4324,11.8778 80.1738,6.2482 113.5988,18.5172 1.8855,0.7157 3.8429,1.249 5.5904,2.331 0,0 2.4749,3.732 -1.1456,6.5365 -3.6206,2.8045 -14.3455,-2.4658 -21.6652,5.7085 -7.3197,8.1743 -20.0987,40.5039 -8.1894,46.6199 0,0 15.9901,-17.0233 25.6242,-12.9207 0.9597,0.5378 1.7263,1.2963 2.2507,2.3323 2.0454,8.792 8.4131,17.8216 10.4965,26.5961 2.1912,7.9731 -12.6486,17.0532 -9.5629,23.4878 4.4417,7.6057 19.6017,4.5052 24.5811,1.0722 6.743,-4.7475 7.2724,-4.3841 10.7876,3.4885 2.5155,5.6341 3.12,11.0335 0.9659,17.1321 -14.45,40.0748 79.2361,86.2892 40.8363,96.9689 -79.7916,24.6363 -104.6375,-30.6599 -121.8022,-19.4995 -4.0528,3.9615 0.059,8.5154 0.01,13.3921 -4.6106,1.0119 -9.3948,-0.1162 -13.9523,1.0521 -2.2226,0.6984 -4.1821,1.5785 -5.9211,2.9278 -4.6981,6.094 -10.1727,10.8306 -16.4823,8.7266 l -324.6403,-75.2976 c -2.6631,-0.2276 -4.3596,-0.9616 -5.8773,1.6207 l 0.016,-0.032 c -4.0871,7.6348 -0.3114,17.6586 4.9559,18.8839 l 332.9971,77.1737 c 7.0607,4.1786 13.4591,8.5376 20.4657,12.3239 2.9227,1.4346 5.8876,2.7203 9.0747,3.3117 2.3059,0.2042 4.59,0.2292 6.747,-0.8763 1.577,-0.997 2.8251,-2.2313 2.7013,-3.6187 5.8748,8.7586 -0.3843,15.7502 -1.7308,23.9605 -6.3537,53.9224 28.1905,100.132 55.3359,136.3861 4.2533,5.6688 8.4643,11.4343 13.3184,16.5708 1.5291,1.3696 3.2638,3.3622 5.1817,1.6089 2.0408,-1.8656 0.7934,-4.5877 0.088,-6.8037 -23.9341,-51.0795 -32.1828,-102.5921 -17.6701,-143.3278 5.5475,-9.4167 11.9509,-12.8434 20.2163,-11.2944 5.3083,0.9947 7.7596,3.9615 7.5173,9.8431 19.8943,135.4175 43.3731,215.8737 172.36215,263.9483 1.40497,0.7054 1.88353,-0.2618 2.24064,-1.4513 -1.14996,-5.4478 -5.90531,-7.6289 -8.90171,-11.3992 -25.74614,-29.789 -51.27979,-63.2699 -39.49431,-102.177 1.92597,-6.0858 3.05645,-6.2377 6.54646,-1.128 31.87402,49.146 76.07966,42.2339 106.57203,73.7637 14.81649,15.3205 28.16037,38.2756 35.4541,54.3638 0.34447,0.5904 0.79323,1.0677 1.32153,1.464 21.93302,-11.6696 13.22356,-80.0606 5.69552,-96.8338 -11.38367,-28.256 -55.25815,-45.6485 -70.34786,-74.891 33.04792,31.8148 61.65044,63.3977 94.75607,86.7049 40.28288,28.3603 95.22447,33.0964 138.39413,32.2151 z" />
    <path
       style="fill:#000000;fill-rule:evenodd;stroke:none;stroke-width:0.87859851px;stroke-linecap:butt;stroke-linejoin:miter;stroke-opacity:1"
       d="m -980.99988,2469.6343 c -48.54392,5.3482 -38.44142,74.768 -62.30452,86.5948 -7.0721,2.9335 -11.4377,-1.1618 -12.1961,-1.3701 4.826,0.4523 8.7903,-1.7437 8.5378,-2.0268 -1.4258,0.4514 -10.8796,-4.1845 -11.8422,-5.8395 4.0445,1.5802 8.0759,-0.2178 7.7284,-0.5262 -3.3398,-0.7733 -13.8679,-4.778 -14.1702,-6.0735 4.2371,1.1235 7.6568,1.0686 10.4249,0.074 -3.1332,-0.9634 -12.8679,-4.81 -14.1232,-7.1423 0.7272,0.1569 6.0827,-0.6063 6.373,-1.2103 -5.1309,-2.0817 -10.823,-3.5656 -15.6402,-6.2857 3.4815,0.4824 3.3574,-1.1439 4.9666,-1.7567 -10.7558,-2.0742 -15.014,-8.0986 -15.014,-8.0986 1.8614,2.3129 6.7419,-0.086 6.7577,-0.4554 -5.2578,-2.2046 -13.0036,-9.7511 -19.5163,-12.0092 3.0272,0.325 6.9308,-0.5238 7.5307,-1.1104 -18.4956,-13.7206 -48.8152,-10.7435 -56.0823,6.6033 -1.9541,4.6648 -6.1051,22.5556 -6.9753,22.63 -1.0183,0.087 -4.6673,-0.866 -3.152,-2.6512 0.4246,-0.3297 -4.068,0.6207 -4.7761,0.1961 -1.7701,-1.0614 0.6551,-2.076 0.6551,-2.076 -2.9497,0.3671 -6.5969,0.5283 -2.9741,-1.7075 -3.9076,-0.1214 -4.2771,0.6793 -5.5273,-0.3357 4.207,-4.9911 6.19,-13.7594 2.4025,-10.8477 -1.2841,1.6327 -5.3833,3.6135 -6.42,4.0991 2.8803,-1.7286 7.3193,-11.9079 0.704,-6.6178 -6.9494,5.5571 -17.7791,8.0985 -23.8059,15.3716 -3.2194,3.8851 -6.2373,8.6851 -5.7051,14.0196 0.2244,2.2483 -0.1195,4.8045 -0.7512,5.6778 -1.6277,2.2158 -0.1715,6.4104 2.7436,7.9282 1.2136,0.6352 1.9985,0.8674 3.0704,0.6768 -0.01,0 -0.076,0.048 -0.076,0.048 0.5739,0.5101 2.9324,2.9342 2.9324,2.9342 0,0 -0.1903,-2.9987 -0.2541,-3.6365 -0.01,-0.088 0.033,-0.1863 0.096,-0.2867 0.059,-0.026 0.1036,-0.045 0.1633,-0.07 3.2273,-1.4368 3.6869,-1.4344 5.0682,0.059 2.0833,2.257 1.6485,3.3389 -1.7656,4.4004 -4.0752,1.2665 -4.2959,1.8704 -1.5551,4.2607 3.2626,2.8472 5.4938,2.3806 8.6248,-1.7983 4.0429,-6.9365 10.5892,1.0544 9.5757,8.5778 -0.1049,6.221 2.1929,6.1033 3.9159,8.5376 -1.0649,-3.9071 -0.6861,-6.0576 -0.2032,-6.1606 -0.1007,0.6872 1.6765,6.496 4.4422,10.8785 -0.041,-1.4585 0.2317,-4.5487 0.5099,-4.5763 1.3056,-1.1321 1.0168,7.1734 4.1936,9.1002 0,0.3033 0.1014,-4.968 1.0433,-4.4168 -0.2193,1.099 1.5915,7.1456 2.5078,7.1424 -0.041,-1.1879 0.3154,-2.0504 1.2267,-2.4588 0.6073,1.3138 0.5926,2.9221 1.6677,3.7871 1.9011,1.5296 3.8894,1.1145 7.1767,1.4481 5.4141,0.5475 7.6503,9.2219 7.5197,29.1552 -0.1129,16.9298 2.764,24.3967 -4.8849,28.0938 -7.3398,4.4577 -5.8848,10.3457 -2.134,13.2757 14.8311,4.3128 22.1051,-11.2251 20.4816,-20.3419 0.1547,-4.6873 -0.5764,-16.5958 0.2304,-18.1932 4.0852,10.6665 9.1323,21.588 3.5004,30.9972 -2.1293,1.2115 -5.0576,3.7648 -5.2987,6.567 -0.7263,8.4395 11.3532,12.5476 18.1189,1.1905 7.5504,-8.9798 1.4986,-22.5551 1.0471,-31.1497 0.2481,-13.284 -2.9776,-24.7354 -5.3786,-37.9271 -0.023,-0.8112 3.1072,-1.6391 4.1481,0.2668 2.0896,-0.8641 -1.2654,-6.5475 -4.1826,-7.2821 -0.053,-0.1178 4.3841,1.253 5.1208,-0.4754 -3.9136,-2.9004 -4.8156,-4.7698 -4.8159,-4.7706 4.6346,-0.1182 4.027,-0.3932 5.9954,-0.7602 -1.1789,-0.1491 -6.2746,-2.6965 -5.1988,-3.2537 1.6471,1.1653 5.2979,2.0798 4.6453,1.125 -0.5924,-0.7915 -2.8945,-3.7605 -1.7057,-2.9813 2.7343,1.1666 2.4012,2.054 6.9337,1.6568 -0.2074,-0.2665 -1.0636,-2.2579 -0.6079,-2.8164 0,0 1.9147,1.6745 6.2313,3.5929 0.212,-2.181 2.4552,-2.5539 4.6582,-1.7038 11.503,13.8257 9.2919,45.9042 15.0631,55.9788 7.6142,14.7698 25.9057,15.7527 27.4822,29.9011 0.5866,5.8797 -0.958,10.8895 -3.1756,10.2797 -8.6877,-1.17 -16.2705,7.919 -2.6875,13.9454 2.7156,1.2048 11.4933,1.0504 16.4023,-1.401 2.683,-1.3398 6.1772,-4.9037 5.9973,-6.7068 0.7092,-1.6267 1.5071,-1.4898 3.2046,-1.7112 -1.1115,-1.1169 -2.4855,-2.8415 -3.8452,-3.9939 -5e-4,-0.052 -0.012,-1.1865 4.0611,0.2305 -3.7593,-4.3291 -6.8268,-10.8646 -4.4494,-12.2377 1.2449,-0.1242 1.5672,-1.341 1.1868,-2.5949 0.736,0.68 3.1724,2.2706 4.6508,0.9199 -1.975,-1.7658 -5.8178,-4.5434 -5.3422,-7.0261 -0.1229,-0.5267 3.5122,-1.4463 5.0645,-1.3446 -2.0094,-0.6601 -8.3029,-3.1902 -7.3182,-4.8904 0,0 6.7514,-1.0708 7.4198,-2.4842 -8.9307,-1.9975 -10.4774,-4.7397 -10.4774,-4.7397 -0.031,-0.3051 5.0021,-0.6046 6.5507,-1.1795 -0.4477,-0.5409 -9.9784,-1.4186 -10.2562,-2.6167 -1.198,-0.5901 6.9785,-0.3455 7.1876,-1.3374 -6.7265,0.1512 -22.143,-14.0987 -17.9954,-13.996 l -3.2573,-3.1956 c -0.8169,-0.9898 4.8473,3.8368 9.2872,1.4771 -4.2555,-3.2539 -8.2198,-5.7709 -8.1076,-9.2545 0.4296,2.0148 3.5111,3.2671 9.1129,0.6188 -8.6419,-3.7268 -7.1971,-9.3068 -6.7086,-9.5122 4.2121,2.2774 4.7814,0.5888 6.8593,0.5426 -2.5493,-1.0655 -5.9546,-3.8929 -7.1623,-7.1459 3.4669,1.0584 8.3799,1.1631 8.3799,1.1631 -3.7181,-1.6355 -4.4499,-6.0086 -5.0972,-8.5649 3.7423,2.9909 4.703,1.8908 7.9115,1.4227 -1.6322,-0.4249 -4.7164,-5.3231 -3.7888,-7.1586 6.0877,7.1688 28.819,5.1216 28.4312,3.0212 -3.2708,0.1023 -5.3403,-1.673 -5.3403,-1.673 0,0 10.7361,0.094 15.9431,-5.2752 -3.3829,0.4002 -5.3345,0.6898 -5.8538,-1.3464 5.5346,-1.1365 12.2118,-3.7498 16.5382,-9.9331 -7.1164,3.152 -7.5374,1.364 -7.4525,1.1632 5.9343,-3.0246 13.55427,-10.3852 18.62333,-19.8392 -1.41648,1.1091 -12.07773,5.0129 -13.55883,2.6802 9.01804,0.2833 18.63309,-10.2891 19.26942,-17.2969 -8.21223,6.966 -8.8807,3.7563 -8.8807,3.7563 0,0 11.31173,-9.4558 11.99636,-10.9438 0,0 -8.60884,2.6163 -7.27655,1.4752 1.71843,-3.1801 4.38098,-4.7088 9.4087,-5.7142 -0.41391,-2.2747 -4.62319,-6.214 -8.50508,-5.3095 0.92481,-4.0681 8.25636,-1.9796 10.16544,-0.392 0,0 -2.30858,-7.3242 -6.12431,-8.6031 0.0486,-1.9503 8.44784,-0.3343 10.23622,2.0415 0.43045,-5.0821 -6.54025,-9.9067 -7.51068,-9.6283 -0.40461,-2.9342 8.57123,-1.174 7.86819,-1.5298 0.27919,-2.849 -7.50667,-6.052 -7.99157,-5.7069 0.45999,-1.0981 6.29731,0.046 7.23847,0.2903 -1.59338,-3.2876 -7.09632,-5.9047 -8.2782,-5.1408 0.1992,-1.2785 7.34912,-2.2737 7.34912,-2.2737 -0.10146,-1.0168 -7.1686,-3.5734 -7.8681,-2.7201 0.62044,-1.2672 8.03189,-2.565 7.42167,-2.5041 -0.53617,0.053 -1.81589,-3.5562 -7.37271,-3.2337 0.0856,-1.2942 7.59291,-2.8843 5.42564,-2.5204 -2.20713,-1.5506 -8.10399,0.1143 -8.10399,0.1143 -1.69297,-0.6516 3.24175,-4.2948 3.41688,-4.1101 z m 8.00969,22.3885 c 0.006,0.012 0.0127,0.023 0.0181,0.035 0.21304,0.034 0.15163,0.01 -0.0181,-0.035 z m -59.76421,159.6148 c 0.3999,0.1313 0.6896,0.2148 0.6533,0.1742 -0.098,-0.1098 -0.35,-0.1544 -0.6533,-0.1742 z m -73.8944,-73.3119 c 0.031,0.04 0.048,0.046 0.044,0 -0.017,0 -0.027,0 -0.044,0 z"
       id="path92265" />
  </g>
  <g
     transform="translate(-74.179432,-1044.196)"
     style="display:none"
     id="layer1">
    <image
       xlink:href="/home/urs/ownCloud/Drawings/Halloween/Downloads/katze-1.jpg"
       transform="rotate(-44.225215)"
       width="1600"
       height="900"
       preserveAspectRatio="none"
       style="image-rendering:optimizeQuality"
       id="image4144"
       x="-908.83575"
       y="435.4621" />
  </g>
  <g
     id="layer1-2"
     transform="matrix(0.93286821,-0.0930761,0.0930761,0.93286821,-373.14643,236.76321)" />
</svg>
